{
.appVersion = "3151";
.formatVersion = 3;
customParameters = (
{
name = vendorID;
value = "1BOU";
},
{
name = panose;
value = (
0,
0,
9,
0,
0,
0,
0,
0,
0,
0
);
},
{
name = unicodeRanges;
value = (
0,
1,
2,
3,
5,
13,
31,
33,
35,
38,
45,
60,
63,
67
);
},
{
name = codePageRanges;
value = (
"1252",
"1256"
);
},
{
name = fsType;
value = (
);
},
{
name = glyphOrder;
value = (
.notdef,
uni000D,
space,
exclam,
quotedbl,
numbersign,
dollar,
percent,
ampersand,
quotesingle,
parenleft,
parenright,
asterisk,
plus,
comma,
hyphen,
period,
slash,
zero,
one,
two,
three,
four,
five,
six,
seven,
eight,
nine,
colon,
semicolon,
less,
equal,
greater,
question,
at,
A,
B,
C,
D,
E,
F,
G,
H,
I,
J,
K,
L,
M,
N,
O,
P,
Q,
R,
S,
T,
U,
V,
W,
X,
Y,
Z,
bracketleft,
backslash,
bracketright,
asciicircum,
underscore,
grave,
a,
b,
c,
d,
e,
f,
g,
h,
i,
j,
k,
l,
m,
n,
o,
p,
q,
r,
s,
t,
u,
v,
w,
x,
y,
z,
braceleft,
bar,
braceright,
asciitilde,
exclamdown,
cent,
sterling,
yen,
brokenbar,
section,
dieresis,
copyright,
ordfeminine,
guillemotleft,
uni00AD,
registered,
macron,
degree,
plusminus,
twosuperior,
threesuperior,
acute,
paragraph,
periodcentered,
cedilla,
onesuperior,
ordmasculine,
guillemotright,
onequarter,
onehalf,
threequarters,
questiondown,
Agrave,
Aacute,
Acircumflex,
Atilde,
Adieresis,
Aring,
AE,
Ccedilla,
Egrave,
Eacute,
Ecircumflex,
Edieresis,
Igrave,
Iacute,
Icircumflex,
Idieresis,
Eth,
Ntilde,
Ograve,
Oacute,
Ocircumflex,
Otilde,
Odieresis,
multiply,
Oslash,
Ugrave,
Uacute,
Ucircumflex,
Udieresis,
Yacute,
Thorn,
germandbls,
agrave,
aacute,
acircumflex,
atilde,
adieresis,
aring,
ae,
ccedilla,
egrave,
eacute,
ecircumflex,
edieresis,
igrave,
iacute,
icircumflex,
idieresis,
eth,
ntilde,
ograve,
oacute,
ocircumflex,
otilde,
odieresis,
divide,
oslash,
ugrave,
uacute,
ucircumflex,
udieresis,
yacute,
thorn,
ydieresis,
dotlessi,
Lslash,
lslash,
OE,
oe,
Scaron,
scaron,
Ydieresis,
Zcaron,
zcaron,
florin,
circumflex,
caron,
breve,
dotaccent,
ring,
ogonek,
tilde,
hungarumlaut,
uni03BC,
uni060C,

glyphs = (
{
glyphname = .notdef;
layers = (
{
layerId = m01;
shapes = (
{
closed = 1;
nodes = (
(194,3,o),
(219,27,o),
(250,27,cs),
(281,27,o),
(304,3,o),
(304,-29,cs),
(304,-62,o),
(281,-85,o),
(250,-85,cs),
(219,-85,o),
(194,-62,o),
(194,-29,cs)
);
},
{
closed = 1;
nodes = (
(210,88,ls),
(210,164,o),
(315,182,o),
(315,245,cs),
(315,275,o),
(293,292,o),
(257,292,cs),
(215,292,o),
(191,283,o),
(153,263,cs),
(148,261,o),
(145,260,o),
(142,260,cs),
(138,260,o),
(136,263,o),
(134,267,c),
(128,288,ls),
(118,321,o),
(124,342,o),
(162,357,cs),
(192,369,o),
(219,376,o),
(259,376,cs),
(346,376,o),
(412,337,o),
(412,261,cs),
(412,190,o),
(369,151,o),
(301,100,cs),
(289,92,o),
(286,85,o),
(286,75,cs),
(286,64,ls),
(286,57,o),
(283,54,o),
(276,54,cs),
(220,54,ls),
(213,54,o),
(210,57,o),
(210,64,cs)
);
},
{
closed = 1;
nodes = (
(506,555,l),
(506,-266,l),
(21,-266,l),
(21,555,l)
);
},
{
closed = 1;
nodes = (
(95,-192,l),
(432,-192,l),
(432,481,l),
(95,481,l)
);
}
);
width = 527;
}
);
note = ".notdef";
},
{
glyphname = exclam;
layers = (
{
layerId = m01;
shapes = (
{
closed = 1;
nodes = (
(24,19,o),
(55,-10,o),
(94,-10,cs),
(132,-10,o),
(161,19,o),
(161,60,cs),
(161,100,o),
(132,130,o),
(94,130,cs),
(55,130,o),
(24,100,o),
(24,60,cs)
);
},
{
closed = 1;
nodes = (
(46,167,o),
(50,163,o),
(59,163,cs),
(128,163,ls),
(137,163,o),
(141,167,o),
(141,176,cs),
(150,455,ls),
(152,529,o),
(119,556,o),
(56,556,cs),
(46,556,ls),
(37,556,o),
(33,552,o),
(33,543,cs),
(46,176,ls)
);
}
);
width = 189;
}
);
note = exclam;
unicode = 33;
},
{
glyphname = quotedbl;
layers = (
{
layerId = m01;
shapes = (
{
closed = 1;
nodes = (
(43,357,o),
(46,353,o),
(55,353,cs),
(110,353,ls),
(119,353,o),
(122,357,o),
(123,366,cs),
(133,462,ls),
(141,539,o),
(121,556,o),
(58,556,cs),
(37,556,ls),
(28,556,o),
(23,552,o),
(24,543,cs),
(42,366,ls)
);
},
{
closed = 1;
nodes = (
(204,357,o),
(207,353,o),
(216,353,cs),
(271,353,ls),
(280,353,o),
(283,357,o),
(284,366,cs),
(294,462,ls),
(302,539,o),
(282,556,o),
(219,556,cs),
(198,556,ls),
(189,556,o),
(184,552,o),
(185,543,cs),
(203,366,ls)
);
}
);
width = 321;
}
);
note = quotedbl;
unicode = 34;
},
{
glyphname = numbersign;
layers = (
{
layerId = m01;
shapes = (
{
closed = 1;
nodes = (
(246,339,l),
(367,339,l),
(335,212,l),
(214,212,l)
);
},
{
closed = 1;
nodes = (
(61,13,ls),
(59,6,o),
(63,0,o),
(70,0,cs),
(152,0,ls),
(159,0,o),
(164,5,o),
(166,13,cs),
(196,137,l),
(317,137,l),
(288,13,ls),
(286,6,o),
(290,0,o),
(297,0,cs),
(380,0,ls),
(387,0,o),
(392,5,o),
(394,13,cs),
(422,137,l),
(481,137,ls),
(490,137,o),
(495,141,o),
(497,150,cs),
(510,199,ls),
(512,207,o),
(509,212,o),
(500,212,cs),
(440,212,l),
(472,339,l),
(531,339,ls),
(540,339,o),
(545,343,o),
(547,352,cs),
(560,401,ls),
(562,409,o),
(559,413,o),
(550,413,cs),
(490,413,l),
(508,488,ls),
(518,530,o),
(506,556,o),
(460,556,cs),
(432,556,ls),
(423,556,o),
(418,552,o),
(416,543,cs),
(385,413,l),
(263,413,l),
(281,488,ls),
(291,530,o),
(279,556,o),
(234,556,cs),
(206,556,ls),
(197,556,o),
(191,552,o),
(189,543,cs),
(158,413,l),
(99,413,ls),
(91,413,o),
(86,409,o),
(84,401,cs),
(71,352,ls),
(69,343,o),
(72,339,o),
(81,339,cs),
(140,339,l),
(108,212,l),
(50,212,ls),
(41,212,o),
(36,207,o),
(34,199,cs),
(21,150,ls),
(19,141,o),
(22,137,o),
(31,137,cs),
(91,137,l)
);
}
);
width = 578;
}
);
note = numbersign;
unicode = 35;
},
{
glyphname = dollar;
layers = (
{
layerId = m01;
shapes = (
{
closed = 1;
nodes = (
(178,364,o),
(153,380,o),
(153,409,cs),
(153,439,o),
(174,458,o),
(214,463,c),
(214,350,l)
);
},
{
closed = 1;
nodes = (
(307,199,o),
(330,183,o),
(330,155,cs),
(330,128,o),
(312,107,o),
(273,97,c),
(273,213,l)
);
},
{
closed = 1;
nodes = (
(137,93,o),
(89,121,o),
(47,159,cs),
(44,162,o),
(41,163,o),
(37,163,cs),
(29,163,o),
(22,154,o),
(22,140,cs),
(22,67,o),
(83,-5,o),
(214,-10,c),
(214,-52,ls),
(214,-61,o),
(218,-65,o),
(227,-65,cs),
(261,-65,ls),
(269,-65,o),
(273,-61,o),
(273,-52,cs),
(273,-7,l),
(378,8,o),
(443,76,o),
(443,166,cs),
(443,273,o),
(353,305,o),
(273,330,c),
(273,462,l),
(314,458,o),
(349,447,o),
(383,431,cs),
(389,428,o),
(395,426,o),
(400,426,cs),
(407,426,o),
(410,430,o),
(412,439,cs),
(418,461,ls),
(429,504,o),
(421,531,o),
(374,547,cs),
(344,557,o),
(310,563,o),
(273,565,c),
(273,608,ls),
(273,617,o),
(269,621,o),
(261,621,cs),
(227,621,ls),
(218,621,o),
(214,617,o),
(214,608,cs),
(214,565,l),
(119,557,o),
(41,501,o),
(41,403,cs),
(41,293,o),
(133,259,o),
(214,234,c),
(214,91,l)
);
}
);
width = 469;
}
);
note = dollar;
unicode = 36;
},
{
glyphname = percent;
layers = (
{
layerId = m01;
shapes = (
{
closed = 1;
nodes = (
(305,0,ls),
(314,0,o),
(319,4,o),
(324,13,cs),
(584,484,ls),
(604,522,o),
(590,556,o),
(545,556,cs),
(521,556,ls),
(512,556,o),
(507,553,o),
(501,543,cs),
(210,13,ls),
(207,7,o),
(209,0,o),
(217,0,cs)
);
},
{
closed = 1;
nodes = (
(615,72,o),
(582,91,o),
(582,162,cs),
(582,233,o),
(615,254,o),
(647,254,cs),
(679,254,o),
(715,233,o),
(715,162,cs),
(715,91,o),
(679,72,o),
(647,72,cs)
);
},
{
closed = 1;
nodes = (
(148,303,o),
(114,323,o),
(114,394,cs),
(114,464,o),
(148,486,o),
(180,486,cs),
(212,486,o),
(248,464,o),
(248,394,cs),
(248,323,o),
(212,303,o),
(180,303,cs)
);
},
{
closed = 1;
nodes = (
(739,-9,o),
(801,62,o),
(801,164,cs),
(801,265,o),
(739,335,o),
(647,335,cs),
(556,335,o),
(495,265,o),
(495,164,cs),
(495,62,o),
(556,-9,o),
(647,-9,cs)
);
},
{
closed = 1;
nodes = (
(271,223,o),
(334,293,o),
(334,396,cs),
(334,497,o),
(271,566,o),
(180,566,cs),
(89,566,o),
(28,497,o),
(28,396,cs),
(28,293,o),
(89,223,o),
(180,223,cs)
);
}
);
width = 829;
}
);
note = percent;
unicode = 37;
},
{
glyphname = ampersand;
layers = (
{
layerId = m01;
shapes = (
{
closed = 1;
nodes = (
(378,315,o),
(443,363,o),
(443,431,cs),
(443,517,o),
(378,566,o),
(267,566,cs),
(162,566,o),
(93,511,o),
(93,426,cs),
(93,374,o),
(116,340,o),
(150,303,c),
(87,272,o),
(32,233,o),
(32,152,cs),
(32,62,o),
(101,-8,o),
(212,-8,cs),
(271,-8,o),
(322,10,o),
(359,55,c),
(369,42,ls),
(390,15,o),
(415,0,o),
(466,0,cs),
(529,0,ls),
(536,0,o),
(539,8,o),
(535,13,cs),
(431,142,l),
(533,277,ls),
(537,283,o),
(534,290,o),
(527,290,cs),
(443,290,ls),
(433,290,o),
(426,287,o),
(419,277,cs),
(370,214,l),
(314,279,l)
);
},
{
closed = 1;
nodes = (
(235,369,o),
(212,400,o),
(212,425,cs),
(212,458,o),
(236,481,o),
(270,481,cs),
(307,481,o),
(332,458,o),
(332,426,cs),
(332,388,o),
(292,364,o),
(259,347,c)
);
},
{
closed = 1;
nodes = (
(279,101,o),
(261,85,o),
(223,85,cs),
(186,85,o),
(151,110,o),
(151,153,cs),
(151,193,o),
(180,214,o),
(213,233,c),
(302,125,l)
);
}
);
width = 555;
}
);
note = ampersand;
unicode = 38;
},
{
glyphname = quotesingle;
layers = (
{
layerId = m01;
shapes = (
{
closed = 1;
nodes = (
(43,357,o),
(46,353,o),
(55,353,cs),
(110,353,ls),
(119,353,o),
(122,357,o),
(123,366,cs),
(133,462,ls),
(141,539,o),
(121,556,o),
(58,556,cs),
(37,556,ls),
(28,556,o),
(23,552,o),
(24,543,cs),
(42,366,ls)
);
}
);
width = 160;
}
);
note = quotesingle;
unicode = 39;
},
{
glyphname = parenleft;
layers = (
{
layerId = m01;
shapes = (
{
closed = 1;
nodes = (
(40,-5,o),
(176,-130,o),
(281,-144,c),
(283,-145,o),
(286,-143,o),
(286,-139,cs),
(286,-129,ls),
(286,-57,o),
(266,-54,o),
(248,-32,cs),
(180,46,o),
(144,145,o),
(144,274,cs),
(144,404,o),
(180,503,o),
(248,581,cs),
(266,602,o),
(286,606,o),
(286,678,cs),
(286,688,ls),
(286,692,o),
(283,693,o),
(281,693,cs),
(176,679,o),
(40,554,o),
(40,274,cs)
);
}
);
width = 332;
}
);
note = parenleft;
unicode = 40;
},
{
glyphname = parenright;
layers = (
{
layerId = m01;
shapes = (
{
closed = 1;
nodes = (
(303,554,o),
(167,679,o),
(62,693,cs),
(60,693,o),
(57,692,o),
(57,688,cs),
(57,678,ls),
(57,606,o),
(77,602,o),
(96,581,cs),
(163,503,o),
(199,404,o),
(199,274,cs),
(199,145,o),
(163,46,o),
(96,-32,cs),
(77,-54,o),
(57,-57,o),
(57,-129,cs),
(57,-139,ls),
(57,-143,o),
(60,-145,o),
(62,-144,c),
(167,-130,o),
(303,-5,o),
(303,274,cs)
);
}
);
width = 348;
}
);
note = parenright;
unicode = 41;
},
{
glyphname = asterisk;
layers = (
{
layerId = m01;
shapes = (
{
closed = 1;
nodes = (
(68,284,ls),
(63,278,o),
(64,272,o),
(71,267,cs),
(122,230,ls),
(128,225,o),
(135,225,o),
(140,233,cs),
(191,316,l),
(244,233,ls),
(249,225,o),
(255,225,o),
(262,230,cs),
(313,267,ls),
(319,272,o),
(321,278,o),
(316,284,cs),
(254,359,l),
(346,382,ls),
(355,384,o),
(357,390,o),
(354,399,cs),
(334,459,ls),
(331,467,o),
(326,470,o),
(318,467,cs),
(229,430,l),
(236,526,ls),
(237,535,o),
(232,539,o),
(223,539,cs),
(159,539,ls),
(150,539,o),
(145,535,o),
(146,526,cs),
(153,430,l),
(64,467,ls),
(56,470,o),
(51,467,o),
(48,459,cs),
(28,399,ls),
(25,390,o),
(27,384,o),
(36,382,cs),
(130,359,l)
);
}
);
width = 380;
}
);
note = asterisk;
unicode = 42;
},
{
glyphname = plus;
layers = (
{
layerId = m01;
shapes = (
{
closed = 1;
nodes = (
(165,91,ls),
(165,82,o),
(169,79,o),
(178,79,cs),
(254,79,ls),
(263,79,o),
(267,82,o),
(267,91,cs),
(267,223,l),
(389,223,ls),
(398,223,o),
(402,227,o),
(402,236,cs),
(402,305,ls),
(402,314,o),
(398,318,o),
(389,318,cs),
(267,318,l),
(267,379,ls),
(267,439,o),
(243,462,o),
(178,462,cs),
(169,462,o),
(165,458,o),
(165,449,cs),
(165,318,l),
(43,318,ls),
(34,318,o),
(30,314,o),
(30,305,cs),
(30,236,ls),
(30,227,o),
(34,223,o),
(43,223,cs),
(165,223,l)
);
}
);
width = 431;
}
);
note = plus;
unicode = 43;
},
{
glyphname = comma;
layers = (
{
layerId = m01;
shapes = (
{
closed = 1;
nodes = (
(74,-27,o),
(60,-45,o),
(48,-57,cs),
(34,-71,o),
(33,-89,o),
(48,-106,cs),
(51,-109,o),
(57,-110,o),
(62,-106,cs),
(118,-62,o),
(157,-12,o),
(157,60,cs),
(157,103,o),
(128,130,o),
(90,130,cs),
(51,130,o),
(20,100,o),
(20,60,cs),
(20,24,o),
(44,-3,o),
(77,-9,c)
);
}
);
width = 177;
}
);
note = comma;
unicode = 44;
},
{
glyphname = hyphen;
layers = (
{
layerId = m01;
shapes = (
{
closed = 1;
nodes = (
(252,149,ls),
(261,149,o),
(265,153,o),
(265,162,cs),
(265,244,ls),
(265,253,o),
(261,257,o),
(252,257,cs),
(43,257,ls),
(34,257,o),
(30,253,o),
(30,244,cs),
(30,162,ls),
(30,153,o),
(34,149,o),
(43,149,cs)
);
}
);
width = 294;
}
);
note = hyphen;
unicode = 45;
},
{
glyphname = period;
layers = (
{
layerId = m01;
shapes = (
{
closed = 1;
nodes = (
(133,-12,o),
(164,19,o),
(164,58,cs),
(164,97,o),
(133,127,o),
(96,127,cs),
(59,127,o),
(28,97,o),
(28,58,cs),
(28,19,o),
(59,-12,o),
(96,-12,cs)
);
}
);
width = 198;
}
);
note = period;
unicode = 46;
},
{
glyphname = slash;
layers = (
{
layerId = m01;
shapes = (
{
closed = 1;
nodes = (
(92,0,ls),
(102,0,o),
(108,4,o),
(112,13,cs),
(307,474,ls),
(326,519,o),
(309,556,o),
(263,556,cs),
(249,556,ls),
(240,556,o),
(233,552,o),
(229,543,cs),
(5,13,ls),
(2,7,o),
(4,0,o),
(13,0,cs)
);
}
);
width = 314;
}
);
note = slash;
unicode = 47;
},
{
glyphname = zero;
layers = (
{
layerId = m01;
shapes = (
{
closed = 1;
nodes = (
(172,99,o),
(150,150,o),
(150,277,cs),
(150,404,o),
(173,457,o),
(244,457,cs),
(314,457,o),
(338,403,o),
(338,277,cs),
(338,150,o),
(315,99,o),
(244,99,cs)
);
},
{
closed = 1;
nodes = (
(385,-10,o),
(457,91,o),
(457,277,cs),
(457,462,o),
(383,566,o),
(244,566,cs),
(104,566,o),
(31,463,o),
(31,277,cs),
(31,88,o),
(102,-10,o),
(244,-10,cs)
);
}
);
width = 489;
}
);
note = zero;
unicode = 48;
},
{
glyphname = one;
layers = (
{
layerId = m01;
shapes = (
{
closed = 1;
nodes = (
(40,106,ls),
(31,106,o),
(27,102,o),
(27,93,cs),
(27,13,ls),
(27,4,o),
(31,0,o),
(40,0,cs),
(341,0,ls),
(351,0,o),
(357,7,o),
(357,17,cs),
(357,40,ls),
(357,82,o),
(333,106,o),
(287,106,cs),
(246,106,l),
(246,489,ls),
(246,532,o),
(222,556,o),
(176,556,cs),
(151,556,ls),
(133,556,o),
(112,551,o),
(99,546,cs),
(43,526,ls),
(33,522,o),
(28,516,o),
(28,506,cs),
(28,418,ls),
(28,409,o),
(35,406,o),
(43,409,cs),
(130,441,l),
(130,106,l)
);
}
);
width = 373;
}
);
note = one;
unicode = 49;
},
{
glyphname = two;
layers = (
{
layerId = m01;
shapes = (
{
closed = 1;
nodes = (
(188,189,o),
(420,226,o),
(420,406,cs),
(420,516,o),
(338,566,o),
(229,566,cs),
(178,566,o),
(135,558,o),
(97,545,cs),
(50,529,o),
(39,501,o),
(53,459,cs),
(62,432,ls),
(64,426,o),
(67,423,o),
(72,423,cs),
(75,423,o),
(80,424,o),
(85,427,cs),
(125,448,o),
(169,463,o),
(220,463,cs),
(270,463,o),
(300,439,o),
(300,400,cs),
(300,259,o),
(28,283,o),
(28,13,cs),
(28,4,o),
(32,0,o),
(41,0,cs),
(412,0,ls),
(422,0,o),
(428,7,o),
(428,17,cs),
(428,42,ls),
(428,84,o),
(404,106,o),
(358,106,cs),
(173,106,l)
);
}
);
width = 463;
}
);
note = two;
unicode = 50;
},
{
glyphname = three;
layers = (
{
layerId = m01;
shapes = (
{
closed = 1;
nodes = (
(368,314,o),
(402,359,o),
(402,413,cs),
(402,519,o),
(315,566,o),
(213,566,cs),
(162,566,o),
(121,558,o),
(83,545,cs),
(36,529,o),
(25,501,o),
(39,459,cs),
(48,433,ls),
(50,427,o),
(53,424,o),
(58,424,cs),
(63,424,o),
(68,426,o),
(73,429,cs),
(110,449,o),
(150,465,o),
(205,465,cs),
(258,465,o),
(284,438,o),
(284,401,cs),
(284,365,o),
(263,336,o),
(208,336,cs),
(112,336,ls),
(102,336,o),
(97,327,o),
(97,317,cs),
(97,287,ls),
(97,244,o),
(116,230,o),
(162,230,cs),
(225,230,ls),
(274,230,o),
(303,211,o),
(303,171,cs),
(303,121,o),
(264,92,o),
(203,92,cs),
(129,92,o),
(87,123,o),
(53,152,cs),
(45,159,o),
(41,161,o),
(36,161,cs),
(25,161,o),
(18,151,o),
(18,135,cs),
(18,74,o),
(75,-10,o),
(212,-10,cs),
(341,-10,o),
(420,65,o),
(420,166,cs),
(420,227,o),
(393,270,o),
(323,291,c)
);
}
);
width = 451;
}
);
note = three;
unicode = 51;
},
{
glyphname = four;
layers = (
{
layerId = m01;
shapes = (
{
closed = 1;
nodes = (
(273,426,l),
(273,216,l),
(137,216,l)
);
},
{
closed = 1;
nodes = (
(273,13,ls),
(273,4,o),
(277,0,o),
(286,0,cs),
(376,0,ls),
(385,0,o),
(388,4,o),
(388,13,cs),
(389,109,l),
(468,109,ls),
(478,109,o),
(484,116,o),
(484,126,cs),
(484,149,ls),
(484,192,o),
(460,216,o),
(414,216,cs),
(389,216,l),
(389,489,ls),
(389,532,o),
(365,556,o),
(319,556,cs),
(262,556,ls),
(237,556,o),
(227,545,o),
(218,531,cs),
(21,217,ls),
(13,204,o),
(11,199,o),
(11,186,cs),
(11,122,ls),
(11,113,o),
(15,109,o),
(24,109,cs),
(273,109,l)
);
}
);
width = 501;
}
);
note = four;
unicode = 52;
},
{
glyphname = five;
layers = (
{
layerId = m01;
shapes = (
{
closed = 1;
nodes = (
(384,449,ls),
(394,449,o),
(400,456,o),
(400,466,cs),
(400,489,ls),
(400,532,o),
(376,556,o),
(330,556,cs),
(59,556,ls),
(50,556,o),
(46,552,o),
(46,543,cs),
(46,254,ls),
(46,244,o),
(52,240,o),
(62,243,cs),
(97,254,o),
(146,266,o),
(207,266,cs),
(268,266,o),
(314,239,o),
(314,187,cs),
(314,126,o),
(276,92,o),
(206,92,cs),
(135,92,o),
(89,121,o),
(58,148,cs),
(50,155,o),
(44,157,o),
(40,157,cs),
(29,157,o),
(22,148,o),
(22,130,cs),
(22,59,o),
(98,-10,o),
(219,-10,cs),
(333,-10,o),
(430,65,o),
(430,190,cs),
(430,299,o),
(360,368,o),
(238,368,cs),
(203,368,o),
(176,363,o),
(157,359,c),
(157,449,l)
);
}
);
width = 462;
}
);
note = five;
unicode = 53;
},
{
glyphname = six;
layers = (
{
layerId = m01;
shapes = (
{
closed = 1;
nodes = (
(149,244,o),
(189,288,o),
(247,288,cs),
(304,288,o),
(344,244,o),
(344,189,cs),
(344,133,o),
(304,93,o),
(249,93,cs),
(191,93,o),
(149,132,o),
(149,189,cs)
);
},
{
closed = 1;
nodes = (
(278,449,ls),
(315,510,o),
(289,566,o),
(236,566,cs),
(226,566,o),
(221,562,o),
(216,555,cs),
(105,374,ls),
(51,286,o),
(32,238,o),
(32,186,cs),
(32,72,o),
(123,-10,o),
(250,-10,cs),
(379,-10,o),
(459,80,o),
(459,199,cs),
(459,292,o),
(389,386,o),
(269,386,cs),
(257,386,o),
(249,385,o),
(238,383,c)
);
}
);
width = 486;
}
);
note = six;
unicode = 54;
},
{
glyphname = seven;
layers = (
{
layerId = m01;
shapes = (
{
closed = 1;
nodes = (
(71,13,ls),
(68,7,o),
(71,0,o),
(79,0,cs),
(176,0,ls),
(186,0,o),
(191,4,o),
(195,13,cs),
(376,419,ls),
(386,441,o),
(389,454,o),
(389,476,cs),
(389,489,ls),
(389,532,o),
(365,556,o),
(319,556,cs),
(33,556,ls),
(24,556,o),
(20,552,o),
(20,543,cs),
(20,462,ls),
(20,453,o),
(24,449,o),
(33,449,cs),
(266,449,l)
);
}
);
width = 418;
}
);
note = seven;
unicode = 55;
},
{
glyphname = eight;
layers = (
{
layerId = m01;
shapes = (
{
closed = 1;
nodes = (
(144,212,o),
(180,240,o),
(245,240,cs),
(309,240,o),
(345,212,o),
(345,160,cs),
(345,119,o),
(309,83,o),
(245,83,cs),
(180,83,o),
(144,119,o),
(144,160,cs)
);
},
{
closed = 1;
nodes = (
(154,444,o),
(186,474,o),
(245,474,cs),
(303,474,o),
(335,444,o),
(335,403,cs),
(335,363,o),
(304,333,o),
(245,333,cs),
(185,333,o),
(154,363,o),
(154,403,cs)
);
},
{
closed = 1;
nodes = (
(53,265,o),
(27,215,o),
(27,159,cs),
(27,64,o),
(105,-10,o),
(245,-10,cs),
(385,-10,o),
(462,64,o),
(462,159,cs),
(462,215,o),
(436,265,o),
(366,290,c),
(415,313,o),
(449,353,o),
(449,417,cs),
(449,510,o),
(366,566,o),
(245,566,cs),
(123,566,o),
(40,510,o),
(40,417,cs),
(40,353,o),
(75,313,o),
(123,290,c)
);
}
);
width = 489;
}
);
note = eight;
unicode = 56;
},
{
glyphname = nine;
layers = (
{
layerId = m01;
shapes = (
{
closed = 1;
nodes = (
(179,267,o),
(142,308,o),
(142,367,cs),
(142,422,o),
(182,462,o),
(238,462,cs),
(295,462,o),
(337,423,o),
(337,367,cs),
(337,311,o),
(297,267,o),
(240,267,cs)
);
},
{
closed = 1;
nodes = (
(209,107,ls),
(173,50,o),
(196,-10,o),
(251,-10,cs),
(262,-10,o),
(267,-6,o),
(272,3,cs),
(383,183,ls),
(436,270,o),
(454,318,o),
(454,370,cs),
(454,486,o),
(368,565,o),
(240,565,cs),
(113,565,o),
(27,477,o),
(27,353,cs),
(27,262,o),
(95,170,o),
(213,170,cs),
(225,170,o),
(235,171,o),
(250,174,c)
);
}
);
width = 486;
}
);
note = nine;
unicode = 57;
},
{
glyphname = colon;
layers = (
{
layerId = m01;
shapes = (
{
closed = 1;
nodes = (
(169,321,o),
(140,349,o),
(101,349,cs),
(62,349,o),
(34,321,o),
(34,280,cs),
(34,240,o),
(62,211,o),
(101,211,cs),
(140,211,o),
(169,240,o),
(169,280,cs)
);
},
{
closed = 1;
nodes = (
(138,-12,o),
(169,19,o),
(169,58,cs),
(169,97,o),
(138,127,o),
(101,127,cs),
(64,127,o),
(33,97,o),
(33,58,cs),
(33,19,o),
(64,-12,o),
(101,-12,cs)
);
}
);
width = 209;
}
);
note = colon;
unicode = 58;
},
{
glyphname = semicolon;
layers = (
{
layerId = m01;
shapes = (
{
closed = 1;
nodes = (
(30,247,o),
(61,219,o),
(100,219,cs),
(138,219,o),
(167,247,o),
(167,288,cs),
(167,329,o),
(138,359,o),
(100,359,cs),
(61,359,o),
(30,329,o),
(30,288,cs)
);
},
{
closed = 1;
nodes = (
(84,-27,o),
(70,-45,o),
(58,-57,cs),
(44,-71,o),
(43,-89,o),
(58,-106,cs),
(61,-109,o),
(67,-110,o),
(72,-106,cs),
(128,-62,o),
(167,-12,o),
(167,60,cs),
(167,103,o),
(138,130,o),
(100,130,cs),
(61,130,o),
(30,100,o),
(30,60,cs),
(30,24,o),
(54,-3,o),
(87,-9,c)
);
}
);
width = 198;
}
);
note = semicolon;
unicode = 59;
},
{
glyphname = less;
layers = (
{
layerId = m01;
shapes = (
{
closed = 1;
nodes = (
(403,370,ls),
(414,375,o),
(418,383,o),
(418,393,cs),
(418,466,ls),
(418,473,o),
(411,477,o),
(403,473,cs),
(43,315,ls),
(34,311,o),
(30,305,o),
(30,296,cs),
(30,244,ls),
(30,234,o),
(34,228,o),
(43,224,cs),
(406,65,ls),
(413,62,o),
(418,65,o),
(418,72,cs),
(418,74,ls),
(418,138,o),
(401,171,o),
(337,198,cs),
(167,269,l)
);
}
);
width = 452;
}
);
note = less;
unicode = 60;
},
{
glyphname = equal;
layers = (
{
layerId = m01;
shapes = (
{
closed = 1;
nodes = (
(30,317,o),
(34,313,o),
(43,313,cs),
(389,313,ls),
(398,313,o),
(402,317,o),
(402,326,cs),
(402,342,ls),
(402,385,o),
(378,408,o),
(332,408,cs),
(43,408,ls),
(34,408,o),
(30,404,o),
(30,396,cs),
(30,326,ls)
);
},
{
closed = 1;
nodes = (
(30,136,o),
(34,132,o),
(43,132,cs),
(389,132,ls),
(398,132,o),
(402,136,o),
(402,145,cs),
(402,161,ls),
(402,204,o),
(378,228,o),
(332,228,cs),
(43,228,ls),
(34,228,o),
(30,224,o),
(30,215,cs),
(30,145,ls)
);
}
);
width = 431;
}
);
note = equal;
unicode = 61;
},
{
glyphname = greater;
layers = (
{
layerId = m01;
shapes = (
{
closed = 1;
nodes = (
(115,198,ls),
(52,171,o),
(35,138,o),
(35,74,cs),
(35,72,ls),
(35,65,o),
(40,62,o),
(47,65,cs),
(410,224,ls),
(419,228,o),
(423,234,o),
(423,244,cs),
(423,296,ls),
(423,305,o),
(419,311,o),
(410,315,cs),
(50,473,ls),
(42,477,o),
(35,473,o),
(35,466,cs),
(35,393,ls),
(35,383,o),
(39,375,o),
(50,370,cs),
(285,269,l)
);
}
);
width = 452;
}
);
note = greater;
unicode = 62;
},
{
glyphname = question;
layers = (
{
layerId = m01;
shapes = (
{
closed = 1;
nodes = (
(108,19,o),
(139,-10,o),
(178,-10,cs),
(217,-10,o),
(246,19,o),
(246,60,cs),
(246,100,o),
(217,130,o),
(178,130,cs),
(139,130,o),
(108,100,o),
(108,60,cs)
);
},
{
closed = 1;
nodes = (
(128,167,o),
(132,163,o),
(141,163,cs),
(211,163,ls),
(220,163,o),
(224,167,o),
(224,176,cs),
(224,190,ls),
(224,203,o),
(227,211,o),
(242,222,cs),
(327,284,o),
(381,334,o),
(381,422,cs),
(381,518,o),
(298,566,o),
(190,566,cs),
(139,566,o),
(105,558,o),
(69,543,cs),
(21,524,o),
(13,497,o),
(26,456,cs),
(34,430,ls),
(36,424,o),
(39,421,o),
(44,421,cs),
(47,421,o),
(51,422,o),
(57,425,cs),
(104,449,o),
(135,461,o),
(187,461,cs),
(233,461,o),
(259,439,o),
(259,402,cs),
(259,323,o),
(128,301,o),
(128,206,cs),
(128,176,ls)
);
}
);
width = 402;
}
);
note = question;
unicode = 63;
},
{
glyphname = at;
layers = (
{
layerId = m01;
shapes = (
{
closed = 1;
nodes = (
(452,71,o),
(476,29,o),
(530,29,cs),
(638,29,o),
(725,137,o),
(725,261,cs),
(725,459,o),
(566,568,o),
(394,568,cs),
(197,568,o),
(35,416,o),
(35,218,cs),
(35,1,o),
(178,-142,o),
(399,-142,cs),
(570,-142,o),
(651,-42,o),
(651,5,cs),
(651,12,o),
(647,17,o),
(642,17,cs),
(635,17,o),
(631,14,o),
(624,9,cs),
(575,-27,o),
(514,-56,o),
(408,-56,cs),
(248,-56,o),
(134,41,o),
(134,221,cs),
(134,368,o),
(242,482,o),
(392,482,cs),
(534,482,o),
(630,405,o),
(630,256,cs),
(630,162,o),
(592,117,o),
(555,117,cs),
(546,117,o),
(538,122,o),
(538,138,cs),
(538,144,o),
(539,156,o),
(540,164,cs),
(562,386,ls),
(563,395,o),
(559,400,o),
(551,400,cs),
(550,400,ls),
(508,400,o),
(477,386,o),
(463,347,c),
(450,377,o),
(414,405,o),
(360,405,cs),
(261,405,o),
(187,317,o),
(187,214,cs),
(187,98,o),
(253,29,o),
(335,29,cs),
(402,29,o),
(434,67,o),
(450,94,c)
);
},
{
closed = 1;
nodes = (
(319,127,o),
(297,167,o),
(297,209,cs),
(297,262,o),
(327,307,o),
(377,307,cs),
(421,307,o),
(443,277,o),
(443,236,cs),
(443,174,o),
(417,127,o),
(365,127,cs)
);
}
);
width = 759;
}
);
note = at;
unicode = 64;
},
{
glyphname = A;
kernLeft = A;
kernRight = A;
layers = (
{
layerId = m01;
shapes = (
{
closed = 1;
nodes = (
(262,415,l),
(325,228,l),
(200,228,l)
);
},
{
closed = 1;
nodes = (
(359,128,l),
(398,13,ls),
(401,5,o),
(406,0,o),
(417,0,cs),
(513,0,ls),
(522,0,o),
(525,7,o),
(523,13,cs),
(361,466,ls),
(335,538,o),
(309,556,o),
(253,556,cs),
(209,556,ls),
(200,556,o),
(197,553,o),
(194,545,cs),
(8,13,ls),
(6,7,o),
(9,0,o),
(17,0,cs),
(111,0,ls),
(119,0,o),
(123,4,o),
(126,13,cs),
(165,128,l)
);
}
);
width = 530;
}
);
note = A;
unicode = 65;
},
{
glyphname = B;
layers = (
{
layerId = m01;
shapes = (
{
closed = 1;
nodes = (
(168,240,l),
(263,240,ls),
(317,240,o),
(341,208,o),
(341,170,cs),
(341,101,o),
(291,101,o),
(262,101,cs),
(168,101,l)
);
},
{
closed = 1;
nodes = (
(168,454,l),
(261,454,ls),
(308,454,o),
(325,427,o),
(325,398,cs),
(325,370,o),
(312,338,o),
(265,338,cs),
(168,338,l)
);
},
{
closed = 1;
nodes = (
(398,304,o),
(443,337,o),
(443,407,cs),
(443,503,o),
(377,556,o),
(257,556,cs),
(64,556,ls),
(55,556,o),
(51,552,o),
(51,543,cs),
(51,13,ls),
(51,4,o),
(55,0,o),
(64,0,cs),
(276,0,ls),
(401,0,o),
(462,57,o),
(462,157,cs),
(462,221,o),
(420,269,o),
(358,287,c)
);
}
);
width = 486;
}
);
note = B;
unicode = 66;
},
{
glyphname = C;
kernLeft = C;
kernRight = C;
layers = (
{
layerId = m01;
shapes = (
{
closed = 1;
nodes = (
(446,-10,o),
(495,90,o),
(495,142,cs),
(495,160,o),
(489,169,o),
(477,169,cs),
(473,169,o),
(467,168,o),
(459,160,cs),
(437,139,o),
(385,101,o),
(316,101,cs),
(226,101,o),
(160,158,o),
(160,275,cs),
(160,399,o),
(223,454,o),
(311,454,cs),
(369,454,o),
(400,440,o),
(440,420,cs),
(446,417,o),
(452,415,o),
(456,415,cs),
(463,415,o),
(467,419,o),
(469,428,cs),
(476,457,ls),
(486,500,o),
(479,526,o),
(434,544,cs),
(397,559,o),
(361,566,o),
(307,566,cs),
(152,566,o),
(39,456,o),
(39,275,cs),
(39,99,o),
(142,-10,o),
(301,-10,cs)
);
}
);
width = 510;
}
);
note = C;
unicode = 67;
},
{
glyphname = D;
layers = (
{
layerId = m01;
shapes = (
{
closed = 1;
nodes = (
(168,447,l),
(231,447,ls),
(337,447,o),
(399,402,o),
(399,282,cs),
(399,167,o),
(337,108,o),
(235,108,cs),
(168,108,l)
);
},
{
closed = 1;
nodes = (
(223,0,ls),
(408,0,o),
(521,85,o),
(521,286,cs),
(521,498,o),
(373,556,o),
(231,556,cs),
(64,556,ls),
(55,556,o),
(51,552,o),
(51,543,cs),
(51,13,ls),
(51,4,o),
(55,0,o),
(64,0,cs)
);
}
);
width = 560;
}
);
note = D;
unicode = 68;
},
{
glyphname = E;
kernRight = E;
layers = (
{
layerId = m01;
shapes = (
{
closed = 1;
nodes = (
(168,226,l),
(357,226,ls),
(367,226,o),
(373,233,o),
(373,242,cs),
(373,267,ls),
(373,310,o),
(349,334,o),
(303,334,cs),
(168,334,l),
(168,447,l),
(377,447,ls),
(387,447,o),
(393,454,o),
(393,464,cs),
(393,489,ls),
(393,532,o),
(369,556,o),
(323,556,cs),
(64,556,ls),
(55,556,o),
(51,552,o),
(51,543,cs),
(51,13,ls),
(51,4,o),
(55,0,o),
(64,0,cs),
(385,0,ls),
(395,0,o),
(401,7,o),
(401,17,cs),
(401,42,ls),
(401,84,o),
(377,108,o),
(331,108,cs),
(168,108,l)
);
}
);
width = 423;
}
);
note = E;
unicode = 69;
},
{
glyphname = F;
layers = (
{
layerId = m01;
shapes = (
{
closed = 1;
nodes = (
(353,221,ls),
(363,221,o),
(369,228,o),
(369,238,cs),
(369,262,ls),
(369,305,o),
(345,329,o),
(299,329,cs),
(168,329,l),
(168,447,l),
(377,447,ls),
(387,447,o),
(393,454,o),
(393,464,cs),
(393,489,ls),
(393,532,o),
(369,556,o),
(323,556,cs),
(64,556,ls),
(55,556,o),
(51,552,o),
(51,543,cs),
(51,13,ls),
(51,4,o),
(55,0,o),
(64,0,cs),
(155,0,ls),
(164,0,o),
(168,4,o),
(168,13,cs),
(168,221,l)
);
}
);
width = 410;
}
);
note = F;
unicode = 70;
},
{
glyphname = G;
layers = (
{
layerId = m01;
shapes = (
{
closed = 1;
nodes = (
(378,107,o),
(351,100,o),
(313,100,cs),
(218,100,o),
(163,163,o),
(163,272,cs),
(163,402,o),
(227,455,o),
(330,455,cs),
(375,455,o),
(418,444,o),
(459,425,cs),
(465,422,o),
(471,420,o),
(475,420,cs),
(482,420,o),
(486,424,o),
(488,433,cs),
(495,461,ls),
(506,504,o),
(498,531,o),
(451,547,cs),
(413,560,o),
(374,566,o),
(320,566,cs),
(146,566,o),
(39,457,o),
(39,280,cs),
(39,66,o),
(168,-10,o),
(315,-10,cs),
(387,-10,o),
(437,4,o),
(499,48,cs),
(517,61,o),
(522,71,o),
(522,91,cs),
(522,296,ls),
(522,306,o),
(516,313,o),
(506,313,cs),
(302,313,ls),
(292,313,o),
(286,306,o),
(286,296,cs),
(286,271,ls),
(286,229,o),
(310,205,o),
(356,205,cs),
(410,205,l),
(410,126,l)
);
}
);
width = 560;
}
);
note = G;
unicode = 71;
},
{
glyphname = H;
layers = (
{
layerId = m01;
shapes = (
{
closed = 1;
nodes = (
(365,221,l),
(365,13,ls),
(365,4,o),
(369,0,o),
(378,0,cs),
(469,0,ls),
(478,0,o),
(482,4,o),
(482,13,cs),
(482,455,ls),
(482,529,o),
(452,556,o),
(388,556,cs),
(378,556,ls),
(369,556,o),
(365,552,o),
(365,543,cs),
(365,329,l),
(168,329,l),
(168,455,ls),
(168,529,o),
(137,556,o),
(74,556,cs),
(64,556,ls),
(55,556,o),
(51,552,o),
(51,543,cs),
(51,13,ls),
(51,4,o),
(55,0,o),
(64,0,cs),
(155,0,ls),
(164,0,o),
(168,4,o),
(168,13,cs),
(168,221,l)
);
}
);
width = 533;
}
);
note = H;
unicode = 72;
},
{
glyphname = I;
kernRight = I;
layers = (
{
layerId = m01;
shapes = (
{
closed = 1;
nodes = (
(51,4,o),
(55,0,o),
(64,0,cs),
(155,0,ls),
(164,0,o),
(168,4,o),
(168,13,cs),
(168,455,ls),
(168,529,o),
(137,556,o),
(74,556,cs),
(64,556,ls),
(55,556,o),
(51,552,o),
(51,543,cs),
(51,13,ls)
);
}
);
width = 219;
}
);
note = I;
unicode = 73;
},
{
glyphname = J;
layers = (
{
layerId = m01;
shapes = (
{
closed = 1;
nodes = (
(4,32,o),
(55,-10,o),
(122,-10,cs),
(216,-10,o),
(268,45,o),
(268,147,cs),
(268,455,ls),
(268,529,o),
(238,556,o),
(174,556,cs),
(164,556,ls),
(155,556,o),
(151,552,o),
(151,543,cs),
(151,151,ls),
(151,106,o),
(127,87,o),
(87,87,cs),
(63,87,o),
(46,96,o),
(27,109,cs),
(24,111,o),
(21,112,o),
(18,112,cs),
(10,112,o),
(4,105,o),
(4,91,cs)
);
}
);
width = 317;
}
);
note = J;
unicode = 74;
},
{
glyphname = K;
layers = (
{
layerId = m01;
shapes = (
{
closed = 1;
nodes = (
(227,248,l),
(367,13,ls),
(372,4,o),
(380,0,o),
(389,0,cs),
(496,0,ls),
(504,0,o),
(506,7,o),
(503,13,cs),
(307,344,l),
(474,543,ls),
(478,548,o),
(476,556,o),
(468,556,cs),
(369,556,ls),
(360,556,o),
(354,552,o),
(346,543,cs),
(168,329,l),
(168,455,ls),
(168,529,o),
(137,556,o),
(74,556,cs),
(64,556,ls),
(55,556,o),
(51,552,o),
(51,543,cs),
(51,13,ls),
(51,4,o),
(55,0,o),
(64,0,cs),
(155,0,ls),
(164,0,o),
(168,4,o),
(168,13,cs),
(168,179,l)
);
}
);
width = 514;
}
);
note = K;
unicode = 75;
},
{
glyphname = L;
layers = (
{
layerId = m01;
shapes = (
{
closed = 1;
nodes = (
(168,455,ls),
(168,529,o),
(137,556,o),
(74,556,cs),
(64,556,ls),
(55,556,o),
(51,552,o),
(51,543,cs),
(51,13,ls),
(51,4,o),
(55,0,o),
(64,0,cs),
(354,0,ls),
(364,0,o),
(370,7,o),
(370,17,cs),
(370,42,ls),
(370,84,o),
(346,108,o),
(300,108,cs),
(168,108,l)
);
}
);
width = 384;
}
);
note = L;
unicode = 76;
},
{
glyphname = M;
layers = (
{
layerId = m01;
shapes = (
{
closed = 1;
nodes = (
(245,504,ls),
(234,547,o),
(201,556,o),
(156,556,cs),
(77,556,ls),
(70,556,o),
(65,550,o),
(65,543,cs),
(34,13,ls),
(34,5,o),
(38,0,o),
(45,0,cs),
(139,0,ls),
(146,0,o),
(150,5,o),
(150,13,cs),
(170,388,l),
(269,13,ls),
(271,6,o),
(275,0,o),
(283,0,cs),
(373,0,ls),
(382,0,o),
(387,5,o),
(389,13,cs),
(490,387,l),
(510,13,ls),
(510,5,o),
(515,0,o),
(522,0,cs),
(615,0,ls),
(622,0,o),
(625,4,o),
(625,13,cs),
(599,488,ls),
(597,528,o),
(566,556,o),
(521,556,cs),
(440,556,ls),
(433,556,o),
(427,551,o),
(425,543,cs),
(329,179,l)
);
}
);
width = 659;
}
);
note = M;
unicode = 77;
},
{
glyphname = N;
kernRight = N;
layers = (
{
layerId = m01;
shapes = (
{
closed = 1;
nodes = (
(367,13,ls),
(373,3,o),
(379,0,o),
(389,0,cs),
(475,0,ls),
(484,0,o),
(488,4,o),
(488,13,cs),
(488,455,ls),
(488,529,o),
(457,556,o),
(394,556,cs),
(384,556,ls),
(375,556,o),
(371,552,o),
(371,543,cs),
(371,218,l),
(195,504,ls),
(171,543,o),
(148,556,o),
(104,556,cs),
(64,556,ls),
(55,556,o),
(51,552,o),
(51,543,cs),
(51,13,ls),
(51,4,o),
(55,0,o),
(64,0,cs),
(155,0,ls),
(164,0,o),
(168,4,o),
(168,13,cs),
(168,336,l)
);
}
);
width = 539;
}
);
note = N;
unicode = 78;
},
{
glyphname = O;
kernLeft = O;
kernRight = O;
layers = (
{
layerId = m01;
shapes = (
{
closed = 1;
nodes = (
(224,102,o),
(160,147,o),
(160,277,cs),
(160,407,o),
(224,454,o),
(306,454,cs),
(389,454,o),
(452,407,o),
(452,277,cs),
(452,147,o),
(389,102,o),
(306,102,cs)
);
},
{
closed = 1;
nodes = (
(476,-10,o),
(574,100,o),
(574,277,cs),
(574,453,o),
(474,566,o),
(306,566,cs),
(138,566,o),
(39,453,o),
(39,277,cs),
(39,100,o),
(136,-10,o),
(306,-10,cs)
);
}
);
width = 612;
}
);
note = O;
unicode = 79;
},
{
glyphname = P;
layers = (
{
layerId = m01;
shapes = (
{
closed = 1;
nodes = (
(168,447,l),
(268,447,ls),
(317,447,o),
(352,422,o),
(352,372,cs),
(352,305,o),
(306,292,o),
(268,292,cs),
(168,292,l)
);
},
{
closed = 1;
nodes = (
(274,184,ls),
(395,184,o),
(469,263,o),
(469,373,cs),
(469,481,o),
(408,556,o),
(258,556,cs),
(64,556,ls),
(55,556,o),
(51,552,o),
(51,543,cs),
(51,13,ls),
(51,4,o),
(55,0,o),
(64,0,cs),
(155,0,ls),
(164,0,o),
(168,4,o),
(168,13,cs),
(168,184,l)
);
}
);
width = 496;
}
);
note = P;
unicode = 80;
},
{
glyphname = Q;
layers = (
{
layerId = m01;
shapes = (
{
closed = 1;
nodes = (
(305,-76,o),
(357,-117,o),
(440,-117,cs),
(516,-117,o),
(560,-63,o),
(560,-19,cs),
(560,-8,o),
(556,2,o),
(547,2,cs),
(544,2,o),
(541,1,o),
(538,-1,cs),
(518,-14,o),
(495,-20,o),
(477,-20,cs),
(452,-20,o),
(431,-10,o),
(414,8,c),
(517,46,o),
(574,142,o),
(574,277,cs),
(574,453,o),
(474,566,o),
(306,566,cs),
(138,566,o),
(39,453,o),
(39,277,cs),
(39,113,o),
(122,7,o),
(271,-8,c)
);
},
{
closed = 1;
nodes = (
(224,101,o),
(160,147,o),
(160,277,cs),
(160,407,o),
(224,455,o),
(306,455,cs),
(389,455,o),
(452,407,o),
(452,277,cs),
(452,147,o),
(389,101,o),
(306,101,cs)
);
}
);
width = 612;
}
);
note = Q;
unicode = 81;
},
{
glyphname = R;
layers = (
{
layerId = m01;
shapes = (
{
closed = 1;
nodes = (
(168,447,l),
(268,447,ls),
(317,447,o),
(352,422,o),
(352,372,cs),
(352,305,o),
(306,292,o),
(268,292,cs),
(168,292,l)
);
},
{
closed = 1;
nodes = (
(244,184,l),
(337,13,ls),
(342,4,o),
(351,0,o),
(362,0,cs),
(465,0,ls),
(473,0,o),
(476,7,o),
(472,13,cs),
(359,200,l),
(429,229,o),
(469,292,o),
(469,373,cs),
(469,481,o),
(407,556,o),
(257,556,cs),
(64,556,ls),
(55,556,o),
(51,552,o),
(51,543,cs),
(51,13,ls),
(51,4,o),
(55,0,o),
(64,0,cs),
(155,0,ls),
(164,0,o),
(168,4,o),
(168,13,cs),
(168,184,l)
);
}
);
width = 502;
}
);
note = R;
unicode = 82;
},
{
glyphname = S;
kernLeft = S;
kernRight = S;
layers = (
{
layerId = m01;
shapes = (
{
closed = 1;
nodes = (
(15,71,o),
(82,-10,o),
(228,-10,cs),
(361,-10,o),
(437,60,o),
(437,166,cs),
(437,365,o),
(154,313,o),
(154,409,cs),
(154,446,o),
(191,461,o),
(237,461,cs),
(290,461,o),
(334,449,o),
(376,429,cs),
(382,426,o),
(388,424,o),
(393,424,cs),
(400,424,o),
(403,428,o),
(405,437,cs),
(411,461,ls),
(421,504,o),
(414,531,o),
(367,547,cs),
(328,560,o),
(284,566,o),
(234,566,cs),
(125,566,o),
(33,512,o),
(33,403,cs),
(33,202,o),
(315,247,o),
(315,157,cs),
(315,120,o),
(282,98,o),
(215,98,cs),
(133,98,o),
(84,127,o),
(40,166,cs),
(37,169,o),
(34,170,o),
(30,170,cs),
(22,170,o),
(15,161,o),
(15,147,cs)
);
}
);
width = 458;
}
);
note = S;
unicode = 83;
},
{
glyphname = T;
layers = (
{
layerId = m01;
shapes = (
{
closed = 1;
nodes = (
(171,13,ls),
(171,4,o),
(175,0,o),
(184,0,cs),
(275,0,ls),
(284,0,o),
(288,4,o),
(288,13,cs),
(288,447,l),
(437,447,ls),
(447,447,o),
(453,454,o),
(453,464,cs),
(453,489,ls),
(453,532,o),
(429,556,o),
(384,556,cs),
(23,556,ls),
(14,556,o),
(10,552,o),
(10,543,cs),
(10,460,ls),
(10,451,o),
(14,447,o),
(23,447,cs),
(171,447,l)
);
}
);
width = 463;
}
);
note = T;
unicode = 84;
},
{
glyphname = U;
kernLeft = U;
kernRight = U;
layers = (
{
layerId = m01;
shapes = (
{
closed = 1;
nodes = (
(456,-10,o),
(482,136,o),
(482,207,cs),
(482,455,ls),
(482,529,o),
(451,556,o),
(388,556,cs),
(378,556,ls),
(369,556,o),
(365,552,o),
(365,543,cs),
(365,230,ls),
(365,152,o),
(337,100,o),
(264,100,cs),
(191,100,o),
(165,152,o),
(165,231,cs),
(165,455,ls),
(165,529,o),
(134,556,o),
(71,556,cs),
(61,556,ls),
(52,556,o),
(48,552,o),
(48,543,cs),
(48,207,ls),
(48,136,o),
(73,-10,o),
(264,-10,cs)
);
}
);
width = 530;
}
);
note = U;
unicode = 85;
},
{
glyphname = V;
layers = (
{
layerId = m01;
shapes = (
{
closed = 1;
nodes = (
(162,466,ls),
(139,540,o),
(112,556,o),
(55,556,cs),
(16,556,ls),
(8,556,o),
(6,549,o),
(8,543,cs),
(184,13,ls),
(187,5,o),
(192,0,o),
(202,0,cs),
(314,0,ls),
(322,0,o),
(327,4,o),
(330,13,cs),
(506,543,ls),
(508,550,o),
(505,556,o),
(496,556,cs),
(407,556,ls),
(397,556,o),
(391,552,o),
(388,543,cs),
(261,140,l)
);
}
);
width = 511;
}
);
note = V;
unicode = 86;
},
{
glyphname = W;
layers = (
{
layerId = m01;
shapes = (
{
closed = 1;
nodes = (
(158,466,ls),
(143,541,o),
(108,556,o),
(51,556,cs),
(28,556,ls),
(19,556,o),
(17,549,o),
(18,543,cs),
(141,13,ls),
(143,5,o),
(149,0,o),
(158,0,cs),
(266,0,ls),
(275,0,o),
(280,5,o),
(282,13,cs),
(378,394,l),
(474,13,ls),
(476,5,o),
(482,0,o),
(490,0,cs),
(597,0,ls),
(606,0,o),
(611,5,o),
(613,13,cs),
(743,543,ls),
(745,551,o),
(741,556,o),
(735,556,cs),
(638,556,ls),
(629,556,o),
(624,551,o),
(622,543,cs),
(538,148,l),
(469,466,ls),
(453,541,o),
(419,556,o),
(362,556,cs),
(325,556,ls),
(317,556,o),
(312,551,o),
(310,543,cs),
(220,148,l)
);
}
);
width = 761;
}
);
note = W;
unicode = 87;
},
{
glyphname = X;
layers = (
{
layerId = m01;
shapes = (
{
closed = 1;
nodes = (
(374,13,ls),
(379,4,o),
(387,0,o),
(396,0,cs),
(497,0,ls),
(506,0,o),
(509,7,o),
(505,13,cs),
(336,298,l),
(478,543,ls),
(482,550,o),
(479,556,o),
(471,556,cs),
(372,556,ls),
(362,556,o),
(356,551,o),
(351,543,cs),
(251,373,l),
(187,484,ls),
(148,551,o),
(132,556,o),
(75,556,cs),
(28,556,ls),
(20,556,o),
(18,548,o),
(21,543,cs),
(170,289,l),
(10,13,ls),
(7,8,o),
(9,0,o),
(18,0,cs),
(119,0,ls),
(128,0,o),
(133,4,o),
(138,13,cs),
(255,214,l)
);
}
);
width = 512;
}
);
note = X;
unicode = 88;
},
{
glyphname = Y;
kernLeft = Y;
kernRight = Y;
layers = (
{
layerId = m01;
shapes = (
{
closed = 1;
nodes = (
(184,13,ls),
(184,4,o),
(188,0,o),
(197,0,cs),
(288,0,ls),
(297,0,o),
(301,4,o),
(301,13,cs),
(301,200,l),
(483,543,ls),
(486,549,o),
(484,556,o),
(475,556,cs),
(379,556,ls),
(370,556,o),
(363,552,o),
(359,543,cs),
(247,322,l),
(160,495,ls),
(137,540,o),
(108,556,o),
(61,556,cs),
(12,556,ls),
(3,556,o),
(1,549,o),
(4,543,cs),
(184,203,l)
);
}
);
width = 485;
}
);
note = Y;
unicode = 89;
},
{
glyphname = Z;
kernLeft = Z;
kernRight = Z;
layers = (
{
layerId = m01;
shapes = (
{
closed = 1;
nodes = (
(411,435,ls),
(421,448,o),
(426,459,o),
(426,473,cs),
(426,489,ls),
(426,532,o),
(402,556,o),
(356,556,cs),
(45,556,ls),
(36,556,o),
(32,552,o),
(32,543,cs),
(32,460,ls),
(32,451,o),
(36,447,o),
(45,447,cs),
(276,447,l),
(41,127,ls),
(30,112,o),
(26,100,o),
(26,85,cs),
(26,13,ls),
(26,4,o),
(30,0,o),
(39,0,cs),
(410,0,ls),
(420,0,o),
(426,7,o),
(426,17,cs),
(426,42,ls),
(426,84,o),
(402,108,o),
(356,108,cs),
(170,108,l)
);
}
);
width = 453;
}
);
note = Z;
unicode = 90;
},
{
glyphname = bracketleft;
layers = (
{
layerId = m01;
shapes = (
{
closed = 1;
nodes = (
(145,598,o),
(147,600,o),
(151,600,cs),
(180,600,ls),
(226,600,o),
(250,623,o),
(250,666,cs),
(250,675,ls),
(250,685,o),
(244,692,o),
(234,692,cs),
(115,692,ls),
(70,692,o),
(46,668,o),
(46,626,cs),
(46,-77,ls),
(46,-120,o),
(70,-144,o),
(115,-144,cs),
(234,-144,ls),
(244,-144,o),
(250,-136,o),
(250,-126,cs),
(250,-118,ls),
(250,-75,o),
(226,-51,o),
(180,-51,cs),
(151,-51,ls),
(147,-51,o),
(145,-50,o),
(145,-45,cs),
(145,594,ls)
);
}
);
width = 299;
}
);
note = bracketleft;
unicode = 91;
},
{
glyphname = backslash;
layers = (
{
layerId = m01;
shapes = (
{
closed = 1;
nodes = (
(233,4,o),
(239,0,o),
(248,0,cs),
(328,0,ls),
(337,0,o),
(338,7,o),
(336,13,cs),
(136,485,ls),
(117,530,o),
(100,556,o),
(35,556,cs),
(13,556,ls),
(4,556,o),
(3,549,o),
(5,543,cs),
(229,13,ls)
);
}
);
width = 339;
}
);
note = backslash;
unicode = 92;
},
{
glyphname = bracketright;
layers = (
{
layerId = m01;
shapes = (
{
closed = 1;
nodes = (
(152,-50,o),
(150,-51,o),
(146,-51,cs),
(117,-51,ls),
(71,-51,o),
(47,-75,o),
(47,-118,cs),
(47,-126,ls),
(47,-136,o),
(53,-144,o),
(63,-144,cs),
(182,-144,ls),
(227,-144,o),
(251,-120,o),
(251,-77,cs),
(251,626,ls),
(251,668,o),
(227,692,o),
(182,692,cs),
(63,692,ls),
(53,692,o),
(47,685,o),
(47,675,cs),
(47,666,ls),
(47,623,o),
(71,600,o),
(117,600,cs),
(146,600,ls),
(150,600,o),
(152,598,o),
(152,594,cs),
(152,-45,ls)
);
}
);
width = 300;
}
);
note = bracketright;
unicode = 93;
},
{
glyphname = asciicircum;
layers = (
{
layerId = m01;
shapes = (
{
closed = 1;
nodes = (
(286,280,ls),
(291,270,o),
(298,266,o),
(307,266,cs),
(386,266,ls),
(394,266,o),
(398,273,o),
(395,279,cs),
(274,505,ls),
(255,542,o),
(231,556,o),
(187,556,cs),
(176,556,o),
(169,552,o),
(164,543,cs),
(24,279,ls),
(21,273,o),
(25,266,o),
(33,266,cs),
(111,266,ls),
(120,266,o),
(127,270,o),
(132,280,cs),
(210,432,l)
);
}
);
width = 414;
}
);
note = asciicircum;
unicode = 94;
},
{
glyphname = underscore;
layers = (
{
layerId = m01;
shapes = (
{
closed = 1;
nodes = (
(460,-205,ls),
(469,-205,o),
(473,-201,o),
(473,-192,cs),
(473,-117,ls),
(473,-108,o),
(469,-104,o),
(460,-104,cs),
(7,-104,ls),
(-2,-104,o),
(-6,-108,o),
(-6,-117,cs),
(-6,-192,ls),
(-6,-201,o),
(-2,-205,o),
(7,-205,cs)
);
}
);
width = 467;
}
);
note = underscore;
unicode = 95;
},
{
glyphname = grave;
layers = (
{
layerId = m01;
shapes = (
{
closed = 1;
nodes = (
(104,442,ls),
(114,433,o),
(126,430,o),
(140,430,cs),
(219,430,ls),
(228,430,o),
(230,440,o),
(225,445,cs),
(133,528,ls),
(123,537,o),
(116,540,o),
(103,540,cs),
(12,540,ls),
(3,540,o),
(0,530,o),
(7,524,cs)
);
}
);
width = 225;
}
);
note = grave;
unicode = 96;
},
{
glyphname = a;
kernLeft = a;
kernRight = a;
layers = (
{
layerId = m01;
shapes = (
{
closed = 1;
nodes = (
(205,98,o),
(147,111,o),
(147,193,cs),
(147,275,o),
(206,283,o),
(232,283,cs),
(259,283,o),
(313,274,o),
(313,193,cs),
(313,111,o),
(258,98,o),
(232,98,cs)
);
},
{
closed = 1;
nodes = (
(313,13,ls),
(313,4,o),
(317,0,o),
(326,0,cs),
(415,0,ls),
(424,0,o),
(428,4,o),
(428,13,cs),
(428,369,ls),
(428,378,o),
(424,382,o),
(415,382,cs),
(410,382,ls),
(368,382,o),
(339,371,o),
(325,343,c),
(302,368,o),
(264,394,o),
(203,394,cs),
(95,394,o),
(29,306,o),
(29,194,cs),
(29,82,o),
(87,-9,o),
(201,-9,cs),
(248,-9,o),
(287,11,o),
(313,43,c)
);
}
);
width = 468;
}
);
note = a;
unicode = 97;
},
{
glyphname = b;
layers = (
{
layerId = m01;
shapes = (
{
closed = 1;
nodes = (
(211,98,o),
(155,111,o),
(155,193,cs),
(155,274,o),
(210,283,o),
(237,283,cs),
(263,283,o),
(321,275,o),
(321,193,cs),
(321,111,o),
(264,98,o),
(237,98,cs)
);
},
{
closed = 1;
nodes = (
(181,11,o),
(221,-9,o),
(268,-9,cs),
(382,-9,o),
(440,82,o),
(440,194,cs),
(440,317,o),
(374,394,o),
(267,394,cs),
(212,394,o),
(175,369,o),
(155,339,c),
(155,458,ls),
(155,530,o),
(122,556,o),
(59,556,cs),
(54,556,ls),
(45,556,o),
(41,552,o),
(41,543,cs),
(41,13,ls),
(41,4,o),
(45,0,o),
(54,0,cs),
(142,0,ls),
(151,0,o),
(155,4,o),
(155,13,cs),
(155,43,l)
);
}
);
width = 468;
}
);
note = b;
unicode = 98;
},
{
glyphname = c;
kernLeft = c;
kernRight = c;
layers = (
{
layerId = m01;
shapes = (
{
closed = 1;
nodes = (
(324,-10,o),
(352,63,o),
(352,104,cs),
(352,113,o),
(349,120,o),
(341,120,cs),
(338,120,o),
(333,118,o),
(327,114,cs),
(312,105,o),
(283,88,o),
(245,88,cs),
(178,88,o),
(147,128,o),
(147,189,cs),
(147,256,o),
(187,285,o),
(232,285,cs),
(263,285,o),
(281,279,o),
(312,264,cs),
(316,262,o),
(320,261,o),
(323,261,cs),
(328,261,o),
(330,264,o),
(332,271,cs),
(338,296,ls),
(349,342,o),
(339,367,o),
(299,381,cs),
(276,389,o),
(252,393,o),
(225,393,cs),
(107,393,o),
(29,319,o),
(29,192,cs),
(29,65,o),
(103,-10,o),
(212,-10,cs)
);
}
);
width = 365;
}
);
note = c;
unicode = 99;
},
{
glyphname = d;
layers = (
{
layerId = m01;
shapes = (
{
closed = 1;
nodes = (
(205,98,o),
(147,111,o),
(147,193,cs),
(147,275,o),
(206,283,o),
(232,283,cs),
(259,283,o),
(313,274,o),
(313,193,cs),
(313,111,o),
(258,98,o),
(232,98,cs)
);
},
{
closed = 1;
nodes = (
(292,375,o),
(258,394,o),
(208,394,cs),
(91,394,o),
(29,306,o),
(29,194,cs),
(29,82,o),
(87,-9,o),
(201,-9,cs),
(248,-9,o),
(287,11,o),
(313,43,c),
(313,13,ls),
(313,4,o),
(317,0,o),
(326,0,cs),
(415,0,ls),
(424,0,o),
(428,4,o),
(428,13,cs),
(428,458,ls),
(428,530,o),
(395,556,o),
(331,556,cs),
(326,556,ls),
(317,556,o),
(313,552,o),
(313,543,cs),
(313,344,l)
);
}
);
width = 468;
}
);
note = d;
unicode = 100;
},
{
glyphname = e;
kernLeft = e;
kernRight = e;
layers = (
{
layerId = m01;
shapes = (
{
closed = 1;
nodes = (
(150,270,o),
(175,295,o),
(221,295,cs),
(272,295,o),
(286,255,o),
(282,231,c),
(148,231,l)
);
},
{
closed = 1;
nodes = (
(375,151,ls),
(387,151,o),
(393,156,o),
(394,166,cs),
(395,178,o),
(396,195,o),
(396,220,cs),
(396,307,o),
(342,393,o),
(221,393,cs),
(100,393,o),
(29,308,o),
(29,193,cs),
(29,68,o),
(109,-10,o),
(230,-10,cs),
(351,-10,o),
(388,59,o),
(388,100,cs),
(388,109,o),
(384,115,o),
(376,115,cs),
(372,115,o),
(366,113,o),
(359,110,cs),
(320,93,o),
(291,86,o),
(246,86,cs),
(189,86,o),
(155,108,o),
(147,151,c)
);
}
);
width = 422;
}
);
note = e;
unicode = 101;
},
{
glyphname = f;
kernLeft = f;
layers = (
{
layerId = m01;
shapes = (
{
closed = 1;
nodes = (
(77,13,ls),
(77,4,o),
(81,0,o),
(90,0,cs),
(178,0,ls),
(187,0,o),
(191,4,o),
(191,13,cs),
(191,280,l),
(285,280,ls),
(294,280,o),
(298,284,o),
(298,293,cs),
(298,369,ls),
(298,378,o),
(294,382,o),
(285,382,cs),
(191,382,l),
(191,401,ls),
(191,445,o),
(202,464,o),
(236,464,cs),
(253,464,o),
(266,459,o),
(287,450,cs),
(290,449,o),
(293,448,o),
(296,448,cs),
(305,448,o),
(309,457,o),
(309,468,cs),
(309,512,o),
(274,561,o),
(199,561,cs),
(125,561,o),
(77,513,o),
(77,407,cs),
(77,382,l),
(23,382,ls),
(14,382,o),
(10,378,o),
(10,369,cs),
(10,293,ls),
(10,284,o),
(14,280,o),
(23,280,cs),
(77,280,l)
);
}
);
width = 324;
}
);
note = f;
unicode = 102;
},
{
glyphname = g;
layers = (
{
layerId = m01;
shapes = (
{
closed = 1;
nodes = (
(205,98,o),
(147,111,o),
(147,193,cs),
(147,275,o),
(206,283,o),
(232,283,cs),
(259,283,o),
(313,274,o),
(313,193,cs),
(313,111,o),
(258,98,o),
(232,98,cs)
);
},
{
closed = 1;
nodes = (
(313,19,ls),
(313,-31,o),
(284,-67,o),
(201,-67,cs),
(136,-67,o),
(101,-48,o),
(77,-31,cs),
(72,-27,o),
(68,-24,o),
(63,-24,cs),
(54,-24,o),
(49,-34,o),
(49,-47,cs),
(49,-109,o),
(117,-171,o),
(229,-171,cs),
(362,-171,o),
(428,-96,o),
(428,20,cs),
(428,369,ls),
(428,378,o),
(424,382,o),
(415,382,cs),
(410,382,ls),
(368,382,o),
(340,371,o),
(325,343,c),
(302,369,o),
(264,394,o),
(203,394,cs),
(95,394,o),
(29,306,o),
(29,194,cs),
(29,82,o),
(87,0,o),
(201,0,cs),
(248,0,o),
(287,20,o),
(313,52,c)
);
}
);
width = 468;
}
);
note = g;
unicode = 103;
},
{
glyphname = h;
layers = (
{
layerId = m01;
shapes = (
{
closed = 1;
nodes = (
(155,458,ls),
(155,530,o),
(122,556,o),
(59,556,cs),
(54,556,ls),
(45,556,o),
(41,552,o),
(41,543,cs),
(41,13,ls),
(41,4,o),
(45,0,o),
(54,0,cs),
(142,0,ls),
(151,0,o),
(155,4,o),
(155,13,cs),
(155,209,ls),
(155,269,o),
(188,288,o),
(224,288,cs),
(260,288,o),
(294,269,o),
(294,210,cs),
(294,13,ls),
(294,4,o),
(298,0,o),
(307,0,cs),
(396,0,ls),
(405,0,o),
(409,4,o),
(409,13,cs),
(409,220,ls),
(409,339,o),
(344,394,o),
(255,394,cs),
(212,394,o),
(178,378,o),
(155,348,c)
);
}
);
width = 447;
}
);
note = h;
unicode = 104;
},
{
glyphname = i;
kernLeft = i;
kernRight = i;
layers = (
{
layerId = m01;
shapes = (
{
closed = 1;
nodes = (
(35,444,o),
(63,417,o),
(99,417,cs),
(133,417,o),
(160,444,o),
(160,481,cs),
(160,518,o),
(133,546,o),
(99,546,cs),
(63,546,o),
(35,518,o),
(35,481,cs)
);
},
{
closed = 1;
nodes = (
(41,4,o),
(45,0,o),
(54,0,cs),
(142,0,ls),
(151,0,o),
(155,4,o),
(155,13,cs),
(155,284,ls),
(155,356,o),
(122,382,o),
(59,382,cs),
(54,382,ls),
(45,382,o),
(41,378,o),
(41,369,cs),
(41,13,ls)
);
}
);
width = 196;
}
);
note = i;
unicode = 105;
},
{
glyphname = j;
layers = (
{
layerId = m01;
shapes = (
{
closed = 1;
nodes = (
(-78,-121,o),
(-41,-171,o),
(34,-171,cs),
(108,-171,o),
(155,-122,o),
(155,-17,cs),
(155,284,ls),
(155,356,o),
(122,382,o),
(58,382,cs),
(53,382,ls),
(44,382,o),
(40,378,o),
(40,369,cs),
(40,-10,ls),
(40,-55,o),
(29,-74,o),
(-4,-74,cs),
(-22,-74,o),
(-35,-69,o),
(-56,-60,cs),
(-59,-59,o),
(-62,-58,o),
(-65,-58,cs),
(-74,-58,o),
(-78,-67,o),
(-78,-78,cs)
);
},
{
closed = 1;
nodes = (
(34,444,o),
(62,417,o),
(98,417,cs),
(133,417,o),
(160,444,o),
(160,481,cs),
(160,518,o),
(133,546,o),
(98,546,cs),
(62,546,o),
(34,518,o),
(34,481,cs)
);
}
);
width = 196;
}
);
note = j;
unicode = 106;
},
{
glyphname = k;
layers = (
{
layerId = m01;
shapes = (
{
closed = 1;
nodes = (
(195,157,l),
(271,13,ls),
(275,5,o),
(283,0,o),
(294,0,cs),
(394,0,ls),
(401,0,o),
(404,7,o),
(401,13,cs),
(273,242,l),
(387,369,ls),
(392,374,o),
(390,382,o),
(382,382,cs),
(281,382,ls),
(272,382,o),
(265,378,o),
(257,369,cs),
(155,253,l),
(155,458,ls),
(155,530,o),
(122,556,o),
(59,556,cs),
(54,556,ls),
(45,556,o),
(41,552,o),
(41,543,cs),
(41,13,ls),
(41,4,o),
(45,0,o),
(54,0,cs),
(142,0,ls),
(151,0,o),
(155,4,o),
(155,13,cs),
(155,113,l)
);
}
);
width = 410;
}
);
note = k;
unicode = 107;
},
{
glyphname = l;
kernRight = l;
layers = (
{
layerId = m01;
shapes = (
{
closed = 1;
nodes = (
(232,-8,o),
(257,49,o),
(257,95,cs),
(257,102,o),
(254,110,o),
(246,110,cs),
(241,110,o),
(237,107,o),
(234,105,cs),
(221,96,o),
(211,90,o),
(193,90,cs),
(168,90,o),
(155,108,o),
(155,144,cs),
(155,458,ls),
(155,530,o),
(122,556,o),
(59,556,cs),
(54,556,ls),
(45,556,o),
(41,552,o),
(41,543,cs),
(41,131,ls),
(41,37,o),
(84,-8,o),
(153,-8,cs)
);
}
);
width = 256;
}
);
note = l;
unicode = 108;
},
{
glyphname = m;
layers = (
{
layerId = m01;
shapes = (
{
closed = 1;
nodes = (
(132,370,o),
(103,382,o),
(59,382,cs),
(54,382,ls),
(45,382,o),
(41,378,o),
(41,369,cs),
(41,13,ls),
(41,4,o),
(45,0,o),
(54,0,cs),
(142,0,ls),
(151,0,o),
(155,4,o),
(155,13,cs),
(155,208,ls),
(155,266,o),
(190,287,o),
(223,287,cs),
(257,287,o),
(286,267,o),
(286,207,cs),
(286,13,ls),
(286,4,o),
(290,0,o),
(299,0,cs),
(388,0,ls),
(397,0,o),
(401,4,o),
(401,13,cs),
(401,208,ls),
(401,266,o),
(436,287,o),
(468,287,cs),
(502,287,o),
(532,267,o),
(532,207,cs),
(532,13,ls),
(532,4,o),
(536,0,o),
(545,0,cs),
(633,0,ls),
(642,0,o),
(646,4,o),
(646,13,cs),
(646,217,ls),
(646,336,o),
(590,391,o),
(495,391,cs),
(444,391,o),
(403,362,o),
(376,326,c),
(350,370,o),
(307,391,o),
(250,391,cs),
(207,391,o),
(172,370,o),
(146,338,c)
);
}
);
width = 685;
}
);
note = m;
unicode = 109;
},
{
glyphname = n;
kernLeft = n;
kernRight = n;
layers = (
{
layerId = m01;
shapes = (
{
closed = 1;
nodes = (
(134,369,o),
(105,382,o),
(59,382,cs),
(54,382,ls),
(45,382,o),
(41,378,o),
(41,369,cs),
(41,13,ls),
(41,4,o),
(45,0,o),
(54,0,cs),
(142,0,ls),
(151,0,o),
(155,4,o),
(155,13,cs),
(155,206,ls),
(155,266,o),
(188,285,o),
(224,285,cs),
(260,285,o),
(294,266,o),
(294,205,cs),
(294,13,ls),
(294,4,o),
(298,0,o),
(307,0,cs),
(396,0,ls),
(405,0,o),
(409,4,o),
(409,13,cs),
(409,217,ls),
(409,336,o),
(350,391,o),
(256,391,cs),
(214,391,o),
(174,371,o),
(147,335,c)
);
}
);
width = 447;
}
);
note = n;
unicode = 110;
},
{
glyphname = o;
kernLeft = o;
kernRight = o;
layers = (
{
layerId = m01;
shapes = (
{
closed = 1;
nodes = (
(186,98,o),
(147,119,o),
(147,190,cs),
(147,259,o),
(186,284,o),
(228,284,cs),
(269,284,o),
(308,259,o),
(308,190,cs),
(308,119,o),
(268,98,o),
(227,98,cs)
);
},
{
closed = 1;
nodes = (
(351,-10,o),
(427,71,o),
(427,192,cs),
(427,313,o),
(349,393,o),
(227,393,cs),
(105,393,o),
(29,313,o),
(29,192,cs),
(29,71,o),
(107,-10,o),
(229,-10,cs)
);
}
);
width = 455;
}
);
note = o;
unicode = 111;
},
{
glyphname = p;
layers = (
{
layerId = m01;
shapes = (
{
closed = 1;
nodes = (
(211,98,o),
(155,111,o),
(155,193,cs),
(155,274,o),
(210,283,o),
(237,283,cs),
(263,283,o),
(321,275,o),
(321,193,cs),
(321,111,o),
(264,98,o),
(237,98,cs)
);
},
{
closed = 1;
nodes = (
(181,8,o),
(221,-9,o),
(268,-9,cs),
(382,-9,o),
(440,82,o),
(440,194,cs),
(440,306,o),
(379,393,o),
(258,393,cs),
(204,393,o),
(165,363,o),
(146,338,c),
(132,369,o),
(103,382,o),
(59,382,cs),
(54,382,ls),
(45,382,o),
(41,378,o),
(41,369,cs),
(41,-147,ls),
(41,-156,o),
(45,-160,o),
(54,-160,cs),
(142,-160,ls),
(151,-160,o),
(155,-156,o),
(155,-147,cs),
(155,40,l)
);
}
);
width = 468;
}
);
note = p;
unicode = 112;
},
{
glyphname = q;
layers = (
{
layerId = m01;
shapes = (
{
closed = 1;
nodes = (
(205,98,o),
(147,111,o),
(147,193,cs),
(147,275,o),
(206,283,o),
(232,283,cs),
(259,283,o),
(313,274,o),
(313,193,cs),
(313,111,o),
(258,98,o),
(232,98,cs)
);
},
{
closed = 1;
nodes = (
(313,-147,ls),
(313,-156,o),
(317,-160,o),
(326,-160,cs),
(415,-160,ls),
(424,-160,o),
(428,-156,o),
(428,-147,cs),
(428,369,ls),
(428,378,o),
(424,382,o),
(415,382,cs),
(410,382,ls),
(368,382,o),
(339,371,o),
(325,343,c),
(302,368,o),
(264,394,o),
(203,394,cs),
(95,394,o),
(29,306,o),
(29,194,cs),
(29,82,o),
(87,-9,o),
(201,-9,cs),
(248,-9,o),
(287,11,o),
(313,43,c)
);
}
);
width = 468;
}
);
note = q;
unicode = 113;
},
{
glyphname = r;
kernLeft = r;
layers = (
{
layerId = m01;
shapes = (
{
closed = 1;
nodes = (
(138,366,o),
(108,382,o),
(59,382,cs),
(54,382,ls),
(45,382,o),
(41,378,o),
(41,369,cs),
(41,13,ls),
(41,4,o),
(45,0,o),
(54,0,cs),
(142,0,ls),
(151,0,o),
(155,4,o),
(155,13,cs),
(155,170,ls),
(155,235,o),
(163,275,o),
(237,275,cs),
(266,275,ls),
(275,275,o),
(279,279,o),
(279,288,cs),
(279,369,ls),
(279,378,o),
(275,382,o),
(266,382,cs),
(254,382,ls),
(197,382,o),
(174,369,o),
(150,327,c)
);
}
);
width = 298;
}
);
note = r;
unicode = 114;
},
{
glyphname = s;
kernLeft = s;
layers = (
{
layerId = m01;
shapes = (
{
closed = 1;
nodes = (
(35,121,o),
(32,123,o),
(29,123,cs),
(22,123,o),
(16,117,o),
(16,102,cs),
(16,39,o),
(79,-10,o),
(165,-10,cs),
(256,-10,o),
(315,43,o),
(315,122,cs),
(315,238,o),
(143,226,o),
(143,275,cs),
(143,295,o),
(161,302,o),
(180,302,cs),
(209,302,o),
(236,296,o),
(270,280,cs),
(275,278,o),
(279,276,o),
(284,276,cs),
(288,276,o),
(291,278,o),
(293,284,cs),
(296,294,ls),
(310,340,o),
(296,362,o),
(257,379,cs),
(237,388,o),
(210,393,o),
(183,393,cs),
(106,393,o),
(28,361,o),
(28,268,cs),
(28,142,o),
(200,161,o),
(200,112,cs),
(200,93,o),
(182,81,o),
(150,81,cs),
(104,81,o),
(73,95,o),
(37,120,cs)
);
}
);
width = 331;
}
);
note = s;
unicode = 115;
},
{
glyphname = t;
layers = (
{
layerId = m01;
shapes = (
{
closed = 1;
nodes = (
(91,13,ls),
(91,4,o),
(94,0,o),
(103,0,cs),
(192,0,ls),
(201,0,o),
(205,4,o),
(205,13,cs),
(205,280,l),
(287,280,ls),
(296,280,o),
(300,284,o),
(300,293,cs),
(300,369,ls),
(300,378,o),
(296,382,o),
(287,382,cs),
(205,382,l),
(205,418,ls),
(205,490,o),
(172,516,o),
(108,516,cs),
(103,516,ls),
(94,516,o),
(91,512,o),
(91,503,cs),
(91,382,l),
(25,382,ls),
(16,382,o),
(12,378,o),
(12,369,cs),
(12,293,ls),
(12,284,o),
(16,280,o),
(25,280,cs),
(91,280,l)
);
}
);
width = 318;
}
);
note = t;
unicode = 116;
},
{
glyphname = u;
kernLeft = u;
kernRight = u;
layers = (
{
layerId = m01;
shapes = (
{
closed = 1;
nodes = (
(355,-10,o),
(408,66,o),
(408,185,cs),
(408,284,ls),
(408,356,o),
(375,382,o),
(311,382,cs),
(306,382,ls),
(297,382,o),
(293,378,o),
(293,369,cs),
(293,175,ls),
(293,115,o),
(259,96,o),
(223,96,cs),
(187,96,o),
(154,115,o),
(154,176,cs),
(154,284,ls),
(154,356,o),
(121,382,o),
(58,382,cs),
(53,382,ls),
(44,382,o),
(40,378,o),
(40,369,cs),
(40,192,ls),
(40,73,o),
(91,-10,o),
(223,-10,cs)
);
}
);
width = 447;
}
);
note = u;
unicode = 117;
},
{
glyphname = v;
layers = (
{
layerId = m01;
shapes = (
{
closed = 1;
nodes = (
(152,284,ls),
(129,363,o),
(104,382,o),
(35,382,cs),
(16,382,ls),
(9,382,o),
(6,377,o),
(9,369,cs),
(130,13,ls),
(133,3,o),
(138,0,o),
(148,0,cs),
(260,0,ls),
(270,0,o),
(274,3,o),
(277,13,cs),
(400,369,ls),
(402,376,o),
(399,382,o),
(391,382,cs),
(299,382,ls),
(290,382,o),
(285,377,o),
(283,369,cs),
(205,104,l)
);
}
);
width = 406;
}
);
note = v;
unicode = 118;
},
{
glyphname = w;
layers = (
{
layerId = m01;
shapes = (
{
closed = 1;
nodes = (
(152,284,ls),
(131,364,o),
(106,382,o),
(37,382,cs),
(20,382,ls),
(13,382,o),
(9,376,o),
(11,369,cs),
(121,13,ls),
(124,5,o),
(129,0,o),
(139,0,cs),
(234,0,ls),
(242,0,o),
(248,4,o),
(249,13,c),
(310,236,l),
(373,13,ls),
(376,4,o),
(381,0,o),
(390,0,cs),
(482,0,ls),
(491,0,o),
(496,4,o),
(499,13,cs),
(603,369,ls),
(605,377,o),
(602,382,o),
(594,382,cs),
(518,382,ls),
(508,382,o),
(503,378,o),
(500,369,cs),
(434,133,l),
(398,284,ls),
(378,364,o),
(352,382,o),
(282,382,cs),
(270,382,ls),
(261,382,o),
(254,378,o),
(252,369,cs),
(191,135,l)
);
}
);
width = 612;
}
);
note = w;
unicode = 119;
},
{
glyphname = x;
layers = (
{
layerId = m01;
shapes = (
{
closed = 1;
nodes = (
(272,13,ls),
(278,3,o),
(284,0,o),
(296,0,cs),
(389,0,ls),
(396,0,o),
(400,7,o),
(396,13,cs),
(277,207,l),
(375,369,ls),
(379,376,o),
(376,382,o),
(368,382,cs),
(284,382,ls),
(274,382,o),
(267,378,o),
(261,369,cs),
(204,277,l),
(184,310,ls),
(146,373,o),
(131,382,o),
(74,382,cs),
(32,382,ls),
(24,382,o),
(22,375,o),
(26,369,cs),
(130,200,l),
(14,13,ls),
(10,7,o),
(13,0,o),
(20,0,cs),
(109,0,ls),
(118,0,o),
(124,4,o),
(130,13,cs),
(201,132,l)
);
}
);
width = 406;
}
);
note = x;
unicode = 120;
},
{
glyphname = y;
kernLeft = y;
kernRight = y;
layers = (
{
layerId = m01;
shapes = (
{
closed = 1;
nodes = (
(132,-52,o),
(113,-74,o),
(76,-74,cs),
(58,-74,o),
(40,-68,o),
(20,-55,cs),
(17,-53,o),
(14,-52,o),
(11,-52,cs),
(2,-52,o),
(-2,-62,o),
(-2,-73,cs),
(-2,-116,o),
(31,-171,o),
(106,-171,cs),
(202,-171,o),
(241,-92,o),
(276,7,cs),
(404,369,ls),
(407,376,o),
(404,382,o),
(398,382,cs),
(308,382,ls),
(299,382,o),
(295,378,o),
(292,369,cs),
(211,128,l),
(157,284,ls),
(130,361,o),
(109,382,o),
(40,382,cs),
(16,382,ls),
(10,382,o),
(6,376,o),
(9,369,cs),
(148,-10,l)
);
}
);
width = 412;
}
);
note = y;
unicode = 121;
},
{
glyphname = z;
kernLeft = z;
kernRight = z;
layers = (
{
layerId = m01;
shapes = (
{
closed = 1;
nodes = (
(318,276,ls),
(325,285,o),
(331,295,o),
(331,309,cs),
(331,365,o),
(315,382,o),
(265,382,cs),
(45,382,ls),
(36,382,o),
(32,378,o),
(32,369,cs),
(32,293,ls),
(32,284,o),
(36,280,o),
(45,280,cs),
(186,280,l),
(37,97,ls),
(27,84,o),
(24,78,o),
(24,62,cs),
(24,13,ls),
(24,4,o),
(28,0,o),
(37,0,cs),
(324,0,ls),
(333,0,o),
(337,4,o),
(337,13,cs),
(337,88,ls),
(337,97,o),
(333,101,o),
(324,101,cs),
(173,101,l)
);
}
);
width = 361;
}
);
note = z;
unicode = 122;
},
{
glyphname = braceleft;
layers = (
{
layerId = m01;
shapes = (
{
closed = 1;
nodes = (
(177,292,o),
(197,318,o),
(197,393,cs),
(197,594,ls),
(197,598,o),
(199,600,o),
(203,600,cs),
(233,600,ls),
(279,600,o),
(302,623,o),
(302,666,cs),
(302,675,ls),
(302,685,o),
(296,692,o),
(286,692,cs),
(168,692,ls),
(122,692,o),
(99,668,o),
(99,626,cs),
(99,399,ls),
(99,350,o),
(84,324,o),
(50,317,cs),
(44,316,o),
(40,313,o),
(40,305,cs),
(40,243,ls),
(40,237,o),
(44,233,o),
(50,232,cs),
(84,225,o),
(99,199,o),
(99,149,cs),
(99,-77,ls),
(99,-120,o),
(122,-144,o),
(168,-144,cs),
(286,-144,ls),
(296,-144,o),
(302,-136,o),
(302,-126,cs),
(302,-118,ls),
(302,-75,o),
(279,-51,o),
(233,-51,cs),
(203,-51,ls),
(199,-51,o),
(197,-50,o),
(197,-45,cs),
(197,157,ls),
(197,230,o),
(177,257,o),
(151,275,c)
);
}
);
width = 352;
}
);
note = braceleft;
unicode = 123;
},
{
glyphname = bar;
layers = (
{
layerId = m01;
shapes = (
{
closed = 1;
nodes = (
(50,-145,o),
(54,-149,o),
(63,-149,cs),
(137,-149,ls),
(146,-149,o),
(150,-145,o),
(150,-136,cs),
(150,469,ls),
(150,541,o),
(118,566,o),
(63,566,cs),
(54,566,o),
(50,562,o),
(50,554,cs),
(50,-136,ls)
);
}
);
width = 200;
}
);
note = bar;
unicode = 124;
},
{
glyphname = braceright;
layers = (
{
layerId = m01;
shapes = (
{
closed = 1;
nodes = (
(172,257,o),
(152,230,o),
(152,157,cs),
(152,-45,ls),
(152,-50,o),
(150,-51,o),
(146,-51,cs),
(117,-51,ls),
(71,-51,o),
(47,-75,o),
(47,-118,cs),
(47,-126,ls),
(47,-136,o),
(53,-144,o),
(63,-144,cs),
(182,-144,ls),
(227,-144,o),
(251,-120,o),
(251,-77,cs),
(251,149,ls),
(251,199,o),
(266,225,o),
(299,232,cs),
(305,233,o),
(309,237,o),
(309,243,cs),
(309,305,ls),
(309,313,o),
(305,316,o),
(299,317,cs),
(266,324,o),
(251,350,o),
(251,399,cs),
(251,626,ls),
(251,668,o),
(227,692,o),
(182,692,cs),
(63,692,ls),
(53,692,o),
(47,685,o),
(47,675,cs),
(47,666,ls),
(47,623,o),
(71,600,o),
(117,600,cs),
(146,600,ls),
(150,600,o),
(152,598,o),
(152,594,cs),
(152,393,ls),
(152,318,o),
(172,292,o),
(198,275,c)
);
}
);
width = 353;
}
);
note = braceright;
unicode = 125;
},
{
glyphname = asciitilde;
layers = (
{
layerId = m01;
shapes = (
{
closed = 1;
nodes = (
(73,252,o),
(100,260,o),
(131,260,cs),
(193,260,o),
(240,214,o),
(316,214,cs),
(349,214,o),
(377,224,o),
(403,247,cs),
(412,255,o),
(413,261,o),
(413,276,cs),
(413,347,ls),
(413,356,o),
(406,355,o),
(402,351,cs),
(376,322,o),
(348,314,o),
(316,314,cs),
(256,314,o),
(205,361,o),
(131,361,cs),
(99,361,o),
(72,351,o),
(45,327,cs),
(37,319,o),
(35,313,o),
(35,298,cs),
(35,228,ls),
(35,219,o),
(43,220,o),
(46,224,cs)
);
}
);
width = 447;
}
);
note = asciitilde;
unicode = 126;
},
{
glyphname = exclamdown;
layers = (
{
layerId = m01;
shapes = (
{
closed = 1;
nodes = (
(134,252,o),
(165,282,o),
(165,323,cs),
(165,364,o),
(134,393,o),
(96,393,cs),
(57,393,o),
(28,364,o),
(28,323,cs),
(28,282,o),
(57,252,o),
(96,252,cs)
);
},
{
closed = 1;
nodes = (
(36,-169,o),
(40,-173,o),
(49,-173,cs),
(143,-173,ls),
(152,-173,o),
(156,-169,o),
(156,-160,cs),
(146,119,ls),
(143,191,o),
(115,220,o),
(61,220,cs),
(52,220,o),
(48,216,o),
(48,207,cs),
(36,-160,ls)
);
}
);
width = 200;
}
);
note = exclamdown;
unicode = 161;
},
{
glyphname = cent;
layers = (
{
layerId = m01;
shapes = (
{
closed = 1;
nodes = (
(163,106,o),
(144,141,o),
(144,189,cs),
(144,241,o),
(169,272,o),
(202,283,c),
(202,92,l)
);
},
{
closed = 1;
nodes = (
(332,14,o),
(352,70,o),
(352,101,cs),
(352,110,o),
(349,117,o),
(341,117,cs),
(338,117,o),
(333,115,o),
(327,111,cs),
(314,103,o),
(291,90,o),
(262,86,c),
(262,287,l),
(278,284,o),
(293,278,o),
(313,268,cs),
(317,266,o),
(321,265,o),
(324,265,cs),
(329,265,o),
(331,267,o),
(333,275,cs),
(338,296,ls),
(350,342,o),
(339,367,o),
(299,381,cs),
(287,385,o),
(274,388,o),
(262,390,c),
(262,444,ls),
(262,453,o),
(258,457,o),
(249,457,cs),
(215,457,ls),
(206,457,o),
(202,453,o),
(202,444,cs),
(202,392,l),
(99,383,o),
(29,309,o),
(29,192,cs),
(29,71,o),
(100,-5,o),
(202,-10,c),
(202,-52,ls),
(202,-61,o),
(206,-65,o),
(215,-65,cs),
(249,-65,ls),
(258,-65,o),
(262,-61,o),
(262,-52,cs),
(262,-4,l)
);
}
);
width = 369;
}
);
note = cent;
unicode = 162;
},
{
glyphname = sterling;
layers = (
{
layerId = m01;
shapes = (
{
closed = 1;
nodes = (
(257,131,o),
(265,163,o),
(265,193,cs),
(265,205,o),
(264,218,o),
(261,230,c),
(370,230,ls),
(380,230,o),
(386,237,o),
(386,246,cs),
(386,269,ls),
(386,312,o),
(362,336,o),
(316,336,cs),
(223,336,l),
(213,360,o),
(206,382,o),
(206,400,cs),
(206,439,o),
(233,463,o),
(278,463,cs),
(324,463,o),
(355,453,o),
(395,432,cs),
(401,429,o),
(406,427,o),
(410,427,cs),
(415,427,o),
(418,430,o),
(420,436,cs),
(428,461,ls),
(441,503,o),
(432,528,o),
(384,547,cs),
(345,561,o),
(325,566,o),
(277,566,cs),
(167,566,o),
(87,516,o),
(87,406,cs),
(87,382,o),
(94,359,o),
(104,336,c),
(50,336,ls),
(41,336,o),
(37,332,o),
(37,323,cs),
(37,242,ls),
(37,234,o),
(41,230,o),
(50,230,cs),
(147,230,l),
(150,218,o),
(152,206,o),
(152,193,cs),
(152,166,o),
(144,134,o),
(134,106,c),
(50,106,ls),
(41,106,o),
(37,102,o),
(37,93,cs),
(37,13,ls),
(37,4,o),
(41,0,o),
(50,0,cs),
(419,0,ls),
(429,0,o),
(435,7,o),
(435,17,cs),
(435,40,ls),
(435,82,o),
(411,106,o),
(365,106,cs),
(247,106,l)
);
}
);
width = 467;
}
);
note = sterling;
unicode = 163;
},
{
glyphname = yen;
layers = (
{
layerId = m01;
shapes = (
{
closed = 1;
nodes = (
(196,13,ls),
(196,4,o),
(200,0,o),
(209,0,cs),
(300,0,ls),
(309,0,o),
(313,4,o),
(313,13,cs),
(313,120,l),
(445,120,ls),
(454,120,o),
(458,124,o),
(458,133,cs),
(458,189,ls),
(458,198,o),
(454,202,o),
(445,202,cs),
(314,202,l),
(341,251,l),
(445,251,ls),
(454,251,o),
(458,255,o),
(458,264,cs),
(458,320,ls),
(458,329,o),
(454,333,o),
(445,333,cs),
(384,333,l),
(495,543,ls),
(498,549,o),
(496,556,o),
(487,556,cs),
(391,556,ls),
(382,556,o),
(375,552,o),
(371,543,cs),
(259,322,l),
(172,495,ls),
(149,540,o),
(120,556,o),
(73,556,cs),
(24,556,ls),
(15,556,o),
(13,549,o),
(16,543,cs),
(127,333,l),
(64,333,ls),
(55,333,o),
(51,329,o),
(51,320,cs),
(51,264,ls),
(51,255,o),
(55,251,o),
(64,251,cs),
(170,251,l),
(196,203,l),
(196,202,l),
(64,202,ls),
(55,202,o),
(51,198,o),
(51,189,cs),
(51,133,ls),
(51,124,o),
(55,120,o),
(64,120,cs),
(196,120,l)
);
}
);
width = 509;
}
);
note = yen;
unicode = 165;
},
{
glyphname = brokenbar;
layers = (
{
layerId = m01;
shapes = (
{
closed = 1;
nodes = (
(50,255,o),
(54,251,o),
(63,251,cs),
(137,251,ls),
(146,251,o),
(150,255,o),
(150,264,cs),
(150,469,ls),
(150,541,o),
(118,566,o),
(63,566,cs),
(54,566,o),
(50,562,o),
(50,554,cs),
(50,264,ls)
);
},
{
closed = 1;
nodes = (
(50,-145,o),
(54,-149,o),
(63,-149,cs),
(137,-149,ls),
(146,-149,o),
(150,-145,o),
(150,-136,cs),
(150,153,ls),
(150,162,o),
(146,166,o),
(137,166,cs),
(63,166,ls),
(54,166,o),
(50,162,o),
(50,153,cs),
(50,-136,ls)
);
}
);
width = 200;
}
);
note = brokenbar;
unicode = 166;
},
{
glyphname = section;
layers = (
{
layerId = m01;
shapes = (
{
closed = 1;
nodes = (
(376,146,o),
(407,182,o),
(407,240,cs),
(407,368,o),
(194,372,o),
(194,444,cs),
(194,466,o),
(212,484,o),
(247,484,cs),
(276,484,o),
(304,476,o),
(334,455,cs),
(339,452,o),
(342,448,o),
(347,448,cs),
(351,448,o),
(354,450,o),
(356,456,cs),
(358,462,ls),
(371,501,o),
(366,529,o),
(327,548,cs),
(307,558,o),
(279,566,o),
(232,566,cs),
(145,566,o),
(75,520,o),
(75,441,cs),
(75,402,o),
(89,375,o),
(109,353,c),
(76,329,o),
(45,295,o),
(45,245,cs),
(45,110,o),
(265,101,o),
(265,27,cs),
(265,5,o),
(248,-16,o),
(202,-16,cs),
(145,-16,o),
(98,21,o),
(76,45,cs),
(71,50,o),
(64,49,o),
(62,43,cs),
(57,29,ls),
(43,-10,o),
(52,-37,o),
(87,-63,cs),
(121,-87,o),
(167,-99,o),
(214,-99,cs),
(330,-99,o),
(384,-37,o),
(384,40,cs),
(384,75,o),
(368,101,o),
(344,122,c)
);
},
{
closed = 1;
nodes = (
(211,197,o),
(155,218,o),
(155,259,cs),
(155,278,o),
(164,293,o),
(178,306,c),
(235,278,o),
(293,262,o),
(293,225,cs),
(293,200,o),
(283,183,o),
(268,169,c)
);
}
);
width = 447;
}
);
note = section;
unicode = 167;
},
{
glyphname = dieresis;
layers = (
{
layerId = m01;
shapes = (
{
closed = 1;
nodes = (
(0,444,o),
(28,417,o),
(64,417,cs),
(98,417,o),
(125,444,o),
(125,481,cs),
(125,518,o),
(98,546,o),
(64,546,cs),
(28,546,o),
(0,518,o),
(0,481,cs)
);
},
{
closed = 1;
nodes = (
(176,444,o),
(204,417,o),
(240,417,cs),
(274,417,o),
(301,444,o),
(301,481,cs),
(301,518,o),
(274,546,o),
(240,546,cs),
(204,546,o),
(176,518,o),
(176,481,cs)
);
}
);
width = 301;
}
);
note = dieresis;
unicode = 168;
},
{
glyphname = copyright;
layers = (
{
layerId = m01;
shapes = (
{
closed = 1;
nodes = (
(24,206,o),
(112,117,o),
(247,117,cs),
(381,117,o),
(470,206,o),
(470,340,cs),
(470,474,o),
(381,563,o),
(247,563,cs),
(112,563,o),
(24,474,o),
(24,340,cs)
);
},
{
closed = 1;
nodes = (
(145,170,o),
(79,238,o),
(79,340,cs),
(79,441,o),
(145,510,o),
(247,510,cs),
(349,510,o),
(416,441,o),
(416,340,cs),
(416,238,o),
(349,170,o),
(247,170,cs)
);
},
{
closed = 1;
nodes = (
(311,290,o),
(290,274,o),
(263,274,cs),
(224,274,o),
(198,299,o),
(198,340,cs),
(198,384,o),
(223,409,o),
(261,409,cs),
(283,409,o),
(295,404,o),
(312,396,cs),
(320,392,o),
(324,395,o),
(325,400,cs),
(328,415,ls),
(331,433,o),
(330,443,o),
(311,451,cs),
(295,457,o),
(280,461,o),
(259,461,cs),
(195,461,o),
(139,414,o),
(139,340,cs),
(139,271,o),
(182,223,o),
(249,223,cs),
(316,223,o),
(336,269,o),
(336,291,cs),
(336,298,o),
(334,302,o),
(329,302,cs),
(327,302,o),
(325,302,o),
(321,298,cs)
);
}
);
width = 494;
}
);
note = copyright;
unicode = 169;
},
{
glyphname = ordfeminine;
layers = (
{
layerId = m01;
shapes = (
{
closed = 1;
nodes = (
(254,264,ls),
(254,258,o),
(256,254,o),
(262,254,cs),
(341,254,ls),
(347,254,o),
(350,258,o),
(350,264,cs),
(350,546,ls),
(350,552,o),
(346,556,o),
(340,556,cs),
(335,556,ls),
(300,556,o),
(276,548,o),
(263,526,c),
(245,546,o),
(213,565,o),
(161,565,cs),
(71,565,o),
(15,496,o),
(15,407,cs),
(15,320,o),
(64,247,o),
(159,247,cs),
(199,247,o),
(233,263,o),
(254,288,c)
);
},
{
closed = 1;
nodes = (
(163,332,o),
(114,342,o),
(114,406,cs),
(114,472,o),
(164,478,o),
(185,478,cs),
(208,478,o),
(254,471,o),
(254,406,cs),
(254,342,o),
(207,332,o),
(185,332,cs)
);
}
);
width = 370;
}
);
note = ordfeminine;
unicode = 170;
},
{
glyphname = guillemotleft;
layers = (
{
layerId = m01;
shapes = (
{
closed = 1;
nodes = (
(236,342,ls),
(240,348,o),
(237,355,o),
(230,355,cs),
(157,355,ls),
(145,355,o),
(136,352,o),
(129,342,cs),
(28,210,ls),
(24,205,o),
(21,201,o),
(21,196,cs),
(21,191,o),
(24,187,o),
(28,182,cs),
(129,50,ls),
(136,40,o),
(145,37,o),
(157,37,cs),
(230,37,ls),
(237,37,o),
(240,44,o),
(236,50,cs),
(125,196,l)
);
},
{
closed = 1;
nodes = (
(415,342,ls),
(419,348,o),
(416,355,o),
(409,355,cs),
(336,355,ls),
(324,355,o),
(315,352,o),
(308,342,cs),
(207,210,ls),
(203,205,o),
(200,201,o),
(200,196,cs),
(200,191,o),
(203,187,o),
(207,182,cs),
(308,50,ls),
(315,40,o),
(324,37,o),
(336,37,cs),
(409,37,ls),
(416,37,o),
(419,44,o),
(415,50,cs),
(304,196,l)
);
}
);
width = 436;
}
);
note = guillemotleft;
unicode = 171;
},
{
glyphname = uni00AD;
layers = (
{
layerId = m01;
shapes = (
{
closed = 1;
nodes = (
(252,149,ls),
(261,149,o),
(265,153,o),
(265,162,cs),
(265,244,ls),
(265,253,o),
(261,257,o),
(252,257,cs),
(43,257,ls),
(34,257,o),
(30,253,o),
(30,244,cs),
(30,162,ls),
(30,153,o),
(34,149,o),
(43,149,cs)
);
}
);
width = 294;
}
);
note = uni00AD;
unicode = 173;
},
{
glyphname = registered;
layers = (
{
layerId = m01;
shapes = (
{
closed = 1;
nodes = (
(215,411,l),
(260,411,ls),
(282,411,o),
(298,401,o),
(298,381,cs),
(298,353,o),
(277,348,o),
(260,348,cs),
(215,348,l)
);
},
{
closed = 1;
nodes = (
(24,206,o),
(112,117,o),
(247,117,cs),
(381,117,o),
(470,206,o),
(470,340,cs),
(470,474,o),
(381,563,o),
(247,563,cs),
(112,563,o),
(24,474,o),
(24,340,cs)
);
},
{
closed = 1;
nodes = (
(145,170,o),
(79,238,o),
(79,340,cs),
(79,441,o),
(145,510,o),
(247,510,cs),
(349,510,o),
(416,441,o),
(416,340,cs),
(416,238,o),
(349,170,o),
(247,170,cs)
);
},
{
closed = 1;
nodes = (
(250,303,l),
(289,236,ls),
(292,230,o),
(297,228,o),
(303,228,cs),
(347,228,ls),
(351,228,o),
(353,232,o),
(350,236,cs),
(301,309,l),
(333,321,o),
(351,348,o),
(351,381,cs),
(351,425,o),
(323,456,o),
(255,456,cs),
(169,456,ls),
(165,456,o),
(162,453,o),
(162,448,cs),
(162,236,ls),
(162,231,o),
(165,228,o),
(169,228,cs),
(208,228,ls),
(212,228,o),
(215,231,o),
(215,236,cs),
(215,303,l)
);
}
);
width = 494;
}
);
note = registered;
unicode = 174;
},
{
glyphname = macron;
layers = (
{
layerId = m01;
shapes = (
{
closed = 1;
nodes = (
(263,430,ls),
(272,430,o),
(276,434,o),
(276,443,cs),
(276,500,ls),
(276,509,o),
(272,513,o),
(263,513,cs),
(13,513,ls),
(4,513,o),
(0,509,o),
(0,500,cs),
(0,443,ls),
(0,434,o),
(4,430,o),
(13,430,cs)
);
}
);
width = 276;
}
);
note = macron;
unicode = 175;
},
{
glyphname = degree;
layers = (
{
layerId = m01;
shapes = (
{
closed = 1;
nodes = (
(189,369,o),
(232,414,o),
(232,475,cs),
(232,537,o),
(189,581,o),
(125,581,cs),
(62,581,o),
(19,537,o),
(19,475,cs),
(19,414,o),
(62,369,o),
(125,369,cs)
);
},
{
closed = 1;
nodes = (
(99,428,o),
(84,449,o),
(84,475,cs),
(84,500,o),
(99,521,o),
(125,521,cs),
(151,521,o),
(167,500,o),
(167,475,cs),
(167,449,o),
(151,428,o),
(125,428,cs)
);
}
);
width = 250;
}
);
note = degree;
unicode = 176;
},
{
glyphname = plusminus;
layers = (
{
layerId = m01;
shapes = (
{
closed = 1;
nodes = (
(165,168,ls),
(165,159,o),
(169,155,o),
(178,155,cs),
(254,155,ls),
(263,155,o),
(267,159,o),
(267,168,cs),
(267,299,l),
(389,299,ls),
(398,299,o),
(402,303,o),
(402,312,cs),
(402,382,ls),
(402,391,o),
(398,395,o),
(389,395,cs),
(267,395,l),
(267,455,ls),
(267,516,o),
(243,539,o),
(178,539,cs),
(169,539,o),
(165,535,o),
(165,526,cs),
(165,395,l),
(43,395,ls),
(34,395,o),
(30,391,o),
(30,382,cs),
(30,312,ls),
(30,303,o),
(34,299,o),
(43,299,cs),
(165,299,l)
);
},
{
closed = 1;
nodes = (
(30,4,o),
(34,0,o),
(43,0,cs),
(389,0,ls),
(398,0,o),
(402,4,o),
(402,13,cs),
(402,29,ls),
(402,72,o),
(378,95,o),
(332,95,cs),
(43,95,ls),
(34,95,o),
(30,91,o),
(30,82,cs),
(30,13,ls)
);
}
);
width = 431;
}
);
note = plusminus;
unicode = 177;
},
{
glyphname = twosuperior;
layers = (
{
layerId = m01;
shapes = (
{
closed = 1;
nodes = (
(155,339,o),
(284,359,o),
(284,470,cs),
(284,536,o),
(220,566,o),
(151,566,cs),
(119,566,o),
(88,560,o),
(65,550,cs),
(35,537,o),
(27,523,o),
(37,498,cs),
(48,471,ls),
(51,464,o),
(57,462,o),
(66,467,cs),
(92,480,o),
(111,491,o),
(145,491,cs),
(175,491,o),
(190,478,o),
(190,456,cs),
(190,382,o),
(25,396,o),
(25,233,cs),
(25,227,o),
(28,223,o),
(34,223,cs),
(281,223,ls),
(287,223,o),
(291,227,o),
(291,233,cs),
(291,258,ls),
(291,284,o),
(276,297,o),
(248,297,cs),
(140,297,l)
);
}
);
width = 316;
}
);
note = twosuperior;
unicode = 178;
},
{
glyphname = threesuperior;
layers = (
{
layerId = m01;
shapes = (
{
closed = 1;
nodes = (
(253,416,o),
(273,436,o),
(273,478,cs),
(273,540,o),
(222,566,o),
(148,566,cs),
(116,566,o),
(88,561,o),
(65,552,cs),
(35,541,o),
(27,523,o),
(37,499,cs),
(47,475,ls),
(50,468,o),
(57,467,o),
(66,472,cs),
(88,483,o),
(109,493,o),
(143,493,cs),
(175,493,o),
(190,482,o),
(190,465,cs),
(190,443,o),
(176,430,o),
(141,430,cs),
(91,430,ls),
(84,430,o),
(81,424,o),
(81,418,cs),
(81,390,ls),
(81,365,o),
(93,356,o),
(121,356,cs),
(152,356,ls),
(183,356,o),
(202,351,o),
(202,327,cs),
(202,302,o),
(180,289,o),
(142,289,cs),
(96,289,o),
(69,306,o),
(48,324,cs),
(43,328,o),
(40,329,o),
(37,329,cs),
(30,329,o),
(26,323,o),
(26,314,cs),
(26,276,o),
(63,216,o),
(155,216,cs),
(239,216,o),
(285,255,o),
(285,318,cs),
(285,358,o),
(266,385,o),
(224,400,c)
);
}
);
width = 311;
}
);
note = threesuperior;
unicode = 179;
},
{
glyphname = acute;
layers = (
{
layerId = m01;
shapes = (
{
closed = 1;
nodes = (
(89,430,ls),
(103,430,o),
(115,433,o),
(125,442,cs),
(223,524,ls),
(230,530,o),
(227,540,o),
(218,540,cs),
(126,540,ls),
(113,540,o),
(106,537,o),
(96,528,cs),
(5,445,ls),
(0,440,o),
(2,430,o),
(11,430,cs)
);
}
);
width = 225;
}
);
note = acute;
unicode = 180;
},
{
glyphname = paragraph;
layers = (
{
layerId = m01;
shapes = (
{
closed = 1;
nodes = (
(210,12,ls),
(210,4,o),
(214,0,o),
(222,0,cs),
(263,0,ls),
(270,0,o),
(274,4,o),
(274,12,cs),
(274,485,l),
(322,485,l),
(322,12,ls),
(322,4,o),
(326,0,o),
(334,0,cs),
(375,0,ls),
(383,0,o),
(387,4,o),
(387,12,cs),
(387,458,ls),
(387,530,o),
(354,556,o),
(290,556,cs),
(220,556,ls),
(85,556,o),
(29,488,o),
(29,391,cs),
(29,292,o),
(97,221,o),
(206,221,cs),
(210,221,l)
);
}
);
width = 437;
}
);
note = paragraph;
unicode = 182;
},
{
glyphname = periodcentered;
layers = (
{
layerId = m01;
shapes = (
{
closed = 1;
nodes = (
(20,239,o),
(51,210,o),
(90,210,cs),
(128,210,o),
(157,239,o),
(157,279,cs),
(157,320,o),
(128,350,o),
(90,350,cs),
(51,350,o),
(20,320,o),
(20,279,cs)
);
}
);
width = 177;
}
);
note = periodcentered;
unicode = 183;
},
{
glyphname = cedilla;
layers = (
{
layerId = m01;
shapes = (
{
closed = 1;
nodes = (
(83,-119,ls),
(97,-119,o),
(108,-115,o),
(114,-102,cs),
(160,-7,ls),
(163,0,o),
(161,5,o),
(153,5,cs),
(96,5,ls),
(83,5,o),
(74,4,o),
(67,-7,cs),
(4,-104,ls),
(0,-111,o),
(1,-119,o),
(10,-119,cs)
);
}
);
width = 160;
}
);
note = cedilla;
unicode = 184;
},
{
glyphname = onesuperior;
layers = (
{
layerId = m01;
shapes = (
{
closed = 1;
nodes = (
(100,234,ls),
(100,227,o),
(104,223,o),
(111,223,cs),
(181,223,ls),
(188,223,o),
(192,227,o),
(192,234,cs),
(192,516,ls),
(192,542,o),
(177,556,o),
(148,556,cs),
(113,556,ls),
(102,556,o),
(88,553,o),
(80,550,cs),
(50,540,ls),
(39,536,o),
(35,529,o),
(35,520,cs),
(35,457,ls),
(35,449,o),
(41,447,o),
(48,449,cs),
(100,467,l)
);
}
);
width = 237;
}
);
note = onesuperior;
unicode = 185;
},
{
glyphname = ordmasculine;
layers = (
{
layerId = m01;
shapes = (
{
closed = 1;
nodes = (
(147,333,o),
(114,350,o),
(114,405,cs),
(114,460,o),
(147,480,o),
(182,480,cs),
(217,480,o),
(250,460,o),
(250,405,cs),
(250,350,o),
(216,333,o),
(181,333,cs)
);
},
{
closed = 1;
nodes = (
(15,311,o),
(81,247,o),
(183,247,cs),
(285,247,o),
(349,311,o),
(349,406,cs),
(349,503,o),
(284,565,o),
(181,565,cs),
(79,565,o),
(15,503,o),
(15,406,cs)
);
}
);
width = 364;
}
);
note = ordmasculine;
unicode = 186;
},
{
glyphname = guillemotright;
layers = (
{
layerId = m01;
shapes = (
{
closed = 1;
nodes = (
(203,50,ls),
(199,44,o),
(202,37,o),
(209,37,cs),
(281,37,ls),
(293,37,o),
(302,40,o),
(309,50,cs),
(411,182,ls),
(415,187,o),
(418,191,o),
(418,196,cs),
(418,201,o),
(415,205,o),
(411,210,cs),
(309,342,ls),
(302,352,o),
(293,355,o),
(281,355,cs),
(209,355,ls),
(202,355,o),
(199,348,o),
(203,342,cs),
(313,196,l)
);
},
{
closed = 1;
nodes = (
(24,50,ls),
(20,44,o),
(23,37,o),
(30,37,cs),
(102,37,ls),
(114,37,o),
(123,40,o),
(130,50,cs),
(232,182,ls),
(236,187,o),
(239,191,o),
(239,196,cs),
(239,201,o),
(236,205,o),
(232,210,cs),
(130,342,ls),
(123,352,o),
(114,355,o),
(102,355,cs),
(30,355,ls),
(23,355,o),
(20,348,o),
(24,342,cs),
(134,196,l)
);
}
);
width = 436;
}
);
note = guillemotright;
unicode = 187;
},
{
glyphname = onequarter;
layers = (
{
layerId = m01;
shapes = (
{
closed = 1;
nodes = (
(566,255,l),
(566,136,l),
(484,136,l)
);
},
{
closed = 1;
nodes = (
(100,234,ls),
(100,227,o),
(104,223,o),
(111,223,cs),
(181,223,ls),
(188,223,o),
(192,227,o),
(192,234,cs),
(192,516,ls),
(192,542,o),
(177,556,o),
(148,556,cs),
(113,556,ls),
(102,556,o),
(88,553,o),
(80,550,cs),
(50,540,ls),
(39,536,o),
(35,529,o),
(35,520,cs),
(35,457,ls),
(35,449,o),
(41,447,o),
(48,449,cs),
(100,467,l)
);
},
{
closed = 1;
nodes = (
(566,11,ls),
(566,4,o),
(570,0,o),
(577,0,cs),
(643,0,ls),
(650,0,o),
(654,4,o),
(654,11,cs),
(654,66,l),
(704,66,ls),
(711,66,o),
(714,70,o),
(714,76,cs),
(714,96,ls),
(714,122,o),
(699,136,o),
(670,136,cs),
(654,136,l),
(654,293,ls),
(654,319,o),
(639,333,o),
(610,333,cs),
(556,333,ls),
(540,333,o),
(534,326,o),
(528,318,cs),
(404,137,ls),
(399,129,o),
(398,126,o),
(398,118,cs),
(398,77,ls),
(398,70,o),
(402,66,o),
(409,66,cs),
(566,66,l)
);
},
{
closed = 1;
nodes = (
(230,0,ls),
(240,0,o),
(245,4,o),
(250,13,cs),
(506,483,ls),
(529,524,o),
(512,556,o),
(468,556,cs),
(453,556,ls),
(443,556,o),
(437,552,o),
(433,543,c),
(142,13,ls),
(139,7,o),
(141,0,o),
(150,0,cs)
);
}
);
width = 746;
}
);
note = onequarter;
unicode = 188;
},
{
glyphname = onehalf;
layers = (
{
layerId = m01;
shapes = (
{
closed = 1;
nodes = (
(100,234,ls),
(100,227,o),
(104,223,o),
(111,223,cs),
(181,223,ls),
(188,223,o),
(192,227,o),
(192,234,cs),
(192,516,ls),
(192,542,o),
(177,556,o),
(148,556,cs),
(113,556,ls),
(102,556,o),
(88,553,o),
(80,550,cs),
(50,540,ls),
(39,536,o),
(35,529,o),
(35,520,cs),
(35,457,ls),
(35,449,o),
(41,447,o),
(48,449,cs),
(100,467,l)
);
},
{
closed = 1;
nodes = (
(591,116,o),
(720,136,o),
(720,247,cs),
(720,313,o),
(655,344,o),
(587,344,cs),
(555,344,o),
(523,337,o),
(500,327,cs),
(470,314,o),
(462,300,o),
(472,275,cs),
(483,248,ls),
(486,241,o),
(492,240,o),
(501,244,cs),
(527,258,o),
(547,268,o),
(581,268,cs),
(610,268,o),
(625,255,o),
(625,234,cs),
(625,159,o),
(460,173,o),
(460,10,cs),
(460,4,o),
(463,0,o),
(469,0,cs),
(717,0,ls),
(723,0,o),
(727,4,o),
(727,10,cs),
(727,36,ls),
(727,62,o),
(712,75,o),
(683,75,cs),
(576,75,l)
);
},
{
closed = 1;
nodes = (
(230,0,ls),
(240,0,o),
(245,4,o),
(250,13,cs),
(506,483,ls),
(529,524,o),
(512,556,o),
(468,556,cs),
(453,556,ls),
(443,556,o),
(437,552,o),
(433,543,c),
(142,13,ls),
(139,7,o),
(141,0,o),
(150,0,cs)
);
}
);
width = 778;
}
);
note = onehalf;
unicode = 189;
},
{
glyphname = threequarters;
layers = (
{
layerId = m01;
shapes = (
{
closed = 1;
nodes = (
(253,416,o),
(273,436,o),
(273,478,cs),
(273,540,o),
(222,566,o),
(148,566,cs),
(116,566,o),
(88,561,o),
(65,552,cs),
(35,541,o),
(27,523,o),
(37,499,cs),
(47,475,ls),
(50,468,o),
(57,467,o),
(66,472,cs),
(88,483,o),
(109,493,o),
(143,493,cs),
(175,493,o),
(190,482,o),
(190,465,cs),
(190,443,o),
(176,430,o),
(141,430,cs),
(91,430,ls),
(84,430,o),
(81,424,o),
(81,418,cs),
(81,390,ls),
(81,365,o),
(93,356,o),
(121,356,cs),
(152,356,ls),
(183,356,o),
(202,351,o),
(202,327,cs),
(202,302,o),
(180,289,o),
(142,289,cs),
(96,289,o),
(69,306,o),
(48,324,cs),
(43,328,o),
(40,329,o),
(37,329,cs),
(30,329,o),
(26,323,o),
(26,314,cs),
(26,276,o),
(63,216,o),
(155,216,cs),
(239,216,o),
(285,255,o),
(285,318,cs),
(285,358,o),
(266,385,o),
(224,400,c)
);
},
{
closed = 1;
nodes = (
(623,255,l),
(623,136,l),
(542,136,l)
);
},
{
closed = 1;
nodes = (
(623,11,ls),
(623,4,o),
(627,0,o),
(634,0,cs),
(701,0,ls),
(708,0,o),
(712,4,o),
(712,11,cs),
(712,66,l),
(761,66,ls),
(768,66,o),
(771,70,o),
(771,76,cs),
(771,96,ls),
(771,122,o),
(756,136,o),
(728,136,cs),
(712,136,l),
(712,293,ls),
(712,319,o),
(697,333,o),
(668,333,cs),
(613,333,ls),
(597,333,o),
(591,326,o),
(586,318,cs),
(461,137,ls),
(456,129,o),
(455,126,o),
(455,118,cs),
(455,77,ls),
(455,70,o),
(459,66,o),
(466,66,cs),
(623,66,l)
);
},
{
closed = 1;
nodes = (
(286,0,ls),
(296,0,o),
(301,4,o),
(306,13,cs),
(563,483,ls),
(586,524,o),
(569,556,o),
(525,556,cs),
(510,556,ls),
(500,556,o),
(494,552,o),
(489,543,cs),
(199,13,ls),
(196,7,o),
(198,0,o),
(207,0,cs)
);
}
);
width = 804;
}
);
note = threequarters;
unicode = 190;
},
{
glyphname = questiondown;
layers = (
{
layerId = m01;
shapes = (
{
closed = 1;
nodes = (
(250,252,o),
(281,282,o),
(281,323,cs),
(281,364,o),
(250,393,o),
(212,393,cs),
(173,393,o),
(144,364,o),
(144,323,cs),
(144,282,o),
(173,252,o),
(212,252,cs)
);
},
{
closed = 1;
nodes = (
(9,-135,o),
(91,-184,o),
(200,-184,cs),
(261,-184,o),
(313,-169,o),
(368,-139,cs),
(379,-133,o),
(380,-124,o),
(377,-115,cs),
(356,-48,ls),
(354,-42,o),
(351,-39,o),
(346,-39,cs),
(343,-39,o),
(338,-40,o),
(333,-43,cs),
(290,-64,o),
(254,-79,o),
(203,-79,cs),
(157,-79,o),
(130,-57,o),
(130,-20,cs),
(130,60,o),
(261,83,o),
(261,167,cs),
(261,196,o),
(236,220,o),
(203,220,cs),
(179,220,ls),
(170,220,o),
(166,216,o),
(166,207,cs),
(166,193,ls),
(166,180,o),
(163,172,o),
(148,161,cs),
(63,98,o),
(9,49,o),
(9,-40,cs)
);
}
);
width = 350;
}
);
note = questiondown;
unicode = 191;
},
{
glyphname = Agrave;
kernLeft = A;
kernRight = A;
layers = (
{
layerId = m01;
shapes = (
{
closed = 1;
nodes = (
(262,415,l),
(325,228,l),
(200,228,l)
);
},
{
closed = 1;
nodes = (
(359,128,l),
(398,13,ls),
(401,5,o),
(406,0,o),
(417,0,cs),
(513,0,ls),
(522,0,o),
(525,7,o),
(523,13,cs),
(361,466,ls),
(335,538,o),
(309,556,o),
(253,556,cs),
(209,556,ls),
(200,556,o),
(197,553,o),
(194,545,cs),
(8,13,ls),
(6,7,o),
(9,0,o),
(17,0,cs),
(111,0,ls),
(119,0,o),
(123,4,o),
(126,13,cs),
(165,128,l)
);
},
{
closed = 1;
nodes = (
(241,601,l),
(250,592,o),
(262,589,o),
(276,589,cs),
(355,589,ls),
(364,589,o),
(366,599,o),
(361,604,cs),
(269,687,ls),
(259,696,o),
(252,699,o),
(240,699,cs),
(148,699,ls),
(139,699,o),
(136,689,o),
(143,683,cs)
);
}
);
width = 530;
}
);
note = Agrave;
unicode = 192;
},
{
glyphname = Aacute;
kernLeft = A;
kernRight = A;
layers = (
{
layerId = m01;
shapes = (
{
closed = 1;
nodes = (
(262,415,l),
(325,228,l),
(200,228,l)
);
},
{
closed = 1;
nodes = (
(359,128,l),
(398,13,ls),
(401,5,o),
(406,0,o),
(417,0,cs),
(513,0,ls),
(522,0,o),
(525,7,o),
(523,13,cs),
(361,466,ls),
(335,538,o),
(309,556,o),
(253,556,cs),
(209,556,ls),
(200,556,o),
(197,553,o),
(194,545,cs),
(8,13,ls),
(6,7,o),
(9,0,o),
(17,0,cs),
(111,0,ls),
(119,0,o),
(123,4,o),
(126,13,cs),
(165,128,l)
);
},
{
closed = 1;
nodes = (
(246,589,ls),
(259,589,o),
(271,592,o),
(281,601,cs),
(379,683,ls),
(386,689,o),
(383,699,o),
(374,699,cs),
(282,699,ls),
(269,699,o),
(262,696,o),
(252,687,cs),
(161,604,ls),
(156,599,o),
(158,589,o),
(167,589,cs)
);
}
);
width = 530;
}
);
note = Aacute;
unicode = 193;
},
{
glyphname = Acircumflex;
kernLeft = A;
kernRight = A;
layers = (
{
layerId = m01;
shapes = (
{
closed = 1;
nodes = (
(262,415,l),
(325,228,l),
(200,228,l)
);
},
{
closed = 1;
nodes = (
(359,128,l),
(398,13,ls),
(401,5,o),
(406,0,o),
(417,0,cs),
(513,0,ls),
(522,0,o),
(525,7,o),
(523,13,cs),
(361,466,ls),
(335,538,o),
(309,556,o),
(253,556,cs),
(209,556,ls),
(200,556,o),
(197,553,o),
(194,545,cs),
(8,13,ls),
(6,7,o),
(9,0,o),
(17,0,cs),
(111,0,ls),
(119,0,o),
(123,4,o),
(126,13,cs),
(165,128,l)
);
},
{
closed = 1;
nodes = (
(315,603,ls),
(323,593,o),
(335,589,o),
(349,589,cs),
(418,589,ls),
(427,589,o),
(428,599,o),
(424,604,cs),
(345,687,ls),
(335,697,o),
(328,699,o),
(315,699,cs),
(221,699,ls),
(208,699,o),
(200,697,o),
(191,687,cs),
(111,604,ls),
(106,599,o),
(108,589,o),
(117,589,cs),
(187,589,ls),
(201,589,o),
(213,593,o),
(221,603,cs),
(268,659,l)
);
}
);
width = 530;
}
);
note = Acircumflex;
unicode = 194;
},
{
glyphname = Atilde;
kernLeft = A;
kernRight = A;
layers = (
{
layerId = m01;
shapes = (
{
closed = 1;
nodes = (
(262,415,l),
(325,228,l),
(200,228,l)
);
},
{
closed = 1;
nodes = (
(359,128,l),
(398,13,ls),
(401,5,o),
(406,0,o),
(417,0,cs),
(513,0,ls),
(522,0,o),
(525,7,o),
(523,13,cs),
(361,466,ls),
(335,538,o),
(309,556,o),
(253,556,cs),
(209,556,ls),
(200,556,o),
(197,553,o),
(194,545,cs),
(8,13,ls),
(6,7,o),
(9,0,o),
(17,0,cs),
(111,0,ls),
(119,0,o),
(123,4,o),
(126,13,cs),
(165,128,l)
);
},
{
closed = 1;
nodes = (
(161,587,ls),
(168,587,o),
(173,591,o),
(174,599,cs),
(176,611,o),
(181,623,o),
(198,623,cs),
(227,623,o),
(274,593,o),
(316,593,cs),
(376,593,o),
(395,625,o),
(402,691,cs),
(403,699,o),
(399,704,o),
(391,704,cs),
(343,704,ls),
(336,704,o),
(331,700,o),
(330,692,cs),
(327,675,o),
(321,668,o),
(308,668,cs),
(273,668,o),
(232,701,o),
(181,701,cs),
(133,701,o),
(106,665,o),
(102,600,cs),
(102,592,o),
(105,587,o),
(113,587,cs)
);
}
);
width = 530;
}
);
note = Atilde;
unicode = 195;
},
{
glyphname = Adieresis;
kernLeft = A;
kernRight = A;
layers = (
{
layerId = m01;
shapes = (
{
closed = 1;
nodes = (
(262,415,l),
(325,228,l),
(200,228,l)
);
},
{
closed = 1;
nodes = (
(359,128,l),
(398,13,ls),
(401,5,o),
(406,0,o),
(417,0,cs),
(513,0,ls),
(522,0,o),
(525,7,o),
(523,13,cs),
(361,466,ls),
(335,538,o),
(309,556,o),
(253,556,cs),
(209,556,ls),
(200,556,o),
(197,553,o),
(194,545,cs),
(8,13,ls),
(6,7,o),
(9,0,o),
(17,0,cs),
(111,0,ls),
(119,0,o),
(123,4,o),
(126,13,cs),
(165,128,l)
);
},
{
closed = 1;
nodes = (
(108,603,o),
(136,576,o),
(172,576,cs),
(207,576,o),
(234,603,o),
(234,640,cs),
(234,677,o),
(207,705,o),
(172,705,cs),
(136,705,o),
(108,677,o),
(108,640,cs)
);
},
{
closed = 1;
nodes = (
(284,603,o),
(312,576,o),
(348,576,cs),
(383,576,o),
(409,603,o),
(409,640,cs),
(409,677,o),
(383,705,o),
(348,705,cs),
(312,705,o),
(284,677,o),
(284,640,cs)
);
}
);
width = 530;
}
);
note = Adieresis;
unicode = 196;
},
{
glyphname = Aring;
kernLeft = A;
kernRight = A;
layers = (
{
layerId = m01;
shapes = (
{
closed = 1;
nodes = (
(262,415,l),
(325,228,l),
(200,228,l)
);
},
{
closed = 1;
nodes = (
(359,128,l),
(398,13,ls),
(401,5,o),
(406,0,o),
(417,0,cs),
(513,0,ls),
(522,0,o),
(525,7,o),
(523,13,cs),
(361,466,ls),
(335,538,o),
(309,556,o),
(253,556,cs),
(209,556,ls),
(200,556,o),
(197,553,o),
(194,545,cs),
(8,13,ls),
(6,7,o),
(9,0,o),
(17,0,cs),
(111,0,ls),
(119,0,o),
(123,4,o),
(126,13,cs),
(165,128,l)
);
},
{
closed = 1;
nodes = (
(175,612,o),
(212,576,o),
(256,576,cs),
(301,576,o),
(337,612,o),
(337,657,cs),
(337,702,o),
(301,737,o),
(256,737,cs),
(212,737,o),
(175,702,o),
(175,657,cs)
);
},
{
closed = 1;
nodes = (
(238,623,o),
(224,638,o),
(224,657,cs),
(224,676,o),
(238,691,o),
(256,691,cs),
(275,691,o),
(289,676,o),
(289,657,cs),
(289,638,o),
(275,623,o),
(256,623,cs)
);
}
);
width = 530;
}
);
note = Aring;
unicode = 197;
},
{
glyphname = AE;
kernRight = E;
layers = (
{
layerId = m01;
shapes = (
{
closed = 1;
nodes = (
(357,447,l),
(357,228,l),
(243,228,l)
);
},
{
closed = 1;
nodes = (
(357,128,l),
(357,13,ls),
(357,4,o),
(361,0,o),
(370,0,cs),
(691,0,ls),
(701,0,o),
(707,7,o),
(707,17,cs),
(707,42,ls),
(707,84,o),
(683,108,o),
(637,108,cs),
(474,108,l),
(474,226,l),
(663,226,ls),
(673,226,o),
(679,233,o),
(679,242,cs),
(679,267,ls),
(679,310,o),
(655,334,o),
(609,334,cs),
(474,334,l),
(474,447,l),
(683,447,ls),
(693,447,o),
(699,454,o),
(699,464,cs),
(699,489,ls),
(699,532,o),
(675,556,o),
(629,556,cs),
(314,556,ls),
(302,556,o),
(296,552,o),
(291,543,cs),
(6,13,ls),
(2,6,o),
(6,0,o),
(14,0,cs),
(110,0,ls),
(120,0,o),
(127,3,o),
(132,13,cs),
(192,128,l)
);
}
);
width = 727;
}
);
note = AE;
unicode = 198;
},
{
glyphname = Ccedilla;
kernLeft = C;
kernRight = C;
layers = (
{
layerId = m01;
shapes = (
{
closed = 1;
nodes = (
(459,19,o),
(495,98,o),
(495,142,cs),
(495,160,o),
(489,169,o),
(477,169,cs),
(473,169,o),
(467,168,o),
(459,160,cs),
(437,139,o),
(385,101,o),
(316,101,cs),
(226,101,o),
(160,158,o),
(160,275,cs),
(160,399,o),
(223,454,o),
(311,454,cs),
(369,454,o),
(400,440,o),
(440,420,cs),
(446,417,o),
(452,415,o),
(456,415,cs),
(463,415,o),
(467,419,o),
(469,428,cs),
(476,457,ls),
(486,500,o),
(479,526,o),
(434,544,cs),
(397,559,o),
(361,566,o),
(307,566,cs),
(152,566,o),
(39,456,o),
(39,275,cs),
(39,113,o),
(125,8,o),
(264,-8,c),
(202,-104,ls),
(198,-111,o),
(199,-119,o),
(208,-119,cs),
(281,-119,ls),
(295,-119,o),
(306,-115,o),
(312,-102,cs),
(359,-4,l)
);
}
);
width = 520;
}
);
note = Ccedilla;
unicode = 199;
},
{
glyphname = Egrave;
kernRight = E;
layers = (
{
layerId = m01;
shapes = (
{
closed = 1;
nodes = (
(168,226,l),
(357,226,ls),
(367,226,o),
(373,233,o),
(373,242,cs),
(373,267,ls),
(373,310,o),
(349,334,o),
(303,334,cs),
(168,334,l),
(168,447,l),
(377,447,ls),
(387,447,o),
(393,454,o),
(393,464,cs),
(393,489,ls),
(393,532,o),
(369,556,o),
(323,556,cs),
(64,556,ls),
(55,556,o),
(51,552,o),
(51,543,cs),
(51,13,ls),
(51,4,o),
(55,0,o),
(64,0,cs),
(385,0,ls),
(395,0,o),
(401,7,o),
(401,17,cs),
(401,42,ls),
(401,84,o),
(377,108,o),
(331,108,cs),
(168,108,l)
);
},
{
closed = 1;
nodes = (
(181,601,ls),
(191,592,o),
(203,589,o),
(217,589,cs),
(295,589,ls),
(304,589,o),
(306,599,o),
(301,604,cs),
(210,687,ls),
(200,696,o),
(193,699,o),
(180,699,cs),
(89,699,ls),
(80,699,o),
(77,689,o),
(84,683,cs)
);
}
);
width = 423;
}
);
note = Egrave;
unicode = 200;
},
{
glyphname = Eacute;
kernRight = E;
layers = (
{
layerId = m01;
shapes = (
{
closed = 1;
nodes = (
(168,226,l),
(357,226,ls),
(367,226,o),
(373,233,o),
(373,242,cs),
(373,267,ls),
(373,310,o),
(349,334,o),
(303,334,cs),
(168,334,l),
(168,447,l),
(377,447,ls),
(387,447,o),
(393,454,o),
(393,464,cs),
(393,489,ls),
(393,532,o),
(369,556,o),
(323,556,cs),
(64,556,ls),
(55,556,o),
(51,552,o),
(51,543,cs),
(51,13,ls),
(51,4,o),
(55,0,o),
(64,0,cs),
(385,0,ls),
(395,0,o),
(401,7,o),
(401,17,cs),
(401,42,ls),
(401,84,o),
(377,108,o),
(331,108,cs),
(168,108,l)
);
},
{
closed = 1;
nodes = (
(206,589,ls),
(220,589,o),
(232,592,o),
(242,601,cs),
(339,683,ls),
(346,689,o),
(343,699,o),
(334,699,cs),
(243,699,ls),
(230,699,o),
(223,696,o),
(213,687,cs),
(122,604,ls),
(117,599,o),
(119,589,o),
(128,589,cs)
);
}
);
width = 423;
}
);
note = Eacute;
unicode = 201;
},
{
glyphname = Ecircumflex;
kernRight = E;
layers = (
{
layerId = m01;
shapes = (
{
closed = 1;
nodes = (
(168,226,l),
(357,226,ls),
(367,226,o),
(373,233,o),
(373,242,cs),
(373,267,ls),
(373,310,o),
(349,334,o),
(303,334,cs),
(168,334,l),
(168,447,l),
(377,447,ls),
(387,447,o),
(393,454,o),
(393,464,cs),
(393,489,ls),
(393,532,o),
(369,556,o),
(323,556,cs),
(64,556,ls),
(55,556,o),
(51,552,o),
(51,543,cs),
(51,13,ls),
(51,4,o),
(55,0,o),
(64,0,cs),
(385,0,ls),
(395,0,o),
(401,7,o),
(401,17,cs),
(401,42,ls),
(401,84,o),
(377,108,o),
(331,108,cs),
(168,108,l)
);
},
{
closed = 1;
nodes = (
(260,603,ls),
(268,593,o),
(280,589,o),
(293,589,cs),
(363,589,ls),
(372,589,o),
(373,599,o),
(369,604,cs),
(290,687,ls),
(280,697,o),
(273,699,o),
(260,699,cs),
(165,699,ls),
(152,699,o),
(144,697,o),
(135,687,cs),
(56,604,ls),
(51,599,o),
(53,589,o),
(62,589,cs),
(131,589,ls),
(145,589,o),
(157,593,o),
(165,603,cs),
(213,659,l)
);
}
);
width = 423;
}
);
note = Ecircumflex;
unicode = 202;
},
{
glyphname = Edieresis;
kernRight = E;
layers = (
{
layerId = m01;
shapes = (
{
closed = 1;
nodes = (
(168,226,l),
(357,226,ls),
(367,226,o),
(373,233,o),
(373,242,cs),
(373,267,ls),
(373,310,o),
(349,334,o),
(303,334,cs),
(168,334,l),
(168,447,l),
(377,447,ls),
(387,447,o),
(393,454,o),
(393,464,cs),
(393,489,ls),
(393,532,o),
(369,556,o),
(323,556,cs),
(64,556,ls),
(55,556,o),
(51,552,o),
(51,543,cs),
(51,13,ls),
(51,4,o),
(55,0,o),
(64,0,cs),
(385,0,ls),
(395,0,o),
(401,7,o),
(401,17,cs),
(401,42,ls),
(401,84,o),
(377,108,o),
(331,108,cs),
(168,108,l)
);
},
{
closed = 1;
nodes = (
(68,603,o),
(96,576,o),
(131,576,cs),
(166,576,o),
(193,603,o),
(193,640,cs),
(193,677,o),
(166,705,o),
(131,705,cs),
(96,705,o),
(68,677,o),
(68,640,cs)
);
},
{
closed = 1;
nodes = (
(244,603,o),
(272,576,o),
(307,576,cs),
(342,576,o),
(369,603,o),
(369,640,cs),
(369,677,o),
(342,705,o),
(307,705,cs),
(272,705,o),
(244,677,o),
(244,640,cs)
);
}
);
width = 423;
}
);
note = Edieresis;
unicode = 203;
},
{
glyphname = Igrave;
kernRight = I;
layers = (
{
layerId = m01;
shapes = (
{
closed = 1;
nodes = (
(52,4,o),
(56,0,o),
(65,0,cs),
(156,0,ls),
(165,0,o),
(169,4,o),
(169,13,cs),
(169,455,ls),
(169,529,o),
(138,556,o),
(75,556,cs),
(65,556,ls),
(56,556,o),
(52,552,o),
(52,543,cs),
(52,13,ls)
);
},
{
closed = 1;
nodes = (
(99,601,ls),
(109,592,o),
(121,589,o),
(135,589,cs),
(214,589,ls),
(223,589,o),
(225,599,o),
(220,604,cs),
(128,687,ls),
(118,696,o),
(111,699,o),
(98,699,cs),
(7,699,ls),
(-2,699,o),
(-5,689,o),
(2,683,cs)
);
}
);
width = 219;
}
);
note = Igrave;
unicode = 204;
},
{
glyphname = Iacute;
kernRight = I;
layers = (
{
layerId = m01;
shapes = (
{
closed = 1;
nodes = (
(52,4,o),
(56,0,o),
(65,0,cs),
(156,0,ls),
(165,0,o),
(169,4,o),
(169,13,cs),
(169,455,ls),
(169,529,o),
(138,556,o),
(75,556,cs),
(65,556,ls),
(56,556,o),
(52,552,o),
(52,543,cs),
(52,13,ls)
);
},
{
closed = 1;
nodes = (
(84,589,ls),
(98,589,o),
(110,592,o),
(120,601,cs),
(218,683,ls),
(225,689,o),
(222,699,o),
(213,699,cs),
(121,699,ls),
(108,699,o),
(101,696,o),
(91,687,cs),
(0,604,ls),
(-5,599,o),
(-3,589,o),
(6,589,cs)
);
}
);
width = 219;
}
);
note = Iacute;
unicode = 205;
},
{
glyphname = Icircumflex;
kernRight = I;
layers = (
{
layerId = m01;
shapes = (
{
closed = 1;
nodes = (
(50,4,o),
(54,0,o),
(63,0,cs),
(155,0,ls),
(164,0,o),
(168,4,o),
(168,13,cs),
(168,455,ls),
(168,529,o),
(137,556,o),
(73,556,cs),
(63,556,ls),
(54,556,o),
(50,552,o),
(50,543,cs),
(50,13,ls)
);
},
{
closed = 1;
nodes = (
(157,603,ls),
(165,593,o),
(177,589,o),
(190,589,cs),
(260,589,ls),
(269,589,o),
(270,599,o),
(266,604,cs),
(187,687,ls),
(177,697,o),
(170,699,o),
(157,699,cs),
(62,699,ls),
(49,699,o),
(41,697,o),
(32,687,cs),
(-47,604,ls),
(-52,599,o),
(-50,589,o),
(-41,589,cs),
(28,589,ls),
(42,589,o),
(54,593,o),
(62,603,cs),
(110,659,l)
);
}
);
width = 219;
}
);
note = Icircumflex;
unicode = 206;
},
{
glyphname = Idieresis;
kernRight = I;
layers = (
{
layerId = m01;
shapes = (
{
closed = 1;
nodes = (
(51,4,o),
(55,0,o),
(64,0,cs),
(156,0,ls),
(165,0,o),
(169,4,o),
(169,13,cs),
(169,455,ls),
(169,529,o),
(138,556,o),
(74,556,cs),
(64,556,ls),
(55,556,o),
(51,552,o),
(51,543,cs),
(51,13,ls)
);
},
{
closed = 1;
nodes = (
(-41,603,o),
(-13,576,o),
(23,576,cs),
(57,576,o),
(84,603,o),
(84,640,cs),
(84,677,o),
(57,705,o),
(23,705,cs),
(-13,705,o),
(-41,677,o),
(-41,640,cs)
);
},
{
closed = 1;
nodes = (
(135,603,o),
(163,576,o),
(199,576,cs),
(233,576,o),
(260,603,o),
(260,640,cs),
(260,677,o),
(233,705,o),
(199,705,cs),
(163,705,o),
(135,677,o),
(135,640,cs)
);
}
);
width = 219;
}
);
note = Idieresis;
unicode = 207;
},
{
glyphname = Eth;
layers = (
{
layerId = m01;
shapes = (
{
closed = 1;
nodes = (
(60,13,ls),
(60,4,o),
(64,0,o),
(73,0,cs),
(232,0,ls),
(416,0,o),
(530,85,o),
(530,286,cs),
(530,498,o),
(382,556,o),
(240,556,cs),
(73,556,ls),
(64,556,o),
(60,552,o),
(60,543,cs),
(60,334,l),
(13,334,ls),
(4,334,o),
(0,330,o),
(0,321,cs),
(0,239,ls),
(0,230,o),
(4,226,o),
(13,226,cs),
(60,226,l)
);
},
{
closed = 1;
nodes = (
(177,226,l),
(295,226,ls),
(305,226,o),
(311,233,o),
(311,242,cs),
(311,267,ls),
(311,310,o),
(287,334,o),
(241,334,cs),
(177,334,l),
(177,447,l),
(240,447,ls),
(346,447,o),
(407,402,o),
(407,282,cs),
(407,167,o),
(346,108,o),
(243,108,cs),
(177,108,l)
);
}
);
width = 558;
}
);
note = Eth;
unicode = 208;
},
{
glyphname = Ntilde;
kernRight = N;
layers = (
{
layerId = m01;
shapes = (
{
closed = 1;
nodes = (
(367,13,ls),
(373,3,o),
(379,0,o),
(389,0,cs),
(475,0,ls),
(484,0,o),
(488,4,o),
(488,13,cs),
(488,455,ls),
(488,529,o),
(457,556,o),
(394,556,cs),
(384,556,ls),
(375,556,o),
(371,552,o),
(371,543,cs),
(371,218,l),
(195,504,ls),
(171,543,o),
(148,556,o),
(104,556,cs),
(64,556,ls),
(55,556,o),
(51,552,o),
(51,543,cs),
(51,13,ls),
(51,4,o),
(55,0,o),
(64,0,cs),
(155,0,ls),
(164,0,o),
(168,4,o),
(168,13,cs),
(168,336,l)
);
},
{
closed = 1;
nodes = (
(179,587,ls),
(186,587,o),
(191,591,o),
(192,599,cs),
(194,611,o),
(199,623,o),
(216,623,cs),
(245,623,o),
(292,593,o),
(334,593,cs),
(394,593,o),
(413,625,o),
(420,691,cs),
(421,699,o),
(417,704,o),
(409,704,cs),
(361,704,ls),
(354,704,o),
(349,700,o),
(348,692,cs),
(345,675,o),
(339,668,o),
(326,668,cs),
(291,668,o),
(250,701,o),
(199,701,cs),
(151,701,o),
(125,665,o),
(121,600,cs),
(121,592,o),
(124,587,o),
(131,587,cs)
);
}
);
width = 539;
}
);
note = Ntilde;
unicode = 209;
},
{
glyphname = Ograve;
kernLeft = O;
kernRight = O;
layers = (
{
layerId = m01;
shapes = (
{
closed = 1;
nodes = (
(224,102,o),
(160,147,o),
(160,277,cs),
(160,407,o),
(224,454,o),
(306,454,cs),
(389,454,o),
(452,407,o),
(452,277,cs),
(452,147,o),
(389,102,o),
(306,102,cs)
);
},
{
closed = 1;
nodes = (
(476,-10,o),
(574,100,o),
(574,277,cs),
(574,453,o),
(474,566,o),
(306,566,cs),
(138,566,o),
(39,453,o),
(39,277,cs),
(39,100,o),
(136,-10,o),
(306,-10,cs)
);
},
{
closed = 1;
nodes = (
(285,601,ls),
(295,592,o),
(307,589,o),
(321,589,cs),
(400,589,ls),
(409,589,o),
(411,599,o),
(406,604,cs),
(314,687,ls),
(304,696,o),
(297,699,o),
(284,699,cs),
(193,699,ls),
(184,699,o),
(181,689,o),
(188,683,cs)
);
}
);
width = 612;
}
);
note = Ograve;
unicode = 210;
},
{
glyphname = Oacute;
kernLeft = O;
kernRight = O;
layers = (
{
layerId = m01;
shapes = (
{
closed = 1;
nodes = (
(224,102,o),
(160,147,o),
(160,277,cs),
(160,407,o),
(224,454,o),
(306,454,cs),
(389,454,o),
(452,407,o),
(452,277,cs),
(452,147,o),
(389,102,o),
(306,102,cs)
);
},
{
closed = 1;
nodes = (
(476,-10,o),
(574,100,o),
(574,277,cs),
(574,453,o),
(474,566,o),
(306,566,cs),
(138,566,o),
(39,453,o),
(39,277,cs),
(39,100,o),
(136,-10,o),
(306,-10,cs)
);
},
{
closed = 1;
nodes = (
(290,589,ls),
(304,589,o),
(316,592,o),
(326,601,cs),
(424,683,ls),
(431,689,o),
(428,699,o),
(419,699,cs),
(327,699,ls),
(314,699,o),
(307,696,o),
(297,687,cs),
(206,604,ls),
(201,599,o),
(203,589,o),
(212,589,cs)
);
}
);
width = 612;
}
);
note = Oacute;
unicode = 211;
},
{
glyphname = Ocircumflex;
kernLeft = O;
kernRight = O;
layers = (
{
layerId = m01;
shapes = (
{
closed = 1;
nodes = (
(224,102,o),
(160,147,o),
(160,277,cs),
(160,407,o),
(224,454,o),
(306,454,cs),
(389,454,o),
(452,407,o),
(452,277,cs),
(452,147,o),
(389,102,o),
(306,102,cs)
);
},
{
closed = 1;
nodes = (
(476,-10,o),
(574,100,o),
(574,277,cs),
(574,453,o),
(474,566,o),
(306,566,cs),
(138,566,o),
(39,453,o),
(39,277,cs),
(39,100,o),
(136,-10,o),
(306,-10,cs)
);
},
{
closed = 1;
nodes = (
(354,603,ls),
(362,593,o),
(374,589,o),
(388,589,cs),
(457,589,ls),
(466,589,o),
(467,599,o),
(463,604,cs),
(384,687,ls),
(374,697,o),
(367,699,o),
(354,699,cs),
(260,699,ls),
(247,699,o),
(239,697,o),
(230,687,cs),
(150,604,ls),
(145,599,o),
(147,589,o),
(156,589,cs),
(226,589,ls),
(240,589,o),
(252,593,o),
(260,603,cs),
(307,659,l)
);
}
);
width = 612;
}
);
note = Ocircumflex;
unicode = 212;
},
{
glyphname = Otilde;
kernLeft = O;
kernRight = O;
layers = (
{
layerId = m01;
shapes = (
{
closed = 1;
nodes = (
(224,102,o),
(160,147,o),
(160,277,cs),
(160,407,o),
(224,454,o),
(306,454,cs),
(389,454,o),
(452,407,o),
(452,277,cs),
(452,147,o),
(389,102,o),
(306,102,cs)
);
},
{
closed = 1;
nodes = (
(476,-10,o),
(574,100,o),
(574,277,cs),
(574,453,o),
(474,566,o),
(306,566,cs),
(138,566,o),
(39,453,o),
(39,277,cs),
(39,100,o),
(136,-10,o),
(306,-10,cs)
);
},
{
closed = 1;
nodes = (
(210,587,ls),
(217,587,o),
(222,591,o),
(223,599,cs),
(225,611,o),
(230,623,o),
(247,623,cs),
(276,623,o),
(323,593,o),
(365,593,cs),
(425,593,o),
(443,625,o),
(450,691,cs),
(451,699,o),
(447,704,o),
(440,704,cs),
(392,704,ls),
(385,704,o),
(380,700,o),
(379,692,cs),
(376,675,o),
(370,668,o),
(357,668,cs),
(322,668,o),
(280,701,o),
(230,701,cs),
(182,701,o),
(155,665,o),
(151,600,cs),
(151,592,o),
(154,587,o),
(162,587,cs)
);
}
);
width = 612;
}
);
note = Otilde;
unicode = 213;
},
{
glyphname = Odieresis;
kernLeft = O;
kernRight = O;
layers = (
{
layerId = m01;
shapes = (
{
closed = 1;
nodes = (
(224,102,o),
(160,147,o),
(160,277,cs),
(160,407,o),
(224,454,o),
(306,454,cs),
(389,454,o),
(452,407,o),
(452,277,cs),
(452,147,o),
(389,102,o),
(306,102,cs)
);
},
{
closed = 1;
nodes = (
(476,-10,o),
(574,100,o),
(574,277,cs),
(574,453,o),
(474,566,o),
(306,566,cs),
(138,566,o),
(39,453,o),
(39,277,cs),
(39,100,o),
(136,-10,o),
(306,-10,cs)
);
},
{
closed = 1;
nodes = (
(156,603,o),
(184,576,o),
(220,576,cs),
(255,576,o),
(281,603,o),
(281,640,cs),
(281,677,o),
(255,705,o),
(220,705,cs),
(184,705,o),
(156,677,o),
(156,640,cs)
);
},
{
closed = 1;
nodes = (
(332,603,o),
(360,576,o),
(396,576,cs),
(431,576,o),
(457,603,o),
(457,640,cs),
(457,677,o),
(431,705,o),
(396,705,cs),
(360,705,o),
(332,677,o),
(332,640,cs)
);
}
);
width = 612;
}
);
note = Odieresis;
unicode = 214;
},
{
glyphname = multiply;
layers = (
{
layerId = m01;
shapes = (
{
closed = 1;
nodes = (
(55,175,ls),
(48,168,o),
(48,164,o),
(55,157,cs),
(100,112,ls),
(107,105,o),
(111,105,o),
(118,112,cs),
(216,211,l),
(276,151,ls),
(318,108,o),
(343,101,o),
(389,147,cs),
(396,154,o),
(396,159,o),
(389,166,cs),
(280,274,l),
(379,373,ls),
(385,379,o),
(386,386,o),
(379,392,cs),
(333,436,ls),
(327,442,o),
(321,442,o),
(315,436,cs),
(217,338,l),
(158,397,ls),
(116,439,o),
(90,446,o),
(44,401,cs),
(38,395,o),
(38,389,o),
(44,383,cs),
(153,273,l)
);
}
);
width = 431;
}
);
note = multiply;
unicode = 215;
},
{
glyphname = Oslash;
kernLeft = O;
kernRight = O;
layers = (
{
layerId = m01;
shapes = (
{
closed = 1;
nodes = (
(167,197,o),
(160,233,o),
(160,277,cs),
(160,407,o),
(224,454,o),
(306,454,cs),
(324,454,o),
(341,452,o),
(357,447,c),
(181,171,l)
);
},
{
closed = 1;
nodes = (
(445,356,o),
(452,321,o),
(452,277,cs),
(452,147,o),
(389,102,o),
(306,102,cs),
(289,102,o),
(274,104,o),
(259,108,c),
(433,382,l)
);
},
{
closed = 1;
nodes = (
(476,-10,o),
(574,100,o),
(574,277,cs),
(574,453,o),
(474,566,o),
(306,566,cs),
(138,566,o),
(39,453,o),
(39,277,cs),
(39,100,o),
(136,-10,o),
(306,-10,cs)
);
}
);
width = 612;
}
);
note = Oslash;
unicode = 216;
},
{
glyphname = Ugrave;
kernLeft = U;
kernRight = U;
layers = (
{
layerId = m01;
shapes = (
{
closed = 1;
nodes = (
(456,-10,o),
(482,136,o),
(482,207,cs),
(482,455,ls),
(482,529,o),
(451,556,o),
(388,556,cs),
(378,556,ls),
(369,556,o),
(365,552,o),
(365,543,cs),
(365,230,ls),
(365,152,o),
(337,100,o),
(264,100,cs),
(191,100,o),
(165,152,o),
(165,231,cs),
(165,455,ls),
(165,529,o),
(134,556,o),
(71,556,cs),
(61,556,ls),
(52,556,o),
(48,552,o),
(48,543,cs),
(48,207,ls),
(48,136,o),
(73,-10,o),
(264,-10,cs)
);
},
{
closed = 1;
nodes = (
(235,601,ls),
(245,592,o),
(257,589,o),
(271,589,cs),
(349,589,ls),
(358,589,o),
(360,599,o),
(355,604,cs),
(264,687,ls),
(254,696,o),
(247,699,o),
(234,699,cs),
(142,699,ls),
(133,699,o),
(130,689,o),
(137,683,cs)
);
}
);
width = 530;
}
);
note = Ugrave;
unicode = 217;
},
{
glyphname = Uacute;
kernLeft = U;
kernRight = U;
layers = (
{
layerId = m01;
shapes = (
{
closed = 1;
nodes = (
(456,-10,o),
(482,136,o),
(482,207,cs),
(482,455,ls),
(482,529,o),
(451,556,o),
(388,556,cs),
(378,556,ls),
(369,556,o),
(365,552,o),
(365,543,cs),
(365,230,ls),
(365,152,o),
(337,100,o),
(264,100,cs),
(191,100,o),
(165,152,o),
(165,231,cs),
(165,455,ls),
(165,529,o),
(134,556,o),
(71,556,cs),
(61,556,ls),
(52,556,o),
(48,552,o),
(48,543,cs),
(48,207,ls),
(48,136,o),
(73,-10,o),
(264,-10,cs)
);
},
{
closed = 1;
nodes = (
(240,589,ls),
(254,589,o),
(266,592,o),
(276,601,cs),
(373,683,ls),
(380,689,o),
(377,699,o),
(368,699,cs),
(277,699,ls),
(264,699,o),
(257,696,o),
(247,687,cs),
(155,604,ls),
(150,599,o),
(152,589,o),
(161,589,cs)
);
}
);
width = 530;
}
);
note = Uacute;
unicode = 218;
},
{
glyphname = Ucircumflex;
kernLeft = U;
kernRight = U;
layers = (
{
layerId = m01;
shapes = (
{
closed = 1;
nodes = (
(456,-10,o),
(482,136,o),
(482,207,cs),
(482,455,ls),
(482,529,o),
(451,556,o),
(388,556,cs),
(378,556,ls),
(369,556,o),
(365,552,o),
(365,543,cs),
(365,230,ls),
(365,152,o),
(337,100,o),
(264,100,cs),
(191,100,o),
(165,152,o),
(165,231,cs),
(165,455,ls),
(165,529,o),
(134,556,o),
(71,556,cs),
(61,556,ls),
(52,556,o),
(48,552,o),
(48,543,cs),
(48,207,ls),
(48,136,o),
(73,-10,o),
(264,-10,cs)
);
},
{
closed = 1;
nodes = (
(312,603,ls),
(320,593,o),
(332,589,o),
(346,589,cs),
(416,589,ls),
(425,589,o),
(426,599,o),
(422,604,cs),
(342,687,ls),
(332,697,o),
(325,699,o),
(312,699,cs),
(218,699,ls),
(205,699,o),
(197,697,o),
(188,687,cs),
(109,604,ls),
(104,599,o),
(106,589,o),
(115,589,cs),
(184,589,ls),
(198,589,o),
(210,593,o),
(218,603,cs),
(266,659,l)
);
}
);
width = 530;
}
);
note = Ucircumflex;
unicode = 219;
},
{
glyphname = Udieresis;
kernLeft = U;
kernRight = U;
layers = (
{
layerId = m01;
shapes = (
{
closed = 1;
nodes = (
(456,-10,o),
(482,136,o),
(482,207,cs),
(482,455,ls),
(482,529,o),
(451,556,o),
(388,556,cs),
(378,556,ls),
(369,556,o),
(365,552,o),
(365,543,cs),
(365,230,ls),
(365,152,o),
(337,100,o),
(264,100,cs),
(191,100,o),
(165,152,o),
(165,231,cs),
(165,455,ls),
(165,529,o),
(134,556,o),
(71,556,cs),
(61,556,ls),
(52,556,o),
(48,552,o),
(48,543,cs),
(48,207,ls),
(48,136,o),
(73,-10,o),
(264,-10,cs)
);
},
{
closed = 1;
nodes = (
(110,603,o),
(137,576,o),
(173,576,cs),
(208,576,o),
(235,603,o),
(235,640,cs),
(235,677,o),
(208,705,o),
(173,705,cs),
(137,705,o),
(110,677,o),
(110,640,cs)
);
},
{
closed = 1;
nodes = (
(286,603,o),
(313,576,o),
(349,576,cs),
(384,576,o),
(411,603,o),
(411,640,cs),
(411,677,o),
(384,705,o),
(349,705,cs),
(313,705,o),
(286,677,o),
(286,640,cs)
);
}
);
width = 530;
}
);
note = Udieresis;
unicode = 220;
},
{
glyphname = Yacute;
kernLeft = Y;
kernRight = Y;
layers = (
{
layerId = m01;
shapes = (
{
closed = 1;
nodes = (
(184,13,ls),
(184,4,o),
(188,0,o),
(197,0,cs),
(288,0,ls),
(297,0,o),
(301,4,o),
(301,13,cs),
(301,200,l),
(483,543,ls),
(486,549,o),
(484,556,o),
(475,556,cs),
(379,556,ls),
(370,556,o),
(363,552,o),
(359,543,cs),
(247,322,l),
(160,495,ls),
(137,540,o),
(108,556,o),
(61,556,cs),
(12,556,ls),
(3,556,o),
(1,549,o),
(4,543,cs),
(184,203,l)
);
},
{
closed = 1;
nodes = (
(234,589,ls),
(247,589,o),
(259,592,o),
(269,601,cs),
(367,683,ls),
(374,689,o),
(371,699,o),
(362,699,cs),
(270,699,ls),
(257,699,o),
(250,696,o),
(241,687,cs),
(149,604,ls),
(144,599,o),
(146,589,o),
(155,589,cs)
);
}
);
width = 485;
}
);
note = Yacute;
unicode = 221;
},
{
glyphname = Thorn;
layers = (
{
layerId = m01;
shapes = (
{
closed = 1;
nodes = (
(168,357,l),
(268,357,ls),
(317,357,o),
(352,332,o),
(352,281,cs),
(352,215,o),
(306,202,o),
(268,202,cs),
(168,202,l)
);
},
{
closed = 1;
nodes = (
(274,93,ls),
(395,93,o),
(469,173,o),
(469,282,cs),
(469,391,o),
(408,465,o),
(258,465,cs),
(168,465,l),
(165,531,o),
(134,556,o),
(74,556,cs),
(64,556,ls),
(55,556,o),
(51,552,o),
(51,543,cs),
(51,13,ls),
(51,4,o),
(55,0,o),
(64,0,cs),
(155,0,ls),
(164,0,o),
(168,4,o),
(168,13,cs),
(168,93,l)
);
}
);
width = 494;
}
);
note = Thorn;
unicode = 222;
},
{
glyphname = germandbls;
layers = (
{
layerId = m01;
shapes = (
{
closed = 1;
nodes = (
(198,113,o),
(195,115,o),
(192,115,cs),
(185,115,o),
(179,109,o),
(179,94,cs),
(179,42,o),
(233,-10,o),
(314,-10,cs),
(399,-10,o),
(457,42,o),
(457,119,cs),
(457,247,o),
(321,252,o),
(321,303,cs),
(321,334,o),
(388,394,o),
(388,451,cs),
(388,495,o),
(350,566,o),
(215,566,cs),
(114,566,o),
(41,505,o),
(41,400,cs),
(41,13,ls),
(41,4,o),
(45,0,o),
(54,0,cs),
(142,0,ls),
(151,0,o),
(155,4,o),
(155,13,cs),
(155,398,ls),
(155,443,o),
(177,470,o),
(214,470,cs),
(257,470,o),
(272,444,o),
(272,427,cs),
(272,385,o),
(210,339,o),
(210,285,cs),
(210,184,o),
(342,178,o),
(342,112,cs),
(342,93,o),
(328,79,o),
(295,79,cs),
(260,79,o),
(235,89,o),
(200,112,cs)
);
}
);
width = 477;
}
);
note = germandbls;
unicode = 223;
},
{
glyphname = agrave;
kernLeft = a;
kernRight = a;
layers = (
{
layerId = m01;
shapes = (
{
closed = 1;
nodes = (
(205,98,o),
(147,111,o),
(147,193,cs),
(147,275,o),
(206,283,o),
(232,283,cs),
(259,283,o),
(313,274,o),
(313,193,cs),
(313,111,o),
(258,98,o),
(232,98,cs)
);
},
{
closed = 1;
nodes = (
(313,13,ls),
(313,4,o),
(317,0,o),
(326,0,cs),
(415,0,ls),
(424,0,o),
(428,4,o),
(428,13,cs),
(428,369,ls),
(428,378,o),
(424,382,o),
(415,382,cs),
(410,382,ls),
(368,382,o),
(339,371,o),
(325,343,c),
(302,368,o),
(264,394,o),
(203,394,cs),
(95,394,o),
(29,306,o),
(29,194,cs),
(29,82,o),
(87,-9,o),
(201,-9,cs),
(248,-9,o),
(287,11,o),
(313,43,c)
);
},
{
closed = 1;
nodes = (
(209,442,ls),
(219,433,o),
(231,430,o),
(245,430,cs),
(323,430,ls),
(332,430,o),
(334,440,o),
(329,445,cs),
(238,528,ls),
(228,537,o),
(221,540,o),
(208,540,cs),
(116,540,ls),
(108,540,o),
(105,530,o),
(111,524,cs)
);
}
);
width = 468;
}
);
note = agrave;
unicode = 224;
},
{
glyphname = aacute;
kernLeft = a;
kernRight = a;
layers = (
{
layerId = m01;
shapes = (
{
closed = 1;
nodes = (
(205,98,o),
(147,111,o),
(147,193,cs),
(147,275,o),
(206,283,o),
(232,283,cs),
(259,283,o),
(313,274,o),
(313,193,cs),
(313,111,o),
(258,98,o),
(232,98,cs)
);
},
{
closed = 1;
nodes = (
(313,13,ls),
(313,4,o),
(317,0,o),
(326,0,cs),
(415,0,ls),
(424,0,o),
(428,4,o),
(428,13,cs),
(428,369,ls),
(428,378,o),
(424,382,o),
(415,382,cs),
(410,382,ls),
(368,382,o),
(339,371,o),
(325,343,c),
(302,368,o),
(264,394,o),
(203,394,cs),
(95,394,o),
(29,306,o),
(29,194,cs),
(29,82,o),
(87,-9,o),
(201,-9,cs),
(248,-9,o),
(287,11,o),
(313,43,c)
);
},
{
closed = 1;
nodes = (
(225,430,ls),
(239,430,o),
(251,433,o),
(261,442,cs),
(358,524,ls),
(365,530,o),
(362,540,o),
(353,540,cs),
(262,540,ls),
(249,540,o),
(242,537,o),
(232,528,cs),
(140,445,ls),
(135,440,o),
(137,430,o),
(146,430,cs)
);
}
);
width = 468;
}
);
note = aacute;
unicode = 225;
},
{
glyphname = acircumflex;
kernLeft = a;
kernRight = a;
layers = (
{
layerId = m01;
shapes = (
{
closed = 1;
nodes = (
(205,98,o),
(147,111,o),
(147,193,cs),
(147,275,o),
(206,283,o),
(232,283,cs),
(259,283,o),
(313,274,o),
(313,193,cs),
(313,111,o),
(258,98,o),
(232,98,cs)
);
},
{
closed = 1;
nodes = (
(313,13,ls),
(313,4,o),
(317,0,o),
(326,0,cs),
(415,0,ls),
(424,0,o),
(428,4,o),
(428,13,cs),
(428,369,ls),
(428,378,o),
(424,382,o),
(415,382,cs),
(410,382,ls),
(368,382,o),
(339,371,o),
(325,343,c),
(302,368,o),
(264,394,o),
(203,394,cs),
(95,394,o),
(29,306,o),
(29,194,cs),
(29,82,o),
(87,-9,o),
(201,-9,cs),
(248,-9,o),
(287,11,o),
(313,43,c)
);
},
{
closed = 1;
nodes = (
(283,444,ls),
(291,434,o),
(303,430,o),
(317,430,cs),
(387,430,ls),
(396,430,o),
(397,440,o),
(393,445,cs),
(313,528,ls),
(303,538,o),
(296,540,o),
(283,540,cs),
(189,540,ls),
(176,540,o),
(168,538,o),
(159,528,cs),
(80,445,ls),
(75,440,o),
(77,430,o),
(86,430,cs),
(155,430,ls),
(169,430,o),
(181,434,o),
(189,444,cs),
(237,500,l)
);
}
);
width = 468;
}
);
note = acircumflex;
unicode = 226;
},
{
glyphname = atilde;
kernLeft = a;
kernRight = a;
layers = (
{
layerId = m01;
shapes = (
{
closed = 1;
nodes = (
(205,98,o),
(147,111,o),
(147,193,cs),
(147,275,o),
(206,283,o),
(232,283,cs),
(259,283,o),
(313,274,o),
(313,193,cs),
(313,111,o),
(258,98,o),
(232,98,cs)
);
},
{
closed = 1;
nodes = (
(313,13,ls),
(313,4,o),
(317,0,o),
(326,0,cs),
(415,0,ls),
(424,0,o),
(428,4,o),
(428,13,cs),
(428,369,ls),
(428,378,o),
(424,382,o),
(415,382,cs),
(410,382,ls),
(368,382,o),
(339,371,o),
(325,343,c),
(302,368,o),
(264,394,o),
(203,394,cs),
(95,394,o),
(29,306,o),
(29,194,cs),
(29,82,o),
(87,-9,o),
(201,-9,cs),
(248,-9,o),
(287,11,o),
(313,43,c)
);
},
{
closed = 1;
nodes = (
(147,428,ls),
(154,428,o),
(159,432,o),
(160,440,cs),
(162,452,o),
(167,464,o),
(184,464,cs),
(213,464,o),
(261,434,o),
(302,434,cs),
(362,434,o),
(381,466,o),
(388,532,cs),
(389,540,o),
(385,545,o),
(377,545,cs),
(329,545,ls),
(322,545,o),
(317,541,o),
(316,533,cs),
(313,516,o),
(307,509,o),
(294,509,cs),
(260,509,o),
(218,542,o),
(167,542,cs),
(119,542,o),
(93,506,o),
(89,441,cs),
(89,433,o),
(92,428,o),
(100,428,cs)
);
}
);
width = 468;
}
);
note = atilde;
unicode = 227;
},
{
glyphname = adieresis;
kernLeft = a;
kernRight = a;
layers = (
{
layerId = m01;
shapes = (
{
closed = 1;
nodes = (
(205,98,o),
(147,111,o),
(147,193,cs),
(147,275,o),
(206,283,o),
(232,283,cs),
(259,283,o),
(313,274,o),
(313,193,cs),
(313,111,o),
(258,98,o),
(232,98,cs)
);
},
{
closed = 1;
nodes = (
(313,13,ls),
(313,4,o),
(317,0,o),
(326,0,cs),
(415,0,ls),
(424,0,o),
(428,4,o),
(428,13,cs),
(428,369,ls),
(428,378,o),
(424,382,o),
(415,382,cs),
(410,382,ls),
(368,382,o),
(339,371,o),
(325,343,c),
(302,368,o),
(264,394,o),
(203,394,cs),
(95,394,o),
(29,306,o),
(29,194,cs),
(29,82,o),
(87,-9,o),
(201,-9,cs),
(248,-9,o),
(287,11,o),
(313,43,c)
);
},
{
closed = 1;
nodes = (
(80,444,o),
(108,417,o),
(143,417,cs),
(178,417,o),
(205,444,o),
(205,481,cs),
(205,518,o),
(178,546,o),
(143,546,cs),
(108,546,o),
(80,518,o),
(80,481,cs)
);
},
{
closed = 1;
nodes = (
(256,444,o),
(283,417,o),
(319,417,cs),
(354,417,o),
(381,444,o),
(381,481,cs),
(381,518,o),
(354,546,o),
(319,546,cs),
(283,546,o),
(256,518,o),
(256,481,cs)
);
}
);
width = 468;
}
);
note = adieresis;
unicode = 228;
},
{
glyphname = aring;
kernLeft = a;
kernRight = a;
layers = (
{
layerId = m01;
shapes = (
{
closed = 1;
nodes = (
(205,98,o),
(147,111,o),
(147,193,cs),
(147,275,o),
(206,283,o),
(232,283,cs),
(259,283,o),
(313,274,o),
(313,193,cs),
(313,111,o),
(258,98,o),
(232,98,cs)
);
},
{
closed = 1;
nodes = (
(313,13,ls),
(313,4,o),
(317,0,o),
(326,0,cs),
(415,0,ls),
(424,0,o),
(428,4,o),
(428,13,cs),
(428,369,ls),
(428,378,o),
(424,382,o),
(415,382,cs),
(410,382,ls),
(368,382,o),
(339,371,o),
(325,343,c),
(302,368,o),
(264,394,o),
(203,394,cs),
(95,394,o),
(29,306,o),
(29,194,cs),
(29,82,o),
(87,-9,o),
(201,-9,cs),
(248,-9,o),
(287,11,o),
(313,43,c)
);
},
{
closed = 1;
nodes = (
(147,453,o),
(184,417,o),
(229,417,cs),
(273,417,o),
(309,453,o),
(309,498,cs),
(309,543,o),
(273,578,o),
(229,578,cs),
(184,578,o),
(147,543,o),
(147,498,cs)
);
},
{
closed = 1;
nodes = (
(210,464,o),
(196,479,o),
(196,498,cs),
(196,517,o),
(210,532,o),
(229,532,cs),
(248,532,o),
(262,517,o),
(262,498,cs),
(262,479,o),
(248,464,o),
(229,464,cs)
);
}
);
width = 468;
}
);
note = aring;
unicode = 229;
},
{
glyphname = ae;
kernLeft = a;
kernRight = e;
layers = (
{
layerId = m01;
shapes = (
{
closed = 1;
nodes = (
(457,10,o),
(507,-9,o),
(568,-9,cs),
(689,-9,o),
(726,60,o),
(726,101,cs),
(726,110,o),
(722,116,o),
(714,116,cs),
(710,116,o),
(704,114,o),
(697,111,cs),
(658,94,o),
(629,87,o),
(584,87,cs),
(527,87,o),
(493,109,o),
(485,152,c),
(713,152,ls),
(725,152,o),
(731,157,o),
(732,167,cs),
(733,179,o),
(734,196,o),
(734,221,cs),
(734,308,o),
(680,394,o),
(559,394,cs),
(500,394,o),
(455,374,o),
(424,341,c),
(424,369,ls),
(424,378,o),
(420,382,o),
(411,382,cs),
(410,382,ls),
(367,382,o),
(340,370,o),
(326,341,c),
(303,367,o),
(266,394,o),
(203,394,cs),
(95,394,o),
(29,306,o),
(29,194,cs),
(29,82,o),
(87,-9,o),
(201,-9,cs),
(248,-9,o),
(290,11,o),
(316,43,c),
(316,13,ls),
(316,4,o),
(320,0,o),
(329,0,cs),
(411,0,ls),
(420,0,o),
(424,4,o),
(424,13,cs),
(424,45,l)
);
},
{
closed = 1;
nodes = (
(205,98,o),
(147,111,o),
(147,193,cs),
(147,275,o),
(206,283,o),
(232,283,cs),
(259,283,o),
(313,274,o),
(313,193,cs),
(313,111,o),
(258,98,o),
(232,98,cs)
);
},
{
closed = 1;
nodes = (
(488,271,o),
(513,296,o),
(559,296,cs),
(610,296,o),
(624,256,o),
(620,232,c),
(486,232,l)
);
}
);
width = 760;
}
);
note = ae;
unicode = 230;
},
{
glyphname = ccedilla;
kernLeft = c;
kernRight = c;
layers = (
{
layerId = m01;
shapes = (
{
closed = 1;
nodes = (
(332,12,o),
(352,70,o),
(352,104,cs),
(352,113,o),
(349,120,o),
(341,120,cs),
(338,120,o),
(333,118,o),
(327,114,cs),
(312,105,o),
(283,88,o),
(245,88,cs),
(178,88,o),
(147,128,o),
(147,189,cs),
(147,256,o),
(187,285,o),
(232,285,cs),
(263,285,o),
(281,279,o),
(312,264,cs),
(316,262,o),
(320,261,o),
(323,261,cs),
(328,261,o),
(330,264,o),
(332,271,cs),
(338,296,ls),
(349,342,o),
(339,367,o),
(299,381,cs),
(276,389,o),
(252,393,o),
(225,393,cs),
(107,393,o),
(29,319,o),
(29,192,cs),
(29,83,o),
(82,14,o),
(165,-5,c),
(102,-104,ls),
(98,-111,o),
(99,-119,o),
(108,-119,cs),
(181,-119,ls),
(195,-119,o),
(206,-115,o),
(212,-102,cs),
(259,-5,l)
);
}
);
width = 368;
}
);
note = ccedilla;
unicode = 231;
},
{
glyphname = egrave;
kernLeft = e;
kernRight = e;
layers = (
{
layerId = m01;
shapes = (
{
closed = 1;
nodes = (
(150,270,o),
(175,295,o),
(221,295,cs),
(272,295,o),
(286,255,o),
(282,231,c),
(148,231,l)
);
},
{
closed = 1;
nodes = (
(375,151,ls),
(387,151,o),
(393,156,o),
(394,166,cs),
(395,178,o),
(396,195,o),
(396,220,cs),
(396,307,o),
(342,393,o),
(221,393,cs),
(100,393,o),
(29,308,o),
(29,193,cs),
(29,68,o),
(109,-10,o),
(230,-10,cs),
(351,-10,o),
(388,59,o),
(388,100,cs),
(388,109,o),
(384,115,o),
(376,115,cs),
(372,115,o),
(366,113,o),
(359,110,cs),
(320,93,o),
(291,86,o),
(246,86,cs),
(189,86,o),
(155,108,o),
(147,151,c)
);
},
{
closed = 1;
nodes = (
(180,442,ls),
(190,433,o),
(202,430,o),
(216,430,cs),
(294,430,ls),
(303,430,o),
(305,440,o),
(300,445,cs),
(209,528,ls),
(199,537,o),
(192,540,o),
(179,540,cs),
(88,540,ls),
(79,540,o),
(76,530,o),
(83,524,cs)
);
}
);
width = 422;
}
);
note = egrave;
unicode = 232;
},
{
glyphname = eacute;
kernLeft = e;
kernRight = e;
layers = (
{
layerId = m01;
shapes = (
{
closed = 1;
nodes = (
(150,270,o),
(175,295,o),
(221,295,cs),
(272,295,o),
(286,255,o),
(282,231,c),
(148,231,l)
);
},
{
closed = 1;
nodes = (
(375,151,ls),
(387,151,o),
(393,156,o),
(394,166,cs),
(395,178,o),
(396,195,o),
(396,220,cs),
(396,307,o),
(342,393,o),
(221,393,cs),
(100,393,o),
(29,308,o),
(29,193,cs),
(29,68,o),
(109,-10,o),
(230,-10,cs),
(351,-10,o),
(388,59,o),
(388,100,cs),
(388,109,o),
(384,115,o),
(376,115,cs),
(372,115,o),
(366,113,o),
(359,110,cs),
(320,93,o),
(291,86,o),
(246,86,cs),
(189,86,o),
(155,108,o),
(147,151,c)
);
},
{
closed = 1;
nodes = (
(195,430,ls),
(209,430,o),
(221,433,o),
(231,442,cs),
(328,524,ls),
(335,530,o),
(332,540,o),
(323,540,cs),
(232,540,ls),
(219,540,o),
(212,537,o),
(202,528,cs),
(110,445,l),
(106,440,o),
(108,430,o),
(116,430,cs)
);
}
);
width = 422;
}
);
note = eacute;
unicode = 233;
},
{
glyphname = ecircumflex;
kernLeft = e;
kernRight = e;
layers = (
{
layerId = m01;
shapes = (
{
closed = 1;
nodes = (
(150,270,o),
(175,295,o),
(221,295,cs),
(272,295,o),
(286,255,o),
(282,231,c),
(148,231,l)
);
},
{
closed = 1;
nodes = (
(375,151,ls),
(387,151,o),
(393,156,o),
(394,166,cs),
(395,178,o),
(396,195,o),
(396,220,cs),
(396,307,o),
(342,393,o),
(221,393,cs),
(100,393,o),
(29,308,o),
(29,193,cs),
(29,68,o),
(109,-10,o),
(230,-10,cs),
(351,-10,o),
(388,59,o),
(388,100,cs),
(388,109,o),
(384,115,o),
(376,115,cs),
(372,115,o),
(366,113,o),
(359,110,cs),
(320,93,o),
(291,86,o),
(246,86,cs),
(189,86,o),
(155,108,o),
(147,151,c)
);
},
{
closed = 1;
nodes = (
(266,444,l),
(273,434,o),
(285,430,o),
(299,430,cs),
(369,430,ls),
(378,430,o),
(379,440,o),
(375,445,cs),
(295,528,ls),
(285,538,o),
(278,540,o),
(266,540,cs),
(171,540,ls),
(158,540,o),
(150,538,o),
(141,528,cs),
(62,445,ls),
(57,440,o),
(59,430,o),
(68,430,cs),
(137,430,ls),
(151,430,o),
(163,434,o),
(171,444,cs),
(219,500,l)
);
}
);
width = 422;
}
);
note = ecircumflex;
unicode = 234;
},
{
glyphname = edieresis;
kernLeft = e;
kernRight = e;
layers = (
{
layerId = m01;
shapes = (
{
closed = 1;
nodes = (
(150,270,o),
(175,295,o),
(221,295,cs),
(272,295,o),
(286,255,o),
(282,231,c),
(148,231,l)
);
},
{
closed = 1;
nodes = (
(375,151,ls),
(387,151,o),
(393,156,o),
(394,166,cs),
(395,178,o),
(396,195,o),
(396,220,cs),
(396,307,o),
(342,393,o),
(221,393,cs),
(100,393,o),
(29,308,o),
(29,193,cs),
(29,68,o),
(109,-10,o),
(230,-10,cs),
(351,-10,o),
(388,59,o),
(388,100,cs),
(388,109,o),
(384,115,o),
(376,115,cs),
(372,115,o),
(366,113,o),
(359,110,cs),
(320,93,o),
(291,86,o),
(246,86,cs),
(189,86,o),
(155,108,o),
(147,151,c)
);
},
{
closed = 1;
nodes = (
(69,444,o),
(97,417,o),
(132,417,cs),
(167,417,o),
(194,444,o),
(194,481,cs),
(194,518,o),
(167,546,o),
(132,546,cs),
(97,546,o),
(69,518,o),
(69,481,cs)
);
},
{
closed = 1;
nodes = (
(245,444,o),
(272,417,o),
(308,417,cs),
(343,417,o),
(370,444,o),
(370,481,cs),
(370,518,o),
(343,546,o),
(308,546,cs),
(272,546,o),
(245,518,o),
(245,481,cs)
);
}
);
width = 422;
}
);
note = edieresis;
unicode = 235;
},
{
glyphname = igrave;
kernLeft = i;
kernRight = i;
layers = (
{
layerId = m01;
shapes = (
{
closed = 1;
nodes = (
(42,4,o),
(46,0,o),
(55,0,cs),
(143,0,ls),
(152,0,o),
(156,4,o),
(156,13,cs),
(156,284,ls),
(156,356,o),
(123,382,o),
(60,382,cs),
(55,382,ls),
(46,382,o),
(42,378,o),
(42,369,cs),
(42,13,ls)
);
},
{
closed = 1;
nodes = (
(87,442,ls),
(97,433,o),
(109,430,o),
(123,430,cs),
(202,430,ls),
(211,430,o),
(213,440,o),
(208,445,cs),
(116,528,ls),
(106,537,o),
(99,540,o),
(86,540,cs),
(-5,540,ls),
(-14,540,o),
(-17,530,o),
(-10,524,cs)
);
}
);
width = 196;
}
);
note = igrave;
unicode = 236;
},
{
glyphname = iacute;
kernLeft = i;
kernRight = i;
layers = (
{
layerId = m01;
shapes = (
{
closed = 1;
nodes = (
(42,4,o),
(46,0,o),
(55,0,cs),
(143,0,ls),
(152,0,o),
(156,4,o),
(156,13,cs),
(156,284,ls),
(156,356,o),
(123,382,o),
(60,382,cs),
(55,382,ls),
(46,382,o),
(42,378,o),
(42,369,cs),
(42,13,ls)
);
},
{
closed = 1;
nodes = (
(72,430,ls),
(86,430,o),
(98,433,o),
(108,442,cs),
(206,524,ls),
(213,530,o),
(210,540,o),
(201,540,cs),
(109,540,ls),
(96,540,o),
(89,537,o),
(79,528,cs),
(-12,445,ls),
(-17,440,o),
(-15,430,o),
(-6,430,cs)
);
}
);
width = 196;
}
);
note = iacute;
unicode = 237;
},
{
glyphname = icircumflex;
kernLeft = i;
kernRight = i;
layers = (
{
layerId = m01;
shapes = (
{
closed = 1;
nodes = (
(41,4,o),
(45,0,o),
(54,0,cs),
(143,0,ls),
(152,0,o),
(156,4,o),
(156,13,cs),
(156,284,ls),
(156,356,o),
(123,382,o),
(59,382,cs),
(54,382,ls),
(45,382,o),
(41,378,o),
(41,369,cs),
(41,13,ls)
);
},
{
closed = 1;
nodes = (
(146,444,ls),
(154,434,o),
(166,430,o),
(179,430,cs),
(249,430,ls),
(258,430,o),
(259,440,o),
(255,445,cs),
(176,528,ls),
(166,538,o),
(159,540,o),
(146,540,cs),
(51,540,ls),
(38,540,o),
(30,538,o),
(21,528,cs),
(-58,445,ls),
(-63,440,o),
(-61,430,o),
(-52,430,cs),
(17,430,ls),
(31,430,o),
(43,434,o),
(51,444,cs),
(99,500,l)
);
}
);
width = 196;
}
);
note = icircumflex;
unicode = 238;
},
{
glyphname = idieresis;
kernLeft = i;
kernRight = i;
layers = (
{
layerId = m01;
shapes = (
{
closed = 1;
nodes = (
(40,4,o),
(44,0,o),
(53,0,cs),
(142,0,ls),
(151,0,o),
(155,4,o),
(155,13,cs),
(155,284,ls),
(155,356,o),
(122,382,o),
(58,382,cs),
(53,382,ls),
(44,382,o),
(40,378,o),
(40,369,cs),
(40,13,ls)
);
},
{
closed = 1;
nodes = (
(-53,444,o),
(-25,417,o),
(11,417,cs),
(45,417,o),
(72,444,o),
(72,481,cs),
(72,518,o),
(45,546,o),
(11,546,cs),
(-25,546,o),
(-53,518,o),
(-53,481,cs)
);
},
{
closed = 1;
nodes = (
(123,444,o),
(151,417,o),
(187,417,cs),
(221,417,o),
(248,444,o),
(248,481,cs),
(248,518,o),
(221,546,o),
(187,546,cs),
(151,546,o),
(123,518,o),
(123,481,cs)
);
}
);
width = 196;
}
);
note = idieresis;
unicode = 239;
},
{
glyphname = eth;
layers = (
{
layerId = m01;
shapes = (
{
closed = 1;
nodes = (
(104,382,o),
(29,305,o),
(29,187,cs),
(29,69,o),
(106,-10,o),
(225,-10,cs),
(350,-10,o),
(420,73,o),
(420,196,cs),
(420,249,o),
(406,293,o),
(377,335,cs),
(280,476,l),
(328,500,ls),
(335,503,o),
(335,509,o),
(331,515,cs),
(315,539,ls),
(311,545,o),
(305,548,o),
(298,544,cs),
(250,519,l),
(223,552,o),
(203,556,o),
(150,556,cs),
(117,556,ls),
(110,556,o),
(108,549,o),
(111,543,c),
(159,472,l),
(106,444,ls),
(99,440,o),
(97,436,o),
(102,429,cs),
(117,405,ls),
(121,400,o),
(127,397,o),
(134,401,cs),
(189,428,l),
(222,382,l)
);
},
{
closed = 1;
nodes = (
(183,95,o),
(145,116,o),
(145,185,cs),
(145,252,o),
(183,276,o),
(224,276,cs),
(266,276,o),
(303,252,o),
(303,185,cs),
(303,116,o),
(264,95,o),
(223,95,cs)
);
}
);
width = 448;
}
);
note = eth;
unicode = 240;
},
{
glyphname = ntilde;
kernLeft = n;
kernRight = n;
layers = (
{
layerId = m01;
shapes = (
{
closed = 1;
nodes = (
(134,369,o),
(105,382,o),
(59,382,cs),
(54,382,ls),
(45,382,o),
(41,378,o),
(41,369,cs),
(41,13,ls),
(41,4,o),
(45,0,o),
(54,0,cs),
(142,0,ls),
(151,0,o),
(155,4,o),
(155,13,cs),
(155,206,ls),
(155,266,o),
(188,285,o),
(224,285,cs),
(260,285,o),
(294,266,o),
(294,205,cs),
(294,13,ls),
(294,4,o),
(298,0,o),
(307,0,cs),
(396,0,ls),
(405,0,o),
(409,4,o),
(409,13,cs),
(409,217,ls),
(409,336,o),
(350,391,o),
(256,391,cs),
(214,391,o),
(174,371,o),
(147,335,c)
);
},
{
closed = 1;
nodes = (
(133,428,ls),
(140,428,o),
(145,432,o),
(146,440,cs),
(148,452,o),
(153,464,o),
(170,464,cs),
(199,464,o),
(247,434,o),
(288,434,cs),
(348,434,o),
(367,466,o),
(374,532,cs),
(375,540,o),
(371,545,o),
(363,545,cs),
(315,545,ls),
(308,545,o),
(303,541,o),
(302,533,cs),
(299,516,o),
(293,509,o),
(281,509,cs),
(246,509,o),
(204,542,o),
(153,542,cs),
(106,542,o),
(79,506,o),
(75,441,cs),
(75,433,o),
(78,428,o),
(86,428,cs)
);
}
);
width = 447;
}
);
note = ntilde;
unicode = 241;
},
{
glyphname = ograve;
kernLeft = o;
kernRight = o;
layers = (
{
layerId = m01;
shapes = (
{
closed = 1;
nodes = (
(186,98,o),
(147,119,o),
(147,190,cs),
(147,259,o),
(186,284,o),
(228,284,cs),
(269,284,o),
(308,259,o),
(308,190,cs),
(308,119,o),
(268,98,o),
(227,98,cs)
);
},
{
closed = 1;
nodes = (
(351,-10,o),
(427,71,o),
(427,192,cs),
(427,313,o),
(349,393,o),
(227,393,cs),
(105,393,o),
(29,313,o),
(29,192,cs),
(29,71,o),
(107,-10,o),
(229,-10,cs)
);
},
{
closed = 1;
nodes = (
(206,442,ls),
(216,433,o),
(228,430,o),
(242,430,cs),
(320,430,ls),
(329,430,o),
(331,440,o),
(326,445,cs),
(235,528,ls),
(225,537,o),
(218,540,o),
(205,540,cs),
(113,540,ls),
(105,540,o),
(102,530,o),
(109,524,cs)
);
}
);
width = 455;
}
);
note = ograve;
unicode = 242;
},
{
glyphname = oacute;
kernLeft = o;
kernRight = o;
layers = (
{
layerId = m01;
shapes = (
{
closed = 1;
nodes = (
(186,98,o),
(147,119,o),
(147,190,cs),
(147,259,o),
(186,284,o),
(228,284,cs),
(269,284,o),
(308,259,o),
(308,190,cs),
(308,119,o),
(268,98,o),
(227,98,cs)
);
},
{
closed = 1;
nodes = (
(351,-10,o),
(427,71,o),
(427,192,cs),
(427,313,o),
(349,393,o),
(227,393,cs),
(105,393,o),
(29,313,o),
(29,192,cs),
(29,71,o),
(107,-10,o),
(229,-10,cs)
);
},
{
closed = 1;
nodes = (
(212,430,ls),
(226,430,o),
(238,433,o),
(248,442,cs),
(345,524,ls),
(352,530,o),
(349,540,o),
(340,540,cs),
(249,540,ls),
(236,540,o),
(229,537,o),
(219,528,cs),
(127,445,ls),
(122,440,o),
(124,430,o),
(133,430,cs)
);
}
);
width = 455;
}
);
note = oacute;
unicode = 243;
},
{
glyphname = ocircumflex;
kernLeft = o;
kernRight = o;
layers = (
{
layerId = m01;
shapes = (
{
closed = 1;
nodes = (
(186,98,o),
(147,119,o),
(147,190,cs),
(147,259,o),
(186,284,o),
(228,284,cs),
(269,284,o),
(308,259,o),
(308,190,cs),
(308,119,o),
(268,98,o),
(227,98,cs)
);
},
{
closed = 1;
nodes = (
(351,-10,o),
(427,71,o),
(427,192,cs),
(427,313,o),
(349,393,o),
(227,393,cs),
(105,393,o),
(29,313,o),
(29,192,cs),
(29,71,o),
(107,-10,o),
(229,-10,cs)
);
},
{
closed = 1;
nodes = (
(275,444,ls),
(283,434,o),
(295,430,o),
(309,430,cs),
(379,430,ls),
(388,430,o),
(389,440,o),
(385,445,cs),
(305,528,ls),
(295,538,o),
(288,540,o),
(275,540,cs),
(181,540,ls),
(168,540,o),
(160,538,o),
(151,528,cs),
(72,445,ls),
(67,440,o),
(69,430,o),
(78,430,cs),
(147,430,ls),
(161,430,o),
(173,434,o),
(181,444,cs),
(229,500,l)
);
}
);
width = 455;
}
);
note = ocircumflex;
unicode = 244;
},
{
glyphname = otilde;
kernLeft = o;
kernRight = o;
layers = (
{
layerId = m01;
shapes = (
{
closed = 1;
nodes = (
(186,98,o),
(147,119,o),
(147,190,cs),
(147,259,o),
(186,284,o),
(228,284,cs),
(269,284,o),
(308,259,o),
(308,190,cs),
(308,119,o),
(268,98,o),
(227,98,cs)
);
},
{
closed = 1;
nodes = (
(351,-10,o),
(427,71,o),
(427,192,cs),
(427,313,o),
(349,393,o),
(227,393,cs),
(105,393,o),
(29,313,o),
(29,192,cs),
(29,71,o),
(107,-10,o),
(229,-10,cs)
);
},
{
closed = 1;
nodes = (
(130,428,ls),
(137,428,o),
(142,432,o),
(143,440,cs),
(145,452,o),
(150,464,o),
(167,464,cs),
(196,464,o),
(244,434,o),
(285,434,cs),
(345,434,o),
(364,466,o),
(371,532,cs),
(372,540,o),
(368,545,o),
(360,545,cs),
(312,545,ls),
(305,545,o),
(300,541,o),
(299,533,cs),
(296,516,o),
(290,509,o),
(277,509,cs),
(243,509,o),
(201,542,o),
(150,542,cs),
(103,542,o),
(76,506,o),
(72,441,cs),
(72,433,o),
(75,428,o),
(83,428,cs)
);
}
);
width = 455;
}
);
note = otilde;
unicode = 245;
},
{
glyphname = odieresis;
kernLeft = o;
kernRight = o;
layers = (
{
layerId = m01;
shapes = (
{
closed = 1;
nodes = (
(186,98,o),
(147,119,o),
(147,190,cs),
(147,259,o),
(186,284,o),
(228,284,cs),
(269,284,o),
(308,259,o),
(308,190,cs),
(308,119,o),
(268,98,o),
(227,98,cs)
);
},
{
closed = 1;
nodes = (
(351,-10,o),
(427,71,o),
(427,192,cs),
(427,313,o),
(349,393,o),
(227,393,cs),
(105,393,o),
(29,313,o),
(29,192,cs),
(29,71,o),
(107,-10,o),
(229,-10,cs)
);
},
{
closed = 1;
nodes = (
(78,444,o),
(106,417,o),
(141,417,cs),
(176,417,o),
(203,444,o),
(203,481,cs),
(203,518,o),
(176,546,o),
(141,546,cs),
(106,546,o),
(78,518,o),
(78,481,cs)
);
},
{
closed = 1;
nodes = (
(254,444,o),
(281,417,o),
(317,417,cs),
(352,417,o),
(379,444,o),
(379,481,cs),
(379,518,o),
(352,546,o),
(317,546,cs),
(281,546,o),
(254,518,o),
(254,481,cs)
);
}
);
width = 455;
}
);
note = odieresis;
unicode = 246;
},
{
glyphname = divide;
layers = (
{
layerId = m01;
shapes = (
{
closed = 1;
nodes = (
(152,385,o),
(180,358,o),
(216,358,cs),
(251,358,o),
(277,385,o),
(277,421,cs),
(277,458,o),
(251,486,o),
(216,486,cs),
(180,486,o),
(152,458,o),
(152,421,cs)
);
},
{
closed = 1;
nodes = (
(152,81,o),
(180,55,o),
(216,55,cs),
(251,55,o),
(277,81,o),
(277,118,cs),
(277,155,o),
(251,183,o),
(216,183,cs),
(180,183,o),
(152,155,o),
(152,118,cs)
);
},
{
closed = 1;
nodes = (
(30,227,o),
(34,223,o),
(43,223,cs),
(389,223,ls),
(398,223,o),
(402,227,o),
(402,236,cs),
(402,251,ls),
(402,294,o),
(378,318,o),
(332,318,cs),
(43,318,ls),
(34,318,o),
(30,314,o),
(30,305,cs),
(30,236,ls)
);
}
);
width = 431;
}
);
note = divide;
unicode = 247;
},
{
glyphname = oslash;
kernLeft = o;
kernRight = o;
layers = (
{
layerId = m01;
shapes = (
{
closed = 1;
nodes = (
(150,154,o),
(147,170,o),
(147,190,cs),
(147,259,o),
(186,284,o),
(228,284,cs),
(234,284,o),
(240,283,o),
(246,282,c),
(155,141,l)
);
},
{
closed = 1;
nodes = (
(305,225,o),
(308,209,o),
(308,190,cs),
(308,119,o),
(268,98,o),
(227,98,cs),
(222,98,o),
(217,98,o),
(212,99,c),
(300,238,l)
);
},
{
closed = 1;
nodes = (
(351,-10,o),
(427,71,o),
(427,192,cs),
(427,313,o),
(349,393,o),
(227,393,cs),
(105,393,o),
(29,313,o),
(29,192,cs),
(29,71,o),
(107,-10,o),
(229,-10,cs)
);
}
);
width = 455;
}
);
note = oslash;
unicode = 248;
},
{
glyphname = ugrave;
kernLeft = u;
kernRight = u;
layers = (
{
layerId = m01;
shapes = (
{
closed = 1;
nodes = (
(355,-10,o),
(408,66,o),
(408,185,cs),
(408,284,ls),
(408,356,o),
(375,382,o),
(311,382,cs),
(306,382,ls),
(297,382,o),
(293,378,o),
(293,369,cs),
(293,175,ls),
(293,115,o),
(259,96,o),
(223,96,cs),
(187,96,o),
(154,115,o),
(154,176,cs),
(154,284,ls),
(154,356,o),
(121,382,o),
(58,382,cs),
(53,382,ls),
(44,382,o),
(40,378,o),
(40,369,cs),
(40,192,ls),
(40,73,o),
(91,-10,o),
(223,-10,cs)
);
},
{
closed = 1;
nodes = (
(191,442,ls),
(201,433,o),
(213,430,o),
(227,430,cs),
(305,430,ls),
(314,430,o),
(316,440,o),
(311,445,cs),
(220,528,ls),
(210,537,o),
(203,540,o),
(190,540,cs),
(99,540,ls),
(90,540,o),
(87,530,o),
(94,524,cs)
);
}
);
width = 447;
}
);
note = ugrave;
unicode = 249;
},
{
glyphname = uacute;
kernLeft = u;
kernRight = u;
layers = (
{
layerId = m01;
shapes = (
{
closed = 1;
nodes = (
(355,-10,o),
(408,66,o),
(408,185,cs),
(408,284,ls),
(408,356,o),
(375,382,o),
(311,382,cs),
(306,382,ls),
(297,382,o),
(293,378,o),
(293,369,cs),
(293,175,ls),
(293,115,o),
(259,96,o),
(223,96,cs),
(187,96,o),
(154,115,o),
(154,176,cs),
(154,284,ls),
(154,356,o),
(121,382,o),
(58,382,cs),
(53,382,ls),
(44,382,o),
(40,378,o),
(40,369,cs),
(40,192,ls),
(40,73,o),
(91,-10,o),
(223,-10,cs)
);
},
{
closed = 1;
nodes = (
(198,430,ls),
(212,430,o),
(224,433,o),
(234,442,cs),
(331,524,ls),
(338,530,o),
(335,540,o),
(326,540,cs),
(235,540,ls),
(222,540,o),
(215,537,o),
(205,528,cs),
(114,445,ls),
(109,440,o),
(111,430,o),
(120,430,cs)
);
}
);
width = 447;
}
);
note = uacute;
unicode = 250;
},
{
glyphname = ucircumflex;
kernLeft = u;
kernRight = u;
layers = (
{
layerId = m01;
shapes = (
{
closed = 1;
nodes = (
(355,-10,o),
(408,66,o),
(408,185,cs),
(408,284,ls),
(408,356,o),
(375,382,o),
(311,382,cs),
(306,382,ls),
(297,382,o),
(293,378,o),
(293,369,cs),
(293,175,ls),
(293,115,o),
(259,96,o),
(223,96,cs),
(187,96,o),
(154,115,o),
(154,176,cs),
(154,284,ls),
(154,356,o),
(121,382,o),
(58,382,cs),
(53,382,ls),
(44,382,o),
(40,378,o),
(40,369,cs),
(40,192,ls),
(40,73,o),
(91,-10,o),
(223,-10,cs)
);
},
{
closed = 1;
nodes = (
(268,444,ls),
(276,434,o),
(287,430,o),
(301,430,cs),
(371,430,ls),
(380,430,o),
(381,440,o),
(377,445,cs),
(297,528,ls),
(287,538,o),
(280,540,o),
(268,540,cs),
(173,540,ls),
(160,540,o),
(152,538,o),
(143,528,cs),
(64,445,ls),
(59,440,o),
(61,430,o),
(70,430,cs),
(139,430,ls),
(153,430,o),
(165,434,o),
(173,444,cs),
(221,500,l)
);
}
);
width = 447;
}
);
note = ucircumflex;
unicode = 251;
},
{
glyphname = udieresis;
kernLeft = u;
kernRight = u;
layers = (
{
layerId = m01;
shapes = (
{
closed = 1;
nodes = (
(355,-10,o),
(408,66,o),
(408,185,cs),
(408,284,ls),
(408,356,o),
(375,382,o),
(311,382,cs),
(306,382,ls),
(297,382,o),
(293,378,o),
(293,369,cs),
(293,175,ls),
(293,115,o),
(259,96,o),
(223,96,cs),
(187,96,o),
(154,115,o),
(154,176,cs),
(154,284,ls),
(154,356,o),
(121,382,o),
(58,382,cs),
(53,382,ls),
(44,382,o),
(40,378,o),
(40,369,cs),
(40,192,ls),
(40,73,o),
(91,-10,o),
(223,-10,cs)
);
},
{
closed = 1;
nodes = (
(74,444,o),
(102,417,o),
(137,417,cs),
(172,417,o),
(199,444,o),
(199,481,cs),
(199,518,o),
(172,546,o),
(137,546,cs),
(102,546,o),
(74,518,o),
(74,481,cs)
);
},
{
closed = 1;
nodes = (
(250,444,o),
(278,417,o),
(313,417,cs),
(348,417,o),
(375,444,o),
(375,481,cs),
(375,518,o),
(348,546,o),
(313,546,cs),
(278,546,o),
(250,518,o),
(250,481,cs)
);
}
);
width = 447;
}
);
note = udieresis;
unicode = 252;
},
{
glyphname = yacute;
kernLeft = y;
kernRight = y;
layers = (
{
layerId = m01;
shapes = (
{
closed = 1;
nodes = (
(132,-52,o),
(113,-74,o),
(76,-74,cs),
(58,-74,o),
(40,-68,o),
(20,-55,cs),
(17,-53,o),
(14,-52,o),
(11,-52,cs),
(2,-52,o),
(-2,-62,o),
(-2,-73,cs),
(-2,-116,o),
(31,-171,o),
(106,-171,cs),
(202,-171,o),
(241,-92,o),
(276,7,cs),
(404,369,ls),
(407,376,o),
(404,382,o),
(398,382,cs),
(308,382,ls),
(299,382,o),
(295,378,o),
(292,369,cs),
(211,128,l),
(157,284,ls),
(130,361,o),
(109,382,o),
(40,382,cs),
(16,382,ls),
(10,382,o),
(6,376,o),
(9,369,cs),
(148,-10,l)
);
},
{
closed = 1;
nodes = (
(190,430,ls),
(204,430,o),
(216,433,o),
(226,442,cs),
(323,524,ls),
(330,530,o),
(327,540,o),
(318,540,cs),
(227,540,ls),
(214,540,o),
(207,537,o),
(197,528,cs),
(105,445,ls),
(100,440,o),
(102,430,o),
(111,430,cs)
);
}
);
width = 412;
}
);
note = yacute;
unicode = 253;
},
{
glyphname = thorn;
layers = (
{
layerId = m01;
shapes = (
{
closed = 1;
nodes = (
(186,98,o),
(155,135,o),
(155,195,cs),
(155,252,o),
(187,283,o),
(237,283,cs),
(288,283,o),
(321,250,o),
(321,195,cs),
(321,136,o),
(288,98,o),
(237,98,cs)
);
},
{
closed = 1;
nodes = (
(181,8,o),
(221,-9,o),
(268,-9,cs),
(382,-9,o),
(440,82,o),
(440,194,cs),
(440,306,o),
(379,393,o),
(258,393,cs),
(212,393,o),
(176,371,o),
(155,349,c),
(155,458,ls),
(155,530,o),
(122,556,o),
(59,556,cs),
(54,556,ls),
(45,556,o),
(41,552,o),
(41,543,cs),
(41,-147,ls),
(41,-156,o),
(45,-160,o),
(54,-160,cs),
(142,-160,ls),
(151,-160,o),
(155,-156,o),
(155,-147,cs),
(155,40,l)
);
}
);
width = 468;
}
);
note = thorn;
unicode = 254;
},
{
glyphname = ydieresis;
kernLeft = y;
kernRight = y;
layers = (
{
layerId = m01;
shapes = (
{
closed = 1;
nodes = (
(132,-52,o),
(113,-74,o),
(76,-74,cs),
(58,-74,o),
(40,-68,o),
(20,-55,cs),
(17,-53,o),
(14,-52,o),
(11,-52,cs),
(2,-52,o),
(-2,-62,o),
(-2,-73,cs),
(-2,-116,o),
(31,-171,o),
(106,-171,cs),
(202,-171,o),
(241,-92,o),
(276,7,cs),
(404,369,ls),
(407,376,o),
(404,382,o),
(398,382,cs),
(308,382,ls),
(299,382,o),
(295,378,o),
(292,369,cs),
(211,128,l),
(157,284,ls),
(130,361,o),
(109,382,o),
(40,382,cs),
(16,382,ls),
(10,382,o),
(6,376,o),
(9,369,cs),
(148,-10,l)
);
},
{
closed = 1;
nodes = (
(50,444,o),
(78,417,o),
(113,417,cs),
(148,417,o),
(175,444,o),
(175,481,cs),
(175,518,o),
(148,546,o),
(113,546,cs),
(78,546,o),
(50,518,o),
(50,481,cs)
);
},
{
closed = 1;
nodes = (
(226,444,o),
(253,417,o),
(289,417,cs),
(324,417,o),
(351,444,o),
(351,481,cs),
(351,518,o),
(324,546,o),
(289,546,cs),
(253,546,o),
(226,518,o),
(226,481,cs)
);
}
);
width = 412;
}
);
note = ydieresis;
unicode = 255;
},
{
glyphname = dotlessi;
kernLeft = r;
kernRight = i;
layers = (
{
layerId = m01;
shapes = (
{
closed = 1;
nodes = (
(41,4,o),
(45,0,o),
(54,0,cs),
(142,0,ls),
(151,0,o),
(155,4,o),
(155,13,cs),
(155,284,ls),
(155,356,o),
(122,382,o),
(59,382,cs),
(54,382,ls),
(45,382,o),
(41,378,o),
(41,369,cs),
(41,13,ls)
);
}
);
width = 196;
}
);
note = dotlessi;
unicode = 305;
},
{
glyphname = Lslash;
layers = (
{
layerId = m01;
shapes = (
{
closed = 1;
nodes = (
(67,13,ls),
(67,4,o),
(71,0,o),
(80,0,cs),
(370,0,ls),
(380,0,o),
(386,7,o),
(386,17,cs),
(386,42,ls),
(386,84,o),
(362,108,o),
(316,108,cs),
(184,108,l),
(184,252,l),
(289,309,ls),
(297,313,o),
(303,322,o),
(303,332,cs),
(303,401,ls),
(303,409,o),
(295,413,o),
(288,409,cs),
(184,353,l),
(184,455,ls),
(184,529,o),
(153,556,o),
(90,556,cs),
(80,556,ls),
(71,556,o),
(67,552,o),
(67,543,cs),
(67,288,l),
(29,268,ls),
(21,264,o),
(15,255,o),
(15,245,cs),
(15,176,ls),
(15,168,o),
(23,164,o),
(30,168,cs),
(67,188,l)
);
}
);
width = 400;
}
);
note = Lslash;
unicode = 321;
},
{
glyphname = lslash;
layers = (
{
layerId = m01;
shapes = (
{
closed = 1;
nodes = (
(61,131,ls),
(61,37,o),
(103,-8,o),
(173,-8,cs),
(252,-8,o),
(276,49,o),
(276,95,cs),
(276,102,o),
(273,110,o),
(265,110,cs),
(260,110,o),
(256,107,o),
(254,105,c),
(241,96,o),
(231,90,o),
(213,90,cs),
(188,90,o),
(175,108,o),
(175,144,cs),
(175,247,l),
(216,269,ls),
(224,273,o),
(230,282,o),
(230,292,cs),
(230,357,ls),
(230,365,o),
(222,369,o),
(215,365,cs),
(175,343,l),
(175,458,ls),
(175,530,o),
(142,556,o),
(79,556,cs),
(74,556,ls),
(65,556,o),
(61,552,o),
(61,543,cs),
(61,280,l),
(29,263,ls),
(21,259,o),
(15,250,o),
(15,240,cs),
(15,176,ls),
(15,168,o),
(23,164,o),
(30,168,cs),
(61,185,l)
);
}
);
width = 284;
}
);
note = lslash;
unicode = 322;
},
{
glyphname = OE;
kernLeft = O;
kernRight = E;
layers = (
{
layerId = m01;
shapes = (
{
closed = 1;
nodes = (
(567,226,l),
(756,226,ls),
(765,226,o),
(771,233,o),
(771,242,cs),
(771,267,ls),
(771,310,o),
(748,334,o),
(702,334,cs),
(567,334,l),
(567,447,l),
(775,447,ls),
(785,447,o),
(791,454,o),
(791,464,cs),
(791,489,ls),
(791,532,o),
(767,556,o),
(722,556,cs),
(462,556,ls),
(453,556,o),
(449,552,o),
(449,543,cs),
(449,526,l),
(410,552,o),
(362,566,o),
(306,566,cs),
(138,566,o),
(39,453,o),
(39,277,cs),
(39,100,o),
(136,-10,o),
(306,-10,cs),
(362,-10,o),
(410,5,o),
(449,30,c),
(449,13,ls),
(449,4,o),
(453,0,o),
(462,0,cs),
(783,0,ls),
(793,0,o),
(799,7,o),
(799,17,cs),
(799,42,ls),
(799,84,o),
(775,108,o),
(730,108,cs),
(567,108,l)
);
},
{
closed = 1;
nodes = (
(224,102,o),
(160,147,o),
(160,277,cs),
(160,407,o),
(224,454,o),
(306,454,cs),
(389,454,o),
(449,407,o),
(449,277,cs),
(449,147,o),
(389,102,o),
(306,102,cs)
);
}
);
width = 822;
}
);
note = OE;
unicode = 338;
},
{
glyphname = oe;
kernLeft = o;
kernRight = e;
layers = (
{
layerId = m01;
shapes = (
{
closed = 1;
nodes = (
(400,9,o),
(447,-10,o),
(505,-10,cs),
(626,-10,o),
(663,59,o),
(663,100,cs),
(663,109,o),
(659,115,o),
(651,115,cs),
(647,115,o),
(641,113,o),
(634,110,cs),
(595,93,o),
(567,86,o),
(521,86,cs),
(464,86,o),
(430,108,o),
(423,151,c),
(650,151,ls),
(662,151,o),
(668,156,o),
(669,166,cs),
(670,178,o),
(671,195,o),
(671,220,cs),
(671,307,o),
(617,393,o),
(496,393,cs),
(440,393,o),
(397,373,o),
(365,341,c),
(331,374,o),
(284,393,o),
(227,393,cs),
(105,393,o),
(29,313,o),
(29,192,cs),
(29,71,o),
(107,-10,o),
(229,-10,cs),
(286,-10,o),
(333,10,o),
(366,43,c)
);
},
{
closed = 1;
nodes = (
(186,98,o),
(147,119,o),
(147,190,cs),
(147,259,o),
(186,284,o),
(228,284,cs),
(269,284,o),
(308,259,o),
(308,190,cs),
(308,119,o),
(268,98,o),
(227,98,cs)
);
},
{
closed = 1;
nodes = (
(426,270,o),
(450,295,o),
(496,295,cs),
(548,295,o),
(562,255,o),
(558,231,c),
(424,231,l)
);
}
);
width = 698;
}
);
note = oe;
unicode = 339;
},
{
glyphname = Scaron;
kernLeft = S;
kernRight = S;
layers = (
{
layerId = m01;
shapes = (
{
closed = 1;
nodes = (
(15,71,o),
(82,-10,o),
(228,-10,cs),
(361,-10,o),
(437,60,o),
(437,166,cs),
(437,365,o),
(154,313,o),
(154,409,cs),
(154,446,o),
(191,461,o),
(237,461,cs),
(290,461,o),
(334,449,o),
(376,429,cs),
(382,426,o),
(388,424,o),
(393,424,cs),
(400,424,o),
(403,428,o),
(405,437,cs),
(411,461,ls),
(421,504,o),
(414,531,o),
(367,547,cs),
(328,560,o),
(284,566,o),
(234,566,cs),
(125,566,o),
(33,512,o),
(33,403,cs),
(33,202,o),
(315,247,o),
(315,157,cs),
(315,120,o),
(282,98,o),
(215,98,cs),
(133,98,o),
(84,127,o),
(40,166,cs),
(37,169,o),
(34,170,o),
(30,170,cs),
(22,170,o),
(15,161,o),
(15,147,cs)
);
},
{
closed = 1;
nodes = (
(184,685,ls),
(176,695,o),
(164,699,o),
(150,699,cs),
(81,699,ls),
(72,699,o),
(71,689,o),
(75,684,cs),
(154,601,ls),
(164,591,o),
(171,589,o),
(184,589,cs),
(278,589,ls),
(291,589,o),
(299,591,o),
(308,601,cs),
(388,684,ls),
(393,689,o),
(391,699,o),
(382,699,cs),
(312,699,ls),
(298,699,o),
(286,695,o),
(278,685,cs),
(231,629,l)
);
}
);
width = 458;
}
);
note = Scaron;
unicode = 352;
},
{
glyphname = scaron;
kernLeft = s;
layers = (
{
layerId = m01;
shapes = (
{
closed = 1;
nodes = (
(46,121,o),
(43,123,o),
(40,123,cs),
(33,123,o),
(27,117,o),
(27,102,cs),
(27,39,o),
(90,-10,o),
(176,-10,cs),
(266,-10,o),
(326,43,o),
(326,122,cs),
(326,238,o),
(154,226,o),
(154,275,cs),
(154,295,o),
(172,302,o),
(191,302,cs),
(220,302,o),
(247,296,o),
(281,280,cs),
(286,278,o),
(290,276,o),
(295,276,cs),
(299,276,o),
(302,278,o),
(304,284,cs),
(307,294,ls),
(321,340,o),
(307,362,o),
(268,379,cs),
(248,388,o),
(221,393,o),
(194,393,cs),
(117,393,o),
(39,361,o),
(39,268,cs),
(39,142,o),
(211,161,o),
(211,112,cs),
(211,93,o),
(193,81,o),
(161,81,cs),
(115,81,o),
(84,95,o),
(48,120,cs)
);
},
{
closed = 1;
nodes = (
(129,526,ls),
(121,536,o),
(109,540,o),
(96,540,cs),
(26,540,ls),
(17,540,o),
(16,530,o),
(20,525,cs),
(99,442,ls),
(109,432,o),
(116,430,o),
(129,430,cs),
(224,430,ls),
(237,430,o),
(245,432,o),
(254,442,cs),
(333,525,ls),
(338,530,o),
(336,540,o),
(327,540,cs),
(257,540,ls),
(244,540,o),
(232,536,o),
(224,526,cs),
(176,470,l)
);
}
);
width = 331;
}
);
note = scaron;
unicode = 353;
},
{
glyphname = Ydieresis;
kernLeft = Y;
kernRight = Y;
layers = (
{
layerId = m01;
shapes = (
{
closed = 1;
nodes = (
(184,13,ls),
(184,4,o),
(188,0,o),
(197,0,cs),
(288,0,ls),
(297,0,o),
(301,4,o),
(301,13,cs),
(301,200,l),
(483,543,ls),
(486,549,o),
(484,556,o),
(475,556,cs),
(379,556,ls),
(370,556,o),
(363,552,o),
(359,543,cs),
(247,322,l),
(160,495,ls),
(137,540,o),
(108,556,o),
(61,556,cs),
(12,556,ls),
(3,556,o),
(1,549,o),
(4,543,cs),
(184,203,l)
);
},
{
closed = 1;
nodes = (
(88,603,o),
(116,576,o),
(152,576,cs),
(187,576,o),
(214,603,o),
(214,640,cs),
(214,677,o),
(187,705,o),
(152,705,cs),
(116,705,o),
(88,677,o),
(88,640,cs)
);
},
{
closed = 1;
nodes = (
(264,603,o),
(292,576,o),
(328,576,cs),
(363,576,o),
(390,603,o),
(390,640,cs),
(390,677,o),
(363,705,o),
(328,705,cs),
(292,705,o),
(264,677,o),
(264,640,cs)
);
}
);
width = 485;
}
);
note = Ydieresis;
unicode = 376;
},
{
glyphname = Zcaron;
kernLeft = Z;
kernRight = Z;
layers = (
{
layerId = m01;
shapes = (
{
closed = 1;
nodes = (
(411,435,ls),
(421,448,o),
(426,459,o),
(426,473,cs),
(426,489,ls),
(426,532,o),
(402,556,o),
(356,556,cs),
(45,556,ls),
(36,556,o),
(32,552,o),
(32,543,cs),
(32,460,ls),
(32,451,o),
(36,447,o),
(45,447,cs),
(276,447,l),
(41,127,ls),
(30,112,o),
(26,100,o),
(26,85,cs),
(26,13,ls),
(26,4,o),
(30,0,o),
(39,0,cs),
(410,0,ls),
(420,0,o),
(426,7,o),
(426,17,cs),
(426,42,ls),
(426,84,o),
(402,108,o),
(356,108,cs),
(170,108,l)
);
},
{
closed = 1;
nodes = (
(179,685,ls),
(171,695,o),
(159,699,o),
(145,699,cs),
(76,699,ls),
(67,699,o),
(66,689,o),
(70,684,cs),
(149,601,ls),
(159,591,o),
(166,589,o),
(179,589,cs),
(273,589,ls),
(286,589,o),
(294,591,o),
(303,601,cs),
(383,684,ls),
(388,689,o),
(386,699,o),
(377,699,cs),
(307,699,ls),
(293,699,o),
(281,695,o),
(273,685,cs),
(226,629,l)
);
}
);
width = 453;
}
);
note = Zcaron;
unicode = 381;
},
{
glyphname = zcaron;
kernLeft = z;
kernRight = z;
layers = (
{
layerId = m01;
shapes = (
{
closed = 1;
nodes = (
(322,276,ls),
(329,285,o),
(335,295,o),
(335,309,cs),
(335,365,o),
(319,382,o),
(269,382,cs),
(49,382,ls),
(40,382,o),
(36,378,o),
(36,369,cs),
(36,293,ls),
(36,284,o),
(40,280,o),
(49,280,cs),
(190,280,l),
(41,97,ls),
(31,84,o),
(28,78,o),
(28,62,cs),
(28,13,ls),
(28,4,o),
(32,0,o),
(41,0,cs),
(328,0,ls),
(337,0,o),
(341,4,o),
(341,13,cs),
(341,88,ls),
(341,97,o),
(337,101,o),
(328,101,cs),
(177,101,l)
);
},
{
closed = 1;
nodes = (
(137,526,ls),
(129,536,o),
(117,540,o),
(104,540,cs),
(34,540,ls),
(25,540,o),
(24,530,o),
(28,525,cs),
(107,442,ls),
(117,432,o),
(124,430,o),
(137,430,cs),
(232,430,ls),
(245,430,o),
(253,432,o),
(262,442,cs),
(341,525,ls),
(346,530,o),
(344,540,o),
(335,540,cs),
(265,540,ls),
(252,540,o),
(240,536,o),
(232,526,cs),
(184,470,l)
);
}
);
width = 361;
}
);
note = zcaron;
unicode = 382;
},
{
glyphname = florin;
layers = (
{
layerId = m01;
shapes = (
{
closed = 1;
nodes = (
(85,-10,ls),
(77,-55,o),
(63,-74,o),
(30,-74,cs),
(12,-74,o),
(0,-69,o),
(-20,-60,cs),
(-22,-59,o),
(-25,-58,o),
(-28,-58,cs),
(-44,-58,o),
(-46,-80,o),
(-46,-91,cs),
(-46,-131,o),
(-16,-171,o),
(51,-171,cs),
(125,-171,o),
(180,-122,o),
(198,-17,cs),
(251,280,l),
(346,280,ls),
(355,280,o),
(358,284,o),
(360,293,cs),
(374,369,ls),
(376,378,o),
(373,382,o),
(364,382,cs),
(269,382,l),
(272,401,ls),
(280,445,o),
(294,464,o),
(328,464,cs),
(346,464,o),
(357,459,o),
(377,450,cs),
(380,449,o),
(383,448,o),
(386,448,cs),
(402,448,o),
(403,472,o),
(403,483,cs),
(403,523,o),
(375,561,o),
(309,561,cs),
(235,561,o),
(175,513,o),
(159,407,cs),
(155,382,l),
(83,382,ls),
(74,382,o),
(69,378,o),
(67,369,cs),
(53,293,ls),
(51,284,o),
(55,280,o),
(64,280,cs),
(137,280,l)
);
}
);
width = 439;
}
);
note = florin;
unicode = 402;
},
{
glyphname = circumflex;
layers = (
{
layerId = m01;
shapes = (
{
closed = 1;
nodes = (
(209,444,ls),
(217,434,o),
(229,430,o),
(242,430,cs),
(312,430,ls),
(321,430,o),
(322,440,o),
(318,445,cs),
(239,528,ls),
(229,538,o),
(222,540,o),
(209,540,cs),
(114,540,ls),
(101,540,o),
(93,538,o),
(84,528,cs),
(5,445,ls),
(0,440,o),
(2,430,o),
(11,430,cs),
(80,430,ls),
(94,430,o),
(106,434,o),
(114,444,cs),
(162,500,l)
);
}
);
width = 319;
}
);
note = circumflex;
unicode = 710;
},
{
glyphname = caron;
layers = (
{
layerId = m01;
shapes = (
{
closed = 1;
nodes = (
(113,526,ls),
(105,536,o),
(93,540,o),
(80,540,cs),
(10,540,ls),
(1,540,o),
(0,530,o),
(4,525,cs),
(83,442,ls),
(93,432,o),
(100,430,o),
(113,430,cs),
(208,430,ls),
(221,430,o),
(229,432,o),
(238,442,cs),
(317,525,ls),
(322,530,o),
(320,540,o),
(311,540,cs),
(241,540,ls),
(228,540,o),
(216,536,o),
(208,526,cs),
(160,470,l)
);
}
);
width = 319;
}
);
note = caron;
unicode = 711;
},
{
glyphname = breve;
layers = (
{
layerId = m01;
shapes = (
{
closed = 1;
nodes = (
(12,464,o),
(56,417,o),
(136,417,cs),
(217,417,o),
(260,464,o),
(271,529,cs),
(272,535,o),
(269,540,o),
(263,540,cs),
(203,540,ls),
(197,540,o),
(193,536,o),
(192,530,cs),
(186,503,o),
(168,486,o),
(136,486,cs),
(104,486,o),
(86,502,o),
(80,530,c),
(80,536,o),
(76,540,o),
(70,540,cs),
(9,540,ls),
(3,540,o),
(0,535,o),
(1,529,cs)
);
}
);
width = 272;
}
);
note = breve;
unicode = 728;
},
{
glyphname = dotaccent;
layers = (
{
layerId = m01;
shapes = (
{
closed = 1;
nodes = (
(0,444,o),
(28,417,o),
(64,417,cs),
(98,417,o),
(125,444,o),
(125,481,cs),
(125,518,o),
(98,546,o),
(64,546,cs),
(28,546,o),
(0,518,o),
(0,481,cs)
);
}
);
width = 125;
}
);
note = dotaccent;
unicode = 729;
},
{
glyphname = ring;
layers = (
{
layerId = m01;
shapes = (
{
closed = 1;
nodes = (
(0,453,o),
(37,417,o),
(81,417,cs),
(126,417,o),
(162,453,o),
(162,498,cs),
(162,543,o),
(126,578,o),
(81,578,cs),
(37,578,o),
(0,543,o),
(0,498,cs)
);
},
{
closed = 1;
nodes = (
(63,464,o),
(49,479,o),
(49,498,cs),
(49,517,o),
(63,532,o),
(81,532,cs),
(100,532,o),
(114,517,o),
(114,498,cs),
(114,479,o),
(100,464,o),
(81,464,cs)
);
}
);
width = 162;
}
);
note = ring;
unicode = 730;
},
{
glyphname = ogonek;
layers = (
{
layerId = m01;
shapes = (
{
closed = 1;
nodes = (
(36,-12,o),
(8,-39,o),
(8,-76,cs),
(8,-125,o),
(48,-157,o),
(112,-157,cs),
(126,-157,o),
(137,-156,o),
(151,-153,cs),
(158,-151,o),
(162,-148,o),
(162,-141,cs),
(162,-106,ls),
(162,-98,o),
(158,-95,o),
(150,-97,cs),
(145,-98,o),
(140,-99,o),
(132,-99,cs),
(104,-99,o),
(90,-87,o),
(90,-66,cs),
(90,-39,o),
(112,-20,o),
(146,-3,cs),
(150,-1,o),
(149,2,o),
(145,2,cs),
(72,2,ls),
(68,2,o),
(64,2,o),
(61,0,cs)
);
}
);
width = 162;
}
);
note = ogonek;
unicode = 731;
},
{
glyphname = tilde;
layers = (
{
layerId = m01;
shapes = (
{
closed = 1;
nodes = (
(59,428,ls),
(66,428,o),
(71,432,o),
(72,440,cs),
(74,452,o),
(79,464,o),
(95,464,cs),
(124,464,o),
(172,434,o),
(214,434,cs),
(273,434,o),
(292,466,o),
(299,532,cs),
(300,540,o),
(296,545,o),
(288,545,cs),
(240,545,ls),
(234,545,o),
(229,541,o),
(228,533,cs),
(225,516,o),
(219,509,o),
(206,509,cs),
(171,509,o),
(129,542,o),
(79,542,cs),
(31,542,o),
(4,506,o),
(0,441,cs),
(0,433,o),
(3,428,o),
(11,428,cs)
);
}
);
width = 300;
}
);
note = tilde;
unicode = 732;
},
{
glyphname = hungarumlaut;
layers = (
{
layerId = m01;
shapes = (
{
closed = 1;
nodes = (
(83,430,ls),
(98,430,o),
(105,434,o),
(114,444,cs),
(182,524,ls),
(187,530,o),
(183,540,o),
(174,540,cs),
(97,540,ls),
(85,540,o),
(75,536,o),
(68,526,cs),
(5,445,ls),
(0,438,o),
(4,430,o),
(12,430,cs)
);
},
{
closed = 1;
nodes = (
(259,430,ls),
(274,430,o),
(281,434,o),
(290,444,cs),
(358,524,ls),
(363,530,o),
(359,540,o),
(350,540,cs),
(273,540,ls),
(261,540,o),
(250,536,o),
(243,526,cs),
(181,445,ls),
(175,438,o),
(180,430,o),
(188,430,cs)
);
}
);
width = 359;
}
);
note = hungarumlaut;
unicode = 733;
},
{
glyphname = uni03BC;
layers = (
{
layerId = m01;
shapes = (
{
closed = 1;
nodes = (
(177,-5,o),
(202,-10,o),
(231,-10,cs),
(356,-10,o),
(409,66,o),
(409,185,cs),
(409,284,ls),
(409,356,o),
(376,382,o),
(312,382,cs),
(307,382,ls),
(298,382,o),
(294,378,o),
(294,369,cs),
(294,175,ls),
(294,115,o),
(260,96,o),
(224,96,cs),
(188,96,o),
(155,115,o),
(155,176,cs),
(155,284,ls),
(155,356,o),
(122,382,o),
(59,382,cs),
(54,382,ls),
(45,382,o),
(41,378,o),
(41,369,cs),
(41,-147,ls),
(41,-156,o),
(45,-160,o),
(54,-160,cs),
(142,-160,ls),
(151,-160,o),
(155,-156,o),
(155,-147,cs),
(155,5,l)
);
}
);
width = 448;
}
);
note = uni03BC;
unicode = 956;
},
{
glyphname = uni060C;
layers = (
{
layerId = m01;
shapes = (
{
closed = 1;
nodes = (
(113,144,o),
(126,161,o),
(138,172,cs),
(153,187,o),
(152,208,o),
(135,224,cs),
(133,226,o),
(131,226,o),
(129,224,cs),
(72,180,o),
(28,124,o),
(28,58,cs),
(28,17,o),
(59,-12,o),
(97,-12,cs),
(135,-12,o),
(165,17,o),
(165,58,cs),
(165,93,o),
(142,121,o),
(110,127,c)
);
}
);
width = 200;
}
);
note = uni060C;
unicode = 1548;
},
{
glyphname = uni061B;
layers = (
{
layerId = m01;
shapes = (
{
closed = 1;
nodes = (
(118,368,o),
(131,384,o),
(143,396,cs),
(158,411,o),
(157,432,o),
(140,448,c),
(138,449,o),
(136,449,o),
(134,448,c),
(77,404,o),
(33,348,o),
(33,282,cs),
(33,241,o),
(64,212,o),
(102,212,cs),
(140,212,o),
(170,241,o),
(170,282,cs),
(170,317,o),
(147,345,o),
(115,351,c)
);
},
{
closed = 1;
nodes = (
(139,-12,o),
(170,19,o),
(170,58,cs),
(170,97,o),
(139,128,o),
(101,128,cs),
(64,128,o),
(33,97,o),
(33,58,cs),
(33,19,o),
(64,-12,o),
(101,-12,cs)
);
}
);
width = 211;
}
);
note = uni061B;
unicode = 1563;
},
{
glyphname = uni061F;
layers = (
{
layerId = m01;
shapes = (
{
closed = 1;
nodes = (
(276,169,o),
(282,174,o),
(282,181,cs),
(281,231,ls),
(280,327,o),
(158,351,o),
(157,407,cs),
(157,442,o),
(184,457,o),
(216,458,cs),
(245,458,o),
(266,452,o),
(293,443,cs),
(301,440,o),
(308,438,o),
(313,438,cs),
(324,438,o),
(328,447,o),
(329,461,cs),
(330,517,o),
(275,565,o),
(204,565,cs),
(111,565,o),
(40,502,o),
(41,415,cs),
(41,292,o),
(163,288,o),
(166,217,cs),
(167,181,ls),
(167,174,o),
(172,169,o),
(179,169,cs),
(269,169,ls)
);
},
{
closed = 1;
nodes = (
(188,128,o),
(157,97,o),
(157,58,cs),
(157,19,o),
(188,-12,o),
(226,-12,cs),
(263,-12,o),
(293,19,o),
(293,58,cs),
(293,97,o),
(263,128,o),
(226,128,cs)
);
}
);
width = 369;
}
);
note = uni061F;
unicode = 1567;
},
{
glyphname = uni0621;
layers = (
{
layerId = m01;
shapes = (
{
closed = 1;
nodes = (
(215,104,o),
(186,142,o),
(187,182,cs),
(188,231,o),
(218,259,o),
(268,259,cs),
(292,258,o),
(318,251,o),
(345,237,cs),
(354,233,o),
(359,231,o),
(365,231,cs),
(376,232,o),
(378,248,o),
(378,258,cs),
(378,282,o),
(370,303,o),
(353,319,cs),
(331,343,o),
(295,358,o),
(251,358,cs),
(153,358,o),
(80,285,o),
(80,183,cs),
(80,157,o),
(87,126,o),
(106,96,c),
(61,84,o),
(34,56,o),
(34,14,cs),
(34,2,o),
(36,-11,o),
(41,-19,cs),
(44,-24,o),
(46,-26,o),
(52,-26,cs),
(58,-26,o),
(65,-20,o),
(73,-16,cs),
(96,-5,o),
(110,0,o),
(146,0,cs),
(399,0,ls),
(416,0,o),
(420,3,o),
(420,19,cs),
(420,28,ls),
(420,73,o),
(386,104,o),
(332,104,cs),
(261,104,ls)
);
}
);
width = 464;
}
);
note = uni0621;
unicode = 1569;
},
{
glyphname = uni0622;
layers = (
{
layerId = m01;
shapes = (
{
closed = 1;
nodes = (
(87,651,o),
(134,620,o),
(163,620,cs),
(185,619,o),
(203,631,o),
(207,649,cs),
(210,663,o),
(208,679,o),
(201,691,cs),
(199,694,o),
(197,694,o),
(195,694,cs),
(191,693,o),
(189,688,o),
(184,682,cs),
(179,674,o),
(171,666,o),
(159,666,cs),
(136,666,o),
(89,696,o),
(60,696,cs),
(38,697,o),
(21,686,o),
(16,667,cs),
(12,653,o),
(15,637,o),
(22,625,cs),
(24,622,o),
(26,622,o),
(28,622,cs),
(32,623,o),
(34,628,o),
(39,634,cs),
(44,642,o),
(52,651,o),
(64,651,cs)
);
},
{
closed = 1;
nodes = (
(131,0,o),
(163,29,o),
(163,93,cs),
(163,543,ls),
(163,552,o),
(159,556,o),
(150,556,cs),
(140,556,ls),
(80,556,o),
(48,527,o),
(48,462,cs),
(48,12,ls),
(48,3,o),
(53,0,o),
(61,0,cs),
(72,0,ls)
);
}
);
width = 215;
}
);
note = uni0622;
unicode = 1570;
},
{
glyphname = uni0623;
layers = (
{
layerId = m01;
shapes = (
{
closed = 1;
nodes = (
(104,675,o),
(89,689,o),
(89,712,cs),
(89,735,o),
(103,748,o),
(125,748,cs),
(138,748,o),
(148,744,o),
(161,738,cs),
(168,735,o),
(171,733,o),
(173,733,cs),
(178,733,o),
(178,736,o),
(178,745,cs),
(178,776,o),
(152,799,o),
(115,798,cs),
(70,797,o),
(36,762,o),
(36,713,cs),
(36,701,o),
(39,684,o),
(47,671,c),
(27,665,o),
(15,652,o),
(14,632,cs),
(14,626,o),
(16,621,o),
(17,616,c),
(19,613,o),
(21,612,o),
(22,612,cs),
(23,612,o),
(25,612,o),
(29,614,cs),
(35,617,o),
(47,624,o),
(70,624,cs),
(190,624,ls),
(197,624,o),
(199,626,o),
(199,632,cs),
(199,638,ls),
(199,660,o),
(183,675,o),
(157,675,cs),
(125,675,ls)
);
},
{
closed = 1;
nodes = (
(78,556,o),
(46,527,o),
(46,462,cs),
(46,12,ls),
(46,3,o),
(51,0,o),
(59,0,cs),
(70,0,ls),
(129,0,o),
(161,29,o),
(161,93,cs),
(161,543,ls),
(161,552,o),
(156,556,o),
(147,556,cs),
(137,556,ls)
);
}
);
width = 215;
}
);
note = uni0623;
unicode = 1571;
},
{
glyphname = uni0624;
layers = (
{
layerId = m01;
shapes = (
{
closed = 1;
nodes = (
(141,446,o),
(142,447,o),
(146,449,cs),
(152,452,o),
(164,459,o),
(187,459,cs),
(307,459,ls),
(314,459,o),
(316,460,o),
(316,467,cs),
(316,472,ls),
(316,494,o),
(301,509,o),
(274,509,cs),
(242,509,ls),
(221,509,o),
(206,524,o),
(206,547,cs),
(206,569,o),
(220,583,o),
(242,583,cs),
(256,583,o),
(265,579,o),
(278,573,cs),
(286,569,o),
(288,568,o),
(291,568,cs),
(295,568,o),
(296,571,o),
(296,579,cs),
(296,610,o),
(269,633,o),
(232,632,cs),
(187,631,o),
(153,596,o),
(153,547,cs),
(153,535,o),
(156,519,o),
(164,506,c),
(144,499,o),
(132,487,o),
(131,467,cs),
(131,460,o),
(133,455,o),
(134,451,cs),
(136,447,o),
(138,446,o),
(139,446,cs)
);
},
{
closed = 1;
nodes = (
(359,349,o),
(307,391,o),
(223,391,cs),
(121,391,o),
(40,319,o),
(40,187,cs),
(40,74,o),
(112,-9,o),
(215,-10,cs),
(234,-10,o),
(259,-7,o),
(291,6,c),
(283,-60,o),
(248,-104,o),
(188,-106,cs),
(141,-107,o),
(120,-100,o),
(92,-91,cs),
(87,-89,o),
(81,-87,o),
(74,-87,cs),
(64,-87,o),
(57,-94,o),
(59,-106,cs),
(64,-132,o),
(77,-156,o),
(96,-173,cs),
(123,-198,o),
(161,-213,o),
(211,-214,cs),
(279,-216,o),
(339,-178,o),
(370,-113,cs),
(406,-45,o),
(409,45,o),
(409,127,cs),
(409,184,o),
(402,241,o),
(386,281,cs)
);
},
{
closed = 1;
nodes = (
(291,132,o),
(290,125,o),
(290,120,c),
(274,107,o),
(251,101,o),
(226,101,cs),
(186,101,o),
(158,132,o),
(158,193,cs),
(158,237,o),
(178,282,o),
(223,282,cs),
(253,282,o),
(271,263,o),
(281,238,cs),
(289,216,o),
(291,170,o),
(291,139,cs)
);
}
);
width = 456;
}
);
note = uni0624;
unicode = 1572;
},
{
glyphname = uni0625;
layers = (
{
layerId = m01;
shapes = (
{
closed = 1;
nodes = (
(129,0,o),
(161,29,o),
(161,93,cs),
(161,543,ls),
(161,552,o),
(157,556,o),
(148,556,cs),
(138,556,ls),
(78,556,o),
(46,527,o),
(46,462,cs),
(46,12,ls),
(46,3,o),
(51,0,o),
(59,0,cs),
(70,0,ls)
);
},
{
closed = 1;
nodes = (
(101,-182,o),
(86,-168,o),
(86,-145,cs),
(86,-122,o),
(100,-109,o),
(122,-109,cs),
(135,-109,o),
(145,-113,o),
(158,-119,cs),
(165,-122,o),
(168,-124,o),
(170,-124,cs),
(175,-124,o),
(175,-121,o),
(175,-112,cs),
(175,-82,o),
(149,-58,o),
(112,-59,cs),
(67,-61,o),
(33,-96,o),
(33,-144,cs),
(33,-157,o),
(36,-173,o),
(44,-186,c),
(24,-192,o),
(12,-205,o),
(11,-225,cs),
(11,-232,o),
(13,-237,o),
(14,-241,c),
(16,-244,o),
(18,-246,o),
(19,-246,cs),
(20,-246,o),
(22,-245,o),
(26,-243,cs),
(32,-240,o),
(44,-233,o),
(67,-233,cs),
(187,-233,ls),
(194,-233,o),
(196,-232,o),
(196,-225,cs),
(196,-219,ls),
(196,-197,o),
(180,-182,o),
(154,-182,cs),
(122,-182,ls)
);
}
);
width = 215;
}
);
note = uni0625;
unicode = 1573;
},
{
glyphname = uni0626;
layers = (
{
layerId = m01;
shapes = (
{
closed = 1;
nodes = (
(53,303,o),
(55,303,o),
(59,306,c),
(65,308,o),
(77,316,o),
(100,316,cs),
(220,316,ls),
(227,316,o),
(229,317,o),
(229,323,cs),
(229,329,ls),
(229,351,o),
(213,366,o),
(187,366,cs),
(155,366,ls),
(134,366,o),
(119,381,o),
(119,403,cs),
(119,426,o),
(133,439,o),
(155,439,cs),
(168,439,o),
(178,436,o),
(191,429,cs),
(198,426,o),
(201,424,o),
(203,424,cs),
(208,424,o),
(208,427,o),
(208,436,cs),
(208,467,o),
(182,490,o),
(145,489,cs),
(100,488,o),
(66,453,o),
(66,404,cs),
(66,392,o),
(69,376,o),
(77,362,c),
(57,356,o),
(45,343,o),
(44,323,cs),
(44,317,o),
(46,312,o),
(47,307,c),
(49,304,o),
(51,303,o),
(52,303,cs)
);
},
{
closed = 1;
nodes = (
(421,155,o),
(391,174,o),
(391,205,cs),
(391,252,o),
(425,282,o),
(479,282,cs),
(511,282,o),
(547,269,o),
(568,257,cs),
(575,253,o),
(580,251,o),
(584,251,cs),
(598,252,o),
(602,265,o),
(602,283,cs),
(602,308,o),
(592,329,o),
(577,346,cs),
(553,373,o),
(513,391,o),
(460,391,cs),
(353,391,o),
(274,312,o),
(274,204,cs),
(274,113,o),
(333,62,o),
(422,43,cs),
(466,33,o),
(511,28,o),
(507,-4,cs),
(500,-63,o),
(425,-106,o),
(342,-106,cs),
(226,-106,o),
(153,-41,o),
(153,71,cs),
(153,121,o),
(167,177,o),
(192,218,cs),
(195,223,o),
(198,230,o),
(198,234,cs),
(198,244,o),
(193,249,o),
(183,249,cs),
(180,249,o),
(174,247,o),
(167,245,c),
(100,218,o),
(46,142,o),
(43,51,cs),
(39,-87,o),
(152,-214,o),
(338,-214,cs),
(497,-214,o),
(624,-116,o),
(626,21,cs),
(627,101,o),
(550,127,o),
(466,146,cs)
);
}
);
width = 668;
}
);
note = uni0626;
unicode = 1574;
},
{
glyphname = uni0627;
layers = (
{
layerId = m01;
shapes = (
{
closed = 1;
nodes = (
(129,0,o),
(161,29,o),
(161,93,cs),
(161,543,ls),
(161,552,o),
(157,556,o),
(148,556,cs),
(138,556,ls),
(78,556,o),
(46,527,o),
(46,462,cs),
(46,12,ls),
(46,3,o),
(51,0,o),
(59,0,cs),
(70,0,ls)
);
}
);
width = 215;
}
);
note = uni0627;
unicode = 1575;
},
{
glyphname = uni0628;
layers = (
{
layerId = m01;
shapes = (
{
closed = 1;
nodes = (
(177,114,o),
(139,142,o),
(139,199,cs),
(139,235,o),
(154,259,o),
(168,279,cs),
(171,284,o),
(174,291,o),
(174,297,cs),
(174,304,o),
(171,311,o),
(159,311,cs),
(155,311,o),
(150,310,o),
(144,308,cs),
(81,285,o),
(40,225,o),
(40,159,cs),
(40,62,o),
(118,0,o),
(227,0,cs),
(523,0,ls),
(639,0,o),
(704,73,o),
(704,187,cs),
(704,360,ls),
(704,368,o),
(699,372,o),
(691,372,cs),
(680,372,ls),
(621,372,o),
(589,343,o),
(589,278,cs),
(589,189,ls),
(589,143,o),
(568,114,o),
(526,114,cs),
(233,114,ls)
);
},
{
closed = 1;
nodes = (
(343,-62,o),
(317,-87,o),
(317,-121,cs),
(317,-154,o),
(343,-181,o),
(376,-181,cs),
(408,-181,o),
(434,-154,o),
(434,-121,cs),
(434,-87,o),
(408,-62,o),
(376,-62,cs)
);
}
);
width = 758;
}
);
note = uni0628;
unicode = 1576;
},
{
glyphname = uni0629;
layers = (
{
layerId = m01;
shapes = (
{
closed = 1;
nodes = (
(151,535,o),
(176,560,o),
(176,592,cs),
(176,624,o),
(151,649,o),
(120,649,cs),
(89,649,o),
(64,624,o),
(64,592,cs),
(64,560,o),
(89,535,o),
(120,535,cs)
);
},
{
closed = 1;
nodes = (
(279,535,o),
(304,560,o),
(304,592,cs),
(304,624,o),
(279,649,o),
(249,649,cs),
(218,649,o),
(193,624,o),
(193,592,cs),
(193,560,o),
(218,535,o),
(249,535,cs)
);
},
{
closed = 1;
nodes = (
(313,374,o),
(304,382,o),
(294,389,cs),
(262,416,o),
(236,435,o),
(218,469,cs),
(214,478,o),
(212,485,o),
(203,483,c),
(201,482,o),
(195,480,o),
(193,479,cs),
(156,460,o),
(131,429,o),
(139,401,cs),
(143,390,o),
(147,383,o),
(152,376,c),
(69,327,o),
(40,252,o),
(40,188,cs),
(40,49,o),
(135,-10,o),
(226,-10,cs),
(338,-10,o),
(411,69,o),
(411,188,cs),
(411,258,o),
(384,314,o),
(323,366,cs)
);
},
{
closed = 1;
nodes = (
(186,99,o),
(157,138,o),
(158,186,cs),
(158,224,o),
(171,260,o),
(223,296,c),
(243,280,o),
(256,268,o),
(268,253,cs),
(286,231,o),
(293,209,o),
(293,187,cs),
(295,138,o),
(265,99,o),
(226,99,cs)
);
}
);
width = 458;
}
);
note = uni0629;
unicode = 1577;
},
{
glyphname = uni062A;
layers = (
{
layerId = m01;
shapes = (
{
closed = 1;
nodes = (
(348,374,o),
(373,399,o),
(373,431,cs),
(373,463,o),
(348,488,o),
(317,488,cs),
(286,488,o),
(261,463,o),
(261,431,cs),
(261,399,o),
(286,374,o),
(317,374,cs)
);
},
{
closed = 1;
nodes = (
(476,374,o),
(501,399,o),
(501,431,cs),
(501,463,o),
(476,488,o),
(446,488,cs),
(415,488,o),
(389,463,o),
(389,431,cs),
(389,399,o),
(415,374,o),
(446,374,cs)
);
},
{
closed = 1;
nodes = (
(177,114,o),
(139,142,o),
(139,199,cs),
(139,235,o),
(154,259,o),
(168,279,cs),
(171,284,o),
(174,291,o),
(174,297,cs),
(174,304,o),
(171,311,o),
(159,311,cs),
(155,311,o),
(150,310,o),
(144,308,cs),
(81,285,o),
(40,225,o),
(40,159,cs),
(40,62,o),
(118,0,o),
(227,0,cs),
(523,0,ls),
(639,0,o),
(704,73,o),
(704,187,cs),
(704,360,ls),
(704,368,o),
(699,372,o),
(691,372,cs),
(680,372,ls),
(621,372,o),
(589,343,o),
(589,278,cs),
(589,189,ls),
(589,143,o),
(568,114,o),
(526,114,cs),
(233,114,ls)
);
}
);
width = 758;
}
);
note = uni062A;
unicode = 1578;
},
{
glyphname = uni062B;
layers = (
{
layerId = m01;
shapes = (
{
closed = 1;
nodes = (
(408,492,o),
(432,516,o),
(432,544,cs),
(432,573,o),
(408,597,o),
(381,597,cs),
(352,597,o),
(329,573,o),
(329,544,cs),
(329,516,o),
(352,492,o),
(381,492,cs)
);
},
{
closed = 1;
nodes = (
(347,373,o),
(372,398,o),
(372,431,cs),
(372,462,o),
(347,487,o),
(316,487,cs),
(285,487,o),
(261,462,o),
(261,431,cs),
(261,398,o),
(285,373,o),
(316,373,cs)
);
},
{
closed = 1;
nodes = (
(476,373,o),
(501,398,o),
(501,431,cs),
(501,462,o),
(476,487,o),
(445,487,cs),
(414,487,o),
(389,462,o),
(389,431,cs),
(389,398,o),
(414,373,o),
(445,373,cs)
);
},
{
closed = 1;
nodes = (
(177,114,o),
(139,142,o),
(139,199,cs),
(139,235,o),
(154,259,o),
(168,279,cs),
(171,284,o),
(174,291,o),
(174,297,cs),
(174,304,o),
(171,311,o),
(159,311,cs),
(155,311,o),
(150,310,o),
(144,308,cs),
(81,285,o),
(40,225,o),
(40,159,cs),
(40,62,o),
(118,0,o),
(227,0,cs),
(523,0,ls),
(639,0,o),
(704,73,o),
(704,187,cs),
(704,360,ls),
(704,368,o),
(699,372,o),
(691,372,cs),
(680,372,ls),
(621,372,o),
(589,343,o),
(589,278,cs),
(589,189,ls),
(589,143,o),
(568,114,o),
(526,114,cs),
(233,114,ls)
);
}
);
width = 758;
}
);
note = uni062B;
unicode = 1579;
},
{
glyphname = uni062C;
layers = (
{
layerId = m01;
shapes = (
{
closed = 1;
nodes = (
(118,114,o),
(40,8,o),
(40,-107,cs),
(40,-233,o),
(132,-331,o),
(249,-331,cs),
(330,-331,o),
(390,-288,o),
(390,-226,cs),
(390,-219,o),
(386,-215,o),
(381,-215,cs),
(377,-215,o),
(374,-217,o),
(369,-218,c),
(346,-227,o),
(316,-228,o),
(297,-228,cs),
(217,-228,o),
(163,-178,o),
(163,-108,cs),
(163,-52,o),
(205,0,o),
(290,0,cs),
(453,0,ls),
(523,0,o),
(558,44,o),
(558,101,cs),
(558,113,o),
(555,113,o),
(545,115,cs),
(533,116,o),
(523,122,o),
(516,130,cs),
(499,148,o),
(492,163,o),
(476,213,cs),
(438,326,o),
(371,391,o),
(268,391,cs),
(227,391,o),
(187,378,o),
(157,353,cs),
(129,330,o),
(108,296,o),
(102,260,cs),
(101,252,o),
(99,245,o),
(101,239,c),
(102,231,o),
(106,226,o),
(114,225,cs),
(121,225,o),
(126,228,o),
(133,235,cs),
(146,247,o),
(161,256,o),
(175,263,cs),
(198,275,o),
(223,282,o),
(251,282,cs),
(304,282,o),
(334,251,o),
(357,194,cs),
(374,149,o),
(381,132,o),
(394,114,c),
(278,114,ls)
);
},
{
closed = 1;
nodes = (
(401,-66,o),
(377,-89,o),
(377,-121,cs),
(377,-152,o),
(401,-176,o),
(431,-176,cs),
(461,-176,o),
(484,-152,o),
(484,-121,cs),
(484,-89,o),
(461,-66,o),
(431,-66,cs)
);
}
);
width = 599;
}
);
note = uni062C;
unicode = 1580;
},
{
glyphname = uni062D;
layers = (
{
layerId = m01;
shapes = (
{
closed = 1;
nodes = (
(322,-331,o),
(363,-322,o),
(396,-306,cs),
(438,-283,o),
(466,-248,o),
(469,-203,c),
(471,-193,o),
(467,-186,o),
(459,-184,cs),
(454,-183,o),
(448,-186,o),
(439,-190,cs),
(418,-201,o),
(400,-208,o),
(381,-213,cs),
(356,-221,o),
(329,-224,o),
(292,-223,cs),
(208,-222,o),
(163,-174,o),
(163,-111,cs),
(163,-54,o),
(205,0,o),
(279,0,cs),
(453,0,ls),
(523,0,o),
(558,44,o),
(558,101,cs),
(558,113,o),
(555,113,o),
(545,115,cs),
(533,116,o),
(523,122,o),
(516,130,cs),
(499,148,o),
(492,163,o),
(476,213,cs),
(438,326,o),
(371,391,o),
(268,391,cs),
(227,391,o),
(187,378,o),
(157,353,cs),
(129,330,o),
(108,296,o),
(102,260,cs),
(101,252,o),
(99,245,o),
(101,239,c),
(102,231,o),
(106,226,o),
(114,225,cs),
(121,225,o),
(126,228,o),
(133,235,cs),
(146,247,o),
(161,256,o),
(175,263,cs),
(198,275,o),
(223,282,o),
(251,282,cs),
(304,282,o),
(334,251,o),
(357,194,cs),
(374,149,o),
(381,132,o),
(394,114,c),
(278,114,ls),
(133,114,o),
(40,22,o),
(40,-107,cs),
(40,-234,o),
(133,-331,o),
(274,-331,cs)
);
}
);
width = 599;
}
);
note = uni062D;
unicode = 1581;
},
{
glyphname = uni062E;
layers = (
{
layerId = m01;
shapes = (
{
closed = 1;
nodes = (
(229,568,o),
(203,543,o),
(203,509,cs),
(203,476,o),
(229,449,o),
(261,449,cs),
(294,449,o),
(319,476,o),
(319,509,cs),
(319,543,o),
(294,568,o),
(261,568,cs)
);
},
{
closed = 1;
nodes = (
(322,-331,o),
(363,-322,o),
(396,-306,cs),
(438,-283,o),
(466,-248,o),
(469,-203,c),
(471,-193,o),
(467,-186,o),
(459,-184,cs),
(454,-183,o),
(448,-186,o),
(439,-190,cs),
(418,-201,o),
(400,-208,o),
(381,-213,cs),
(356,-221,o),
(329,-224,o),
(292,-223,cs),
(208,-222,o),
(163,-174,o),
(163,-111,cs),
(163,-54,o),
(205,0,o),
(279,0,cs),
(453,0,ls),
(523,0,o),
(558,44,o),
(558,101,cs),
(558,113,o),
(555,113,o),
(545,115,cs),
(533,116,o),
(523,122,o),
(516,130,cs),
(499,148,o),
(492,163,o),
(476,213,cs),
(438,326,o),
(371,391,o),
(268,391,cs),
(227,391,o),
(187,378,o),
(157,353,cs),
(129,330,o),
(108,296,o),
(102,260,cs),
(101,252,o),
(99,245,o),
(101,239,c),
(102,231,o),
(106,226,o),
(114,225,cs),
(121,225,o),
(126,228,o),
(133,235,cs),
(146,247,o),
(161,256,o),
(175,263,cs),
(198,275,o),
(223,282,o),
(251,282,cs),
(304,282,o),
(334,251,o),
(357,194,cs),
(374,149,o),
(381,132,o),
(394,114,c),
(278,114,ls),
(133,114,o),
(40,22,o),
(40,-107,cs),
(40,-234,o),
(133,-331,o),
(274,-331,cs)
);
}
);
width = 599;
}
);
note = uni062E;
unicode = 1582;
},
{
glyphname = uni062F;
layers = (
{
layerId = m01;
shapes = (
{
closed = 1;
nodes = (
(301,0,o),
(378,77,o),
(378,188,cs),
(378,306,o),
(313,388,o),
(213,391,cs),
(180,391,o),
(149,379,o),
(126,361,cs),
(106,344,o),
(93,322,o),
(91,297,cs),
(89,279,o),
(93,265,o),
(106,264,cs),
(113,264,o),
(116,268,o),
(125,271,cs),
(146,279,o),
(159,283,o),
(185,282,cs),
(233,282,o),
(261,245,o),
(261,193,cs),
(261,148,o),
(234,114,o),
(193,114,cs),
(131,114,ls),
(71,114,o),
(34,81,o),
(34,31,cs),
(34,20,ls),
(34,3,o),
(38,0,o),
(56,0,cs),
(194,0,ls)
);
}
);
width = 425;
}
);
note = uni062F;
unicode = 1583;
},
{
glyphname = uni0630;
layers = (
{
layerId = m01;
shapes = (
{
closed = 1;
nodes = (
(109,559,o),
(83,534,o),
(83,500,cs),
(83,467,o),
(109,441,o),
(141,441,cs),
(174,441,o),
(200,467,o),
(200,500,cs),
(200,534,o),
(174,559,o),
(141,559,cs)
);
},
{
closed = 1;
nodes = (
(301,0,o),
(378,77,o),
(378,188,cs),
(378,306,o),
(313,388,o),
(213,391,cs),
(180,391,o),
(149,379,o),
(126,361,cs),
(106,344,o),
(93,322,o),
(91,297,cs),
(89,279,o),
(93,265,o),
(106,264,cs),
(113,264,o),
(116,268,o),
(125,271,cs),
(146,279,o),
(159,283,o),
(185,282,cs),
(233,282,o),
(261,245,o),
(261,193,cs),
(261,148,o),
(234,114,o),
(193,114,cs),
(131,114,ls),
(71,114,o),
(34,81,o),
(34,31,cs),
(34,20,ls),
(34,3,o),
(38,0,o),
(56,0,cs),
(194,0,ls)
);
}
);
width = 425;
}
);
note = uni0630;
unicode = 1584;
},
{
glyphname = uni0631;
layers = (
{
layerId = m01;
shapes = (
{
closed = 1;
nodes = (
(4,-107,o),
(-19,-102,o),
(-50,-91,cs),
(-55,-89,o),
(-61,-87,o),
(-67,-87,cs),
(-78,-87,o),
(-84,-95,o),
(-82,-105,cs),
(-78,-134,o),
(-63,-160,o),
(-41,-179,cs),
(-15,-201,o),
(18,-213,o),
(55,-214,cs),
(171,-217,o),
(230,-126,o),
(230,32,cs),
(230,360,ls),
(230,368,o),
(226,372,o),
(217,372,cs),
(207,372,ls),
(147,372,o),
(116,343,o),
(116,278,cs),
(116,9,ls),
(116,-67,o),
(92,-103,o),
(32,-106,cs)
);
}
);
width = 283;
}
);
note = uni0631;
unicode = 1585;
},
{
glyphname = uni0632;
layers = (
{
layerId = m01;
shapes = (
{
closed = 1;
nodes = (
(143,549,o),
(117,524,o),
(117,490,cs),
(117,457,o),
(143,431,o),
(175,431,cs),
(208,431,o),
(233,457,o),
(233,490,cs),
(233,524,o),
(208,549,o),
(175,549,cs)
);
},
{
closed = 1;
nodes = (
(4,-107,o),
(-19,-102,o),
(-50,-91,cs),
(-55,-89,o),
(-61,-87,o),
(-67,-87,cs),
(-78,-87,o),
(-84,-95,o),
(-82,-105,cs),
(-78,-134,o),
(-63,-160,o),
(-41,-179,cs),
(-15,-201,o),
(18,-213,o),
(55,-214,cs),
(171,-217,o),
(230,-126,o),
(230,32,cs),
(230,360,ls),
(230,368,o),
(226,372,o),
(217,372,cs),
(207,372,ls),
(147,372,o),
(116,343,o),
(116,278,cs),
(116,9,ls),
(116,-67,o),
(92,-103,o),
(32,-106,cs)
);
}
);
width = 283;
}
);
note = uni0632;
unicode = 1586;
},
{
glyphname = uni0633;
layers = (
{
layerId = m01;
shapes = (
{
closed = 1;
nodes = (
(972,372,o),
(940,343,o),
(940,279,cs),
(940,179,ls),
(940,129,o),
(918,101,o),
(876,101,cs),
(833,101,o),
(812,129,o),
(812,179,cs),
(812,338,ls),
(812,346,o),
(808,349,o),
(799,349,cs),
(789,349,ls),
(729,349,o),
(698,321,o),
(698,257,cs),
(698,179,ls),
(698,129,o),
(676,101,o),
(633,101,cs),
(591,101,o),
(570,129,o),
(570,179,cs),
(570,314,ls),
(570,323,o),
(566,327,o),
(557,327,cs),
(547,327,ls),
(487,327,o),
(456,298,o),
(456,233,cs),
(456,72,ls),
(456,-43,o),
(395,-106,o),
(303,-106,cs),
(213,-106,o),
(149,-43,o),
(150,71,cs),
(151,130,o),
(171,182,o),
(194,218,c),
(198,222,o),
(200,227,o),
(200,231,cs),
(200,239,o),
(193,244,o),
(183,244,cs),
(179,244,o),
(174,243,o),
(168,242,c),
(95,218,o),
(41,144,o),
(41,48,cs),
(40,-106,o),
(149,-214,o),
(303,-214,cs),
(442,-214,o),
(541,-132,o),
(564,10,c),
(588,-2,o),
(615,-10,o),
(646,-10,cs),
(693,-10,o),
(728,5,o),
(756,32,c),
(784,5,o),
(826,-10,o),
(877,-10,cs),
(992,-10,o),
(1054,64,o),
(1054,177,cs),
(1054,360,ls),
(1054,368,o),
(1050,372,o),
(1042,372,cs),
(1031,372,ls)
);
}
);
width = 1108;
}
);
note = uni0633;
unicode = 1587;
},
{
glyphname = uni0634;
layers = (
{
layerId = m01;
shapes = (
{
closed = 1;
nodes = (
(784,528,o),
(808,551,o),
(808,580,cs),
(808,609,o),
(784,632,o),
(757,632,cs),
(728,632,o),
(706,609,o),
(706,580,cs),
(706,551,o),
(728,528,o),
(757,528,cs)
);
},
{
closed = 1;
nodes = (
(723,409,o),
(748,434,o),
(748,466,cs),
(748,498,o),
(723,523,o),
(692,523,cs),
(661,523,o),
(637,498,o),
(637,466,cs),
(637,434,o),
(661,409,o),
(692,409,cs)
);
},
{
closed = 1;
nodes = (
(765,434,o),
(790,409,o),
(821,409,cs),
(852,409,o),
(877,434,o),
(877,466,cs),
(877,498,o),
(852,523,o),
(821,523,cs),
(790,523,o),
(765,498,o),
(765,466,cs)
);
},
{
closed = 1;
nodes = (
(972,372,o),
(940,343,o),
(940,279,cs),
(940,179,ls),
(940,129,o),
(918,101,o),
(876,101,cs),
(833,101,o),
(812,129,o),
(812,179,cs),
(812,338,ls),
(812,346,o),
(808,349,o),
(799,349,cs),
(789,349,ls),
(729,349,o),
(698,321,o),
(698,257,cs),
(698,179,ls),
(698,129,o),
(676,101,o),
(633,101,cs),
(591,101,o),
(570,129,o),
(570,179,cs),
(570,314,ls),
(570,323,o),
(566,327,o),
(557,327,cs),
(547,327,ls),
(487,327,o),
(456,298,o),
(456,233,cs),
(456,72,ls),
(456,-43,o),
(395,-106,o),
(303,-106,cs),
(213,-106,o),
(149,-43,o),
(150,71,cs),
(151,130,o),
(171,182,o),
(194,218,c),
(198,222,o),
(200,227,o),
(200,231,cs),
(200,239,o),
(193,244,o),
(183,244,cs),
(179,244,o),
(174,243,o),
(168,242,c),
(95,218,o),
(41,144,o),
(41,48,cs),
(40,-106,o),
(149,-214,o),
(303,-214,cs),
(442,-214,o),
(541,-132,o),
(564,10,c),
(588,-2,o),
(615,-10,o),
(646,-10,cs),
(693,-10,o),
(728,5,o),
(756,32,c),
(784,5,o),
(826,-10,o),
(877,-10,cs),
(992,-10,o),
(1054,64,o),
(1054,177,cs),
(1054,360,ls),
(1054,368,o),
(1050,372,o),
(1042,372,cs),
(1031,372,ls)
);
}
);
width = 1108;
}
);
note = uni0634;
unicode = 1588;
},
{
glyphname = uni0635;
layers = (
{
layerId = m01;
shapes = (
{
closed = 1;
nodes = (
(814,391,o),
(689,272,o),
(633,114,c),
(601,114,o),
(571,132,o),
(570,189,cs),
(570,359,ls),
(570,368,o),
(566,372,o),
(557,372,cs),
(547,372,ls),
(487,372,o),
(456,343,o),
(456,278,cs),
(456,72,ls),
(456,-43,o),
(395,-106,o),
(303,-106,cs),
(213,-106,o),
(149,-43,o),
(150,71,cs),
(151,130,o),
(171,182,o),
(194,218,c),
(198,222,o),
(200,227,o),
(200,231,cs),
(200,239,o),
(193,244,o),
(183,244,cs),
(179,244,o),
(174,243,o),
(168,242,c),
(95,218,o),
(41,144,o),
(41,48,cs),
(40,-106,o),
(149,-214,o),
(303,-214,cs),
(442,-214,o),
(541,-131,o),
(564,11,c),
(582,4,o),
(601,0,o),
(624,0,cs),
(1007,0,ls),
(1107,0,o),
(1190,70,o),
(1190,189,cs),
(1190,302,o),
(1114,391,o),
(982,391,cs)
);
},
{
closed = 1;
nodes = (
(806,219,o),
(883,282,o),
(976,282,cs),
(1026,282,o),
(1072,257,o),
(1072,196,cs),
(1073,158,o),
(1051,114,o),
(1001,114,cs),
(760,114,l)
);
}
);
width = 1236;
}
);
note = uni0635;
unicode = 1589;
},
{
glyphname = uni0636;
layers = (
{
layerId = m01;
shapes = (
{
closed = 1;
nodes = (
(977,447,o),
(1002,473,o),
(1002,506,cs),
(1002,540,o),
(977,566,o),
(944,566,cs),
(912,566,o),
(886,540,o),
(886,506,cs),
(886,473,o),
(912,447,o),
(944,447,cs)
);
},
{
closed = 1;
nodes = (
(814,391,o),
(689,272,o),
(633,114,c),
(601,114,o),
(571,132,o),
(570,189,cs),
(570,359,ls),
(570,368,o),
(566,372,o),
(557,372,cs),
(547,372,ls),
(487,372,o),
(456,343,o),
(456,278,cs),
(456,72,ls),
(456,-43,o),
(395,-106,o),
(303,-106,cs),
(213,-106,o),
(149,-43,o),
(150,71,cs),
(151,130,o),
(171,182,o),
(194,218,c),
(198,222,o),
(200,227,o),
(200,231,cs),
(200,239,o),
(193,244,o),
(183,244,cs),
(179,244,o),
(174,243,o),
(168,242,c),
(95,218,o),
(41,144,o),
(41,48,cs),
(40,-106,o),
(149,-214,o),
(303,-214,cs),
(442,-214,o),
(541,-131,o),
(564,11,c),
(582,4,o),
(601,0,o),
(624,0,cs),
(1007,0,ls),
(1107,0,o),
(1190,70,o),
(1190,189,cs),
(1190,302,o),
(1114,391,o),
(982,391,cs)
);
},
{
closed = 1;
nodes = (
(806,219,o),
(883,282,o),
(976,282,cs),
(1026,282,o),
(1072,257,o),
(1072,196,cs),
(1073,158,o),
(1051,114,o),
(1001,114,cs),
(760,114,l)
);
}
);
width = 1236;
}
);
note = uni0636;
unicode = 1590;
},
{
glyphname = uni0637;
layers = (
{
layerId = m01;
shapes = (
{
closed = 1;
nodes = (
(392,391,o),
(317,357,o),
(258,302,c),
(258,543,ls),
(258,552,o),
(253,556,o),
(245,556,cs),
(235,556,ls),
(175,556,o),
(143,527,o),
(143,462,cs),
(143,114,l),
(131,114,ls),
(71,114,o),
(34,81,o),
(34,31,cs),
(34,20,ls),
(34,3,o),
(38,0,o),
(56,0,cs),
(505,0,ls),
(605,0,o),
(688,70,o),
(688,189,cs),
(688,302,o),
(612,391,o),
(481,391,cs)
);
},
{
closed = 1;
nodes = (
(304,219,o),
(381,282,o),
(473,282,cs),
(525,282,o),
(570,257,o),
(571,196,cs),
(571,158,o),
(548,114,o),
(499,114,cs),
(258,114,l)
);
}
);
width = 735;
}
);
note = uni0637;
unicode = 1591;
},
{
glyphname = uni0638;
layers = (
{
layerId = m01;
shapes = (
{
closed = 1;
nodes = (
(475,447,o),
(501,473,o),
(501,507,cs),
(501,541,o),
(475,566,o),
(442,566,cs),
(410,566,o),
(384,541,o),
(384,507,cs),
(384,473,o),
(410,447,o),
(442,447,cs)
);
},
{
closed = 1;
nodes = (
(392,391,o),
(317,357,o),
(258,302,c),
(258,543,ls),
(258,552,o),
(253,556,o),
(245,556,cs),
(235,556,ls),
(175,556,o),
(143,527,o),
(143,462,cs),
(143,114,l),
(131,114,ls),
(71,114,o),
(34,81,o),
(34,31,cs),
(34,20,ls),
(34,3,o),
(38,0,o),
(56,0,cs),
(505,0,ls),
(605,0,o),
(688,70,o),
(688,189,cs),
(688,302,o),
(612,391,o),
(481,391,cs)
);
},
{
closed = 1;
nodes = (
(304,219,o),
(381,282,o),
(473,282,cs),
(525,282,o),
(570,257,o),
(571,196,cs),
(571,158,o),
(548,114,o),
(499,114,cs),
(258,114,l)
);
}
);
width = 735;
}
);
note = uni0638;
unicode = 1592;
},
{
glyphname = uni0639;
layers = (
{
layerId = m01;
shapes = (
{
closed = 1;
nodes = (
(455,-183,o),
(448,-186,o),
(439,-190,cs),
(418,-201,o),
(399,-208,o),
(380,-213,cs),
(356,-221,o),
(329,-224,o),
(292,-223,cs),
(209,-222,o),
(163,-174,o),
(163,-111,cs),
(163,-54,o),
(205,0,o),
(279,0,cs),
(448,0,ls),
(466,0,o),
(470,3,o),
(470,20,cs),
(470,30,ls),
(470,79,o),
(432,114,o),
(373,114,cs),
(276,114,ls),
(222,114,o),
(197,158,o),
(197,197,cs),
(197,250,o),
(235,283,o),
(291,282,cs),
(325,282,o),
(363,269,o),
(383,257,cs),
(389,253,o),
(395,251,o),
(399,251,cs),
(413,252,o),
(416,264,o),
(417,281,cs),
(418,344,o),
(358,391,o),
(273,391,cs),
(164,391,o),
(79,309,o),
(81,198,cs),
(81,153,o),
(99,106,o),
(133,74,c),
(74,36,o),
(40,-29,o),
(40,-107,cs),
(40,-234,o),
(133,-331,o),
(274,-331,cs),
(318,-331,o),
(356,-323,o),
(388,-309,cs),
(436,-288,o),
(466,-251,o),
(470,-203,cs),
(471,-193,o),
(467,-186,o),
(459,-184,cs)
);
}
);
width = 514;
}
);
note = uni0639;
unicode = 1593;
},
{
glyphname = uni063A;
layers = (
{
layerId = m01;
shapes = (
{
closed = 1;
nodes = (
(291,449,o),
(317,475,o),
(317,508,cs),
(317,542,o),
(291,568,o),
(258,568,cs),
(226,568,o),
(200,542,o),
(200,508,cs),
(200,475,o),
(226,449,o),
(258,449,cs)
);
},
{
closed = 1;
nodes = (
(455,-183,o),
(448,-186,o),
(439,-190,cs),
(418,-201,o),
(399,-208,o),
(380,-213,cs),
(356,-221,o),
(329,-224,o),
(292,-223,cs),
(209,-222,o),
(163,-174,o),
(163,-111,cs),
(163,-54,o),
(205,0,o),
(279,0,cs),
(448,0,ls),
(466,0,o),
(470,3,o),
(470,20,cs),
(470,30,ls),
(470,79,o),
(432,114,o),
(373,114,cs),
(276,114,ls),
(222,114,o),
(197,158,o),
(197,197,cs),
(197,250,o),
(235,283,o),
(291,282,cs),
(325,282,o),
(363,269,o),
(383,257,cs),
(389,253,o),
(395,251,o),
(399,251,cs),
(413,252,o),
(416,264,o),
(417,281,cs),
(418,344,o),
(358,391,o),
(273,391,cs),
(164,391,o),
(79,309,o),
(81,198,cs),
(81,153,o),
(99,106,o),
(133,74,c),
(74,36,o),
(40,-29,o),
(40,-107,cs),
(40,-234,o),
(133,-331,o),
(274,-331,cs),
(318,-331,o),
(356,-323,o),
(388,-309,cs),
(436,-288,o),
(466,-251,o),
(470,-203,cs),
(471,-193,o),
(467,-186,o),
(459,-184,cs)
);
}
);
width = 514;
}
);
note = uni063A;
unicode = 1594;
},
{
glyphname = uni0640;
layers = (
{
layerId = m01;
shapes = (
{
closed = 1;
nodes = (
(-1,0,l),
(115,0,l),
(115,114,l),
(-1,114,l)
);
}
);
width = 104;
}
);
note = uni0640;
unicode = 1600;
},
{
glyphname = uni0641;
layers = (
{
layerId = m01;
shapes = (
{
closed = 1;
nodes = (
(666,449,o),
(691,475,o),
(691,508,cs),
(691,542,o),
(666,568,o),
(633,568,cs),
(601,568,o),
(574,542,o),
(574,508,cs),
(574,475,o),
(601,449,o),
(633,449,cs)
);
},
{
closed = 1;
nodes = (
(529,391,o),
(449,316,o),
(449,195,cs),
(449,166,o),
(456,137,o),
(469,114,c),
(233,114,ls),
(177,114,o),
(139,142,o),
(139,199,cs),
(139,235,o),
(154,259,o),
(168,279,cs),
(171,284,o),
(174,292,o),
(174,297,cs),
(174,304,o),
(170,311,o),
(159,311,cs),
(154,311,o),
(150,309,o),
(144,308,c),
(81,286,o),
(40,225,o),
(40,159,cs),
(40,62,o),
(118,0,o),
(227,0,cs),
(635,0,ls),
(736,2,o),
(815,76,o),
(815,195,cs),
(815,316,o),
(735,391,o),
(632,391,cs)
);
},
{
closed = 1;
nodes = (
(583,114,o),
(567,168,o),
(567,198,cs),
(567,229,o),
(583,282,o),
(633,282,cs),
(682,282,o),
(698,229,o),
(698,198,cs),
(698,168,o),
(682,114,o),
(633,114,cs)
);
}
);
width = 862;
}
);
note = uni0641;
unicode = 1601;
},
{
glyphname = uni0642;
layers = (
{
layerId = m01;
shapes = (
{
closed = 1;
nodes = (
(424,445,o),
(449,470,o),
(449,502,cs),
(449,534,o),
(424,559,o),
(393,559,cs),
(362,559,o),
(337,534,o),
(337,502,cs),
(337,470,o),
(362,445,o),
(393,445,cs)
);
},
{
closed = 1;
nodes = (
(553,445,o),
(578,470,o),
(578,502,cs),
(578,534,o),
(553,559,o),
(522,559,cs),
(492,559,o),
(466,534,o),
(466,502,cs),
(466,470,o),
(492,445,o),
(522,445,cs)
);
},
{
closed = 1;
nodes = (
(593,349,o),
(541,391,o),
(458,391,cs),
(356,391,o),
(274,319,o),
(274,187,cs),
(274,74,o),
(346,-9,o),
(449,-10,cs),
(467,-10,o),
(488,-7,o),
(513,2,c),
(489,-67,o),
(430,-106,o),
(341,-106,cs),
(226,-106,o),
(154,-41,o),
(153,71,cs),
(152,121,o),
(166,177,o),
(191,218,cs),
(194,223,o),
(197,230,o),
(197,234,cs),
(197,244,o),
(193,249,o),
(183,249,cs),
(179,249,o),
(173,247,o),
(167,245,cs),
(99,218,o),
(45,142,o),
(43,51,cs),
(40,-82,o),
(142,-213,o),
(341,-214,cs),
(533,-216,o),
(642,-97,o),
(643,112,cs),
(644,171,o),
(638,239,o),
(620,281,cs)
);
},
{
closed = 1;
nodes = (
(392,237,o),
(412,282,o),
(458,282,cs),
(488,282,o),
(506,263,o),
(515,238,cs),
(523,216,o),
(526,170,o),
(525,139,cs),
(525,132,o),
(524,125,o),
(524,120,c),
(508,107,o),
(485,101,o),
(460,101,cs),
(420,101,o),
(392,132,o),
(392,193,cs)
);
}
);
width = 687;
}
);
note = uni0642;
unicode = 1602;
},
{
glyphname = uni0643;
layers = (
{
layerId = m01;
shapes = (
{
closed = 1;
nodes = (
(621,556,o),
(589,527,o),
(589,462,cs),
(589,189,ls),
(589,143,o),
(568,114,o),
(526,114,cs),
(233,114,ls),
(177,114,o),
(139,142,o),
(139,199,cs),
(139,235,o),
(154,259,o),
(168,279,cs),
(171,284,o),
(174,291,o),
(174,297,cs),
(174,304,o),
(171,311,o),
(159,311,cs),
(155,311,o),
(150,310,o),
(144,308,cs),
(81,285,o),
(40,225,o),
(40,159,cs),
(40,62,o),
(118,0,o),
(227,0,cs),
(523,0,ls),
(639,0,o),
(704,73,o),
(704,187,cs),
(704,544,ls),
(704,552,o),
(699,556,o),
(691,556,cs),
(680,556,ls)
);
},
{
closed = 1;
nodes = (
(281,263,o),
(282,263,o),
(289,267,cs),
(303,273,o),
(315,275,o),
(333,275,cs),
(468,275,ls),
(476,275,o),
(478,277,o),
(478,285,cs),
(478,290,ls),
(478,314,o),
(462,331,o),
(432,331,cs),
(397,331,ls),
(365,331,o),
(351,354,o),
(351,372,cs),
(351,396,o),
(367,410,o),
(394,410,cs),
(408,410,o),
(421,407,o),
(433,401,cs),
(439,397,o),
(444,394,o),
(448,394,cs),
(454,394,o),
(456,401,o),
(456,410,cs),
(456,441,o),
(425,465,o),
(382,464,cs),
(340,464,o),
(293,432,o),
(293,372,cs),
(293,358,o),
(299,341,o),
(309,326,c),
(282,318,o),
(264,296,o),
(272,267,cs),
(273,264,o),
(276,263,o),
(278,263,cs)
);
}
);
width = 758;
}
);
note = uni0643;
unicode = 1603;
},
{
glyphname = uni0644;
layers = (
{
layerId = m01;
shapes = (
{
closed = 1;
nodes = (
(463,-214,o),
(571,-104,o),
(570,79,cs),
(570,543,ls),
(570,552,o),
(566,556,o),
(557,556,cs),
(547,556,ls),
(487,556,o),
(456,527,o),
(456,462,cs),
(456,72,ls),
(456,-43,o),
(395,-106,o),
(303,-106,cs),
(213,-106,o),
(149,-43,o),
(150,71,cs),
(151,130,o),
(171,182,o),
(194,218,c),
(198,222,o),
(200,227,o),
(200,231,cs),
(200,239,o),
(193,244,o),
(183,244,cs),
(179,244,o),
(174,243,o),
(168,242,c),
(95,218,o),
(41,144,o),
(41,48,cs),
(40,-106,o),
(149,-214,o),
(303,-214,cs)
);
}
);
width = 623;
}
);
note = uni0644;
unicode = 1604;
},
{
glyphname = uni0645;
layers = (
{
layerId = m01;
shapes = (
{
closed = 1;
nodes = (
(287,391,o),
(245,309,o),
(194,201,cs),
(181,175,o),
(173,155,o),
(163,142,c),
(77,126,o),
(32,62,o),
(32,-38,cs),
(32,-277,ls),
(32,-285,o),
(36,-288,o),
(45,-288,cs),
(55,-288,ls),
(115,-288,o),
(147,-261,o),
(147,-196,cs),
(147,-40,ls),
(147,8,o),
(163,31,o),
(204,32,cs),
(222,32,l),
(279,3,o),
(325,-10,o),
(383,-10,cs),
(498,-10,o),
(564,61,o),
(564,179,cs),
(564,262,o),
(524,391,o),
(384,391,cs)
);
},
{
closed = 1;
nodes = (
(368,100,o),
(335,103,o),
(286,127,c),
(292,136,o),
(299,148,o),
(308,167,cs),
(334,227,o),
(360,282,o),
(390,282,cs),
(425,282,o),
(445,246,o),
(445,181,cs),
(445,123,o),
(425,103,o),
(388,101,cs)
);
}
);
width = 610;
}
);
note = uni0645;
unicode = 1605;
},
{
glyphname = uni0646;
layers = (
{
layerId = m01;
shapes = (
{
closed = 1;
nodes = (
(266,453,o),
(239,427,o),
(239,393,cs),
(239,360,o),
(266,334,o),
(298,334,cs),
(331,334,o),
(356,360,o),
(356,393,cs),
(356,427,o),
(331,453,o),
(298,453,cs)
);
},
{
closed = 1;
nodes = (
(463,-214,o),
(571,-104,o),
(570,79,cs),
(570,359,ls),
(570,368,o),
(566,372,o),
(557,372,cs),
(547,372,ls),
(487,372,o),
(456,343,o),
(456,278,cs),
(456,72,ls),
(456,-43,o),
(395,-106,o),
(303,-106,cs),
(213,-106,o),
(149,-43,o),
(150,71,cs),
(151,130,o),
(171,182,o),
(194,218,c),
(198,222,o),
(200,227,o),
(200,231,cs),
(200,239,o),
(193,244,o),
(183,244,cs),
(179,244,o),
(174,243,o),
(168,242,c),
(95,218,o),
(41,144,o),
(41,48,cs),
(40,-106,o),
(149,-214,o),
(303,-214,cs)
);
}
);
width = 623;
}
);
note = uni0646;
unicode = 1606;
},
{
glyphname = uni0647;
layers = (
{
layerId = m01;
shapes = (
{
closed = 1;
nodes = (
(313,374,o),
(304,382,o),
(294,389,cs),
(262,416,o),
(236,435,o),
(218,469,cs),
(214,478,o),
(212,485,o),
(203,483,c),
(201,482,o),
(195,480,o),
(193,479,cs),
(156,460,o),
(131,429,o),
(139,401,cs),
(143,390,o),
(147,383,o),
(152,376,c),
(69,327,o),
(40,252,o),
(40,188,cs),
(40,49,o),
(135,-10,o),
(226,-10,cs),
(338,-10,o),
(411,69,o),
(411,188,cs),
(411,258,o),
(384,314,o),
(323,366,cs)
);
},
{
closed = 1;
nodes = (
(186,99,o),
(157,138,o),
(158,186,cs),
(158,224,o),
(171,260,o),
(223,296,c),
(243,280,o),
(256,268,o),
(268,253,cs),
(286,231,o),
(293,209,o),
(293,187,cs),
(295,138,o),
(265,99,o),
(226,99,cs)
);
}
);
width = 458;
}
);
note = uni0647;
unicode = 1607;
},
{
glyphname = uni0648;
layers = (
{
layerId = m01;
shapes = (
{
closed = 1;
nodes = (
(359,349,o),
(307,391,o),
(223,391,cs),
(121,391,o),
(40,319,o),
(40,187,cs),
(40,74,o),
(112,-9,o),
(215,-10,cs),
(234,-10,o),
(259,-7,o),
(291,6,c),
(283,-60,o),
(248,-104,o),
(188,-106,cs),
(141,-107,o),
(120,-100,o),
(92,-91,cs),
(87,-89,o),
(81,-87,o),
(74,-87,cs),
(64,-87,o),
(57,-94,o),
(59,-106,cs),
(64,-132,o),
(77,-156,o),
(96,-173,cs),
(123,-198,o),
(161,-213,o),
(211,-214,cs),
(279,-216,o),
(339,-178,o),
(370,-113,cs),
(406,-45,o),
(409,45,o),
(409,127,cs),
(409,184,o),
(402,241,o),
(386,281,cs)
);
},
{
closed = 1;
nodes = (
(291,132,o),
(290,125,o),
(290,120,c),
(274,107,o),
(251,101,o),
(226,101,cs),
(186,101,o),
(158,132,o),
(158,193,cs),
(158,237,o),
(178,282,o),
(223,282,cs),
(253,282,o),
(271,263,o),
(281,238,cs),
(289,216,o),
(291,170,o),
(291,139,cs)
);
}
);
width = 456;
}
);
note = uni0648;
unicode = 1608;
},
{
glyphname = uni0649;
layers = (
{
layerId = m01;
shapes = (
{
closed = 1;
nodes = (
(153,121,o),
(167,177,o),
(192,218,cs),
(195,223,o),
(198,230,o),
(198,234,cs),
(198,244,o),
(193,249,o),
(183,249,cs),
(180,249,o),
(174,247,o),
(167,245,c),
(100,218,o),
(46,142,o),
(43,51,cs),
(39,-87,o),
(152,-214,o),
(338,-214,cs),
(497,-214,o),
(624,-116,o),
(626,21,cs),
(627,101,o),
(550,127,o),
(466,146,cs),
(421,155,o),
(391,174,o),
(391,205,cs),
(391,252,o),
(425,282,o),
(479,282,cs),
(511,282,o),
(547,269,o),
(568,257,cs),
(575,253,o),
(580,251,o),
(584,251,cs),
(598,252,o),
(602,265,o),
(602,283,cs),
(602,308,o),
(592,329,o),
(577,346,cs),
(553,373,o),
(513,391,o),
(460,391,cs),
(353,391,o),
(274,312,o),
(274,204,cs),
(274,113,o),
(333,62,o),
(422,43,cs),
(466,33,o),
(511,28,o),
(507,-4,cs),
(500,-63,o),
(425,-106,o),
(342,-106,cs),
(226,-106,o),
(153,-41,o),
(153,71,cs)
);
}
);
width = 668;
}
);
note = uni0649;
unicode = 1609;
},
{
glyphname = uni064A;
layers = (
{
layerId = m01;
shapes = (
{
closed = 1;
nodes = (
(153,121,o),
(167,177,o),
(192,218,cs),
(195,223,o),
(198,230,o),
(198,234,cs),
(198,244,o),
(193,249,o),
(183,249,cs),
(180,249,o),
(174,247,o),
(167,245,c),
(100,218,o),
(46,142,o),
(43,51,cs),
(39,-87,o),
(152,-214,o),
(338,-214,cs),
(497,-214,o),
(624,-116,o),
(626,21,cs),
(627,101,o),
(550,127,o),
(466,146,cs),
(421,155,o),
(391,174,o),
(391,205,cs),
(391,252,o),
(425,282,o),
(479,282,cs),
(511,282,o),
(547,269,o),
(568,257,cs),
(575,253,o),
(580,251,o),
(584,251,cs),
(598,252,o),
(602,265,o),
(602,283,cs),
(602,308,o),
(592,329,o),
(577,346,cs),
(553,373,o),
(513,391,o),
(460,391,cs),
(353,391,o),
(274,312,o),
(274,204,cs),
(274,113,o),
(333,62,o),
(422,43,cs),
(466,33,o),
(511,28,o),
(507,-4,cs),
(500,-63,o),
(425,-106,o),
(342,-106,cs),
(226,-106,o),
(153,-41,o),
(153,71,cs)
);
},
{
closed = 1;
nodes = (
(243,-264,o),
(218,-289,o),
(218,-321,cs),
(218,-353,o),
(243,-378,o),
(275,-378,cs),
(306,-378,o),
(331,-353,o),
(331,-321,cs),
(331,-289,o),
(306,-264,o),
(275,-264,cs)
);
},
{
closed = 1;
nodes = (
(373,-264,o),
(347,-289,o),
(347,-321,cs),
(347,-353,o),
(373,-378,o),
(403,-378,cs),
(434,-378,o),
(459,-353,o),
(459,-321,cs),
(459,-289,o),
(434,-264,o),
(403,-264,cs)
);
}
);
width = 668;
}
);
note = uni064A;
unicode = 1610;
},
{
glyphname = uni064B;
layers = (
{
layerId = m01;
shapes = (
{
closed = 1;
nodes = (
(27,755,o),
(4,741,o),
(3,713,cs),
(3,707,o),
(5,702,o),
(6,698,cs),
(8,694,o),
(10,693,o),
(11,693,cs),
(12,693,o),
(14,694,o),
(18,696,cs),
(24,699,o),
(36,706,o),
(59,706,cs),
(182,706,ls),
(191,706,o),
(192,707,o),
(192,713,cs),
(192,719,ls),
(192,741,o),
(177,756,o),
(150,756,cs),
(116,756,l),
(60,756,ls)
);
},
{
closed = 1;
nodes = (
(27,666,o),
(4,652,o),
(3,624,cs),
(3,618,o),
(5,613,o),
(6,609,c),
(8,606,o),
(10,604,o),
(11,604,cs),
(12,604,o),
(14,605,o),
(18,607,cs),
(24,610,o),
(36,617,o),
(59,617,cs),
(182,617,ls),
(191,617,o),
(192,618,o),
(192,624,cs),
(192,630,ls),
(192,652,o),
(177,667,o),
(150,667,cs),
(116,667,l),
(60,667,ls)
);
}
);
width = 0;
}
);
note = uni064B;
unicode = 1611;
},
{
glyphname = uni064C;
layers = (
{
layerId = m01;
shapes = (
{
closed = 1;
nodes = (
(142,642,o),
(116,616,o),
(116,580,cs),
(116,563,o),
(126,543,o),
(143,527,c),
(128,516,l),
(125,513,o),
(121,512,o),
(119,512,cs),
(113,512,o),
(106,518,o),
(101,523,cs),
(84,539,o),
(71,547,o),
(56,547,cs),
(39,547,o),
(23,536,o),
(18,519,cs),
(12,503,o),
(14,484,o),
(25,470,cs),
(30,464,o),
(34,465,o),
(37,472,cs),
(45,488,o),
(49,496,o),
(56,496,cs),
(61,496,o),
(68,491,o),
(74,483,cs),
(87,469,o),
(96,460,o),
(110,460,cs),
(126,460,o),
(139,468,o),
(145,473,cs),
(176,496,l),
(192,481,ls),
(196,477,o),
(199,477,o),
(202,479,cs),
(220,492,o),
(224,509,o),
(215,524,c),
(235,543,o),
(246,558,o),
(246,578,cs),
(247,613,o),
(222,641,o),
(181,642,cs)
);
},
{
closed = 1;
nodes = (
(169,561,o),
(162,569,o),
(162,580,cs),
(161,592,o),
(170,601,o),
(183,601,cs),
(193,601,o),
(202,592,o),
(202,580,cs),
(202,571,o),
(195,562,o),
(180,551,c)
);
}
);
width = 0;
}
);
note = uni064C;
unicode = 1612;
},
{
glyphname = uni064D;
layers = (
{
layerId = m01;
shapes = (
{
closed = 1;
nodes = (
(26,-63,o),
(3,-77,o),
(2,-104,cs),
(2,-111,o),
(4,-116,o),
(5,-120,c),
(7,-123,o),
(9,-124,o),
(10,-124,cs),
(11,-124,o),
(13,-124,o),
(17,-122,cs),
(23,-119,o),
(35,-112,o),
(58,-112,cs),
(181,-112,ls),
(190,-112,o),
(191,-111,o),
(191,-104,cs),
(191,-99,ls),
(191,-77,o),
(176,-62,o),
(149,-62,cs),
(115,-62,l),
(59,-62,ls)
);
},
{
closed = 1;
nodes = (
(26,-152,o),
(3,-166,o),
(2,-193,cs),
(2,-200,o),
(4,-205,o),
(5,-209,c),
(7,-212,o),
(9,-213,o),
(10,-213,cs),
(11,-213,o),
(13,-213,o),
(17,-211,cs),
(23,-208,o),
(35,-201,o),
(58,-201,cs),
(181,-201,ls),
(190,-201,o),
(191,-200,o),
(191,-193,cs),
(191,-188,ls),
(191,-166,o),
(176,-151,o),
(149,-151,cs),
(115,-151,l),
(59,-151,ls)
);
}
);
width = 0;
}
);
note = uni064D;
unicode = 1613;
},
{
glyphname = uni064E;
layers = (
{
layerId = m01;
shapes = (
{
closed = 1;
nodes = (
(27,666,o),
(4,652,o),
(3,624,cs),
(3,618,o),
(5,613,o),
(6,609,c),
(8,606,o),
(10,604,o),
(11,604,cs),
(12,604,o),
(14,605,o),
(18,607,cs),
(24,610,o),
(36,617,o),
(59,617,cs),
(182,617,ls),
(191,617,o),
(192,618,o),
(192,624,cs),
(192,630,ls),
(192,652,o),
(177,667,o),
(150,667,cs),
(116,667,l),
(60,667,ls)
);
}
);
width = 0;
}
);
note = uni064E;
unicode = 1614;
},
{
glyphname = uni064F;
layers = (
{
layerId = m01;
shapes = (
{
closed = 1;
nodes = (
(194,618,o),
(170,645,o),
(129,647,cs),
(89,647,o),
(63,621,o),
(64,585,cs),
(64,568,o),
(74,549,o),
(89,532,c),
(62,513,o),
(32,493,o),
(17,484,cs),
(15,483,o),
(14,481,o),
(15,478,c),
(18,474,ls),
(25,464,o),
(37,459,o),
(49,459,cs),
(58,459,o),
(65,461,o),
(75,467,cs),
(85,473,o),
(99,484,o),
(123,501,c),
(139,485,ls),
(143,481,o),
(146,481,o),
(150,483,c),
(167,497,o),
(171,514,o),
(162,529,c),
(183,547,o),
(194,563,o),
(194,583,cs)
);
},
{
closed = 1;
nodes = (
(149,576,o),
(142,567,o),
(127,556,c),
(116,566,o),
(110,574,o),
(109,584,cs),
(109,597,o),
(117,606,o),
(130,606,cs),
(140,606,o),
(150,597,o),
(149,584,cs)
);
}
);
width = 0;
}
);
note = uni064F;
unicode = 1615;
},
{
glyphname = uni0650;
layers = (
{
layerId = m01;
shapes = (
{
closed = 1;
nodes = (
(26,-63,o),
(3,-77,o),
(2,-104,cs),
(2,-111,o),
(4,-116,o),
(5,-120,c),
(7,-123,o),
(9,-124,o),
(10,-124,cs),
(11,-124,o),
(13,-124,o),
(17,-122,cs),
(23,-119,o),
(35,-112,o),
(58,-112,cs),
(181,-112,ls),
(190,-112,o),
(191,-111,o),
(191,-104,cs),
(191,-99,ls),
(191,-77,o),
(176,-62,o),
(149,-62,cs),
(115,-62,l),
(59,-62,ls)
);
}
);
width = 0;
}
);
note = uni0650;
unicode = 1616;
},
{
glyphname = uni0651;
layers = (
{
layerId = m01;
shapes = (
{
closed = 1;
nodes = (
(235,614,o),
(224,610,o),
(216,601,cs),
(209,592,o),
(206,578,o),
(206,563,cs),
(206,537,ls),
(206,515,o),
(196,507,o),
(182,507,cs),
(170,507,o),
(160,516,o),
(160,537,cs),
(160,610,ls),
(160,613,o),
(158,614,o),
(155,614,cs),
(150,614,ls),
(136,614,o),
(126,610,o),
(118,601,cs),
(111,592,o),
(107,578,o),
(107,563,cs),
(107,537,ls),
(107,516,o),
(97,507,o),
(84,507,cs),
(71,507,o),
(61,515,o),
(61,537,cs),
(61,610,ls),
(61,613,o),
(60,614,o),
(57,614,cs),
(51,614,ls),
(36,614,o),
(25,609,o),
(17,598,cs),
(12,589,o),
(9,577,o),
(9,563,cs),
(9,542,ls),
(9,488,o),
(40,458,o),
(85,458,cs),
(103,458,o),
(121,464,o),
(134,477,c),
(147,464,o),
(164,458,o),
(183,458,cs),
(227,458,o),
(257,488,o),
(257,542,cs),
(257,610,ls),
(257,613,o),
(257,614,o),
(253,614,cs),
(248,614,ls)
);
}
);
width = 0;
}
);
note = uni0651;
unicode = 1617;
},
{
glyphname = uni0652;
layers = (
{
layerId = m01;
shapes = (
{
closed = 1;
nodes = (
(108,457,o),
(135,484,o),
(135,522,cs),
(135,560,o),
(108,588,o),
(69,588,cs),
(30,588,o),
(2,560,o),
(2,522,cs),
(2,484,o),
(30,457,o),
(69,457,cs)
);
},
{
closed = 1;
nodes = (
(56,497,o),
(46,508,o),
(46,522,cs),
(46,537,o),
(56,547,o),
(69,547,cs),
(81,547,o),
(91,537,o),
(91,522,cs),
(91,508,o),
(81,497,o),
(69,497,cs)
);
}
);
width = 0;
}
);
note = uni0652;
unicode = 1618;
},
{
glyphname = uni0653;
layers = (
{
layerId = m01;
shapes = (
{
closed = 1;
nodes = (
(86,656,o),
(133,625,o),
(162,625,cs),
(184,624,o),
(202,636,o),
(206,654,cs),
(209,668,o),
(207,684,o),
(200,696,cs),
(198,699,o),
(196,699,o),
(194,699,cs),
(190,698,o),
(188,693,o),
(183,687,cs),
(178,679,o),
(170,671,o),
(158,671,cs),
(135,671,o),
(88,701,o),
(59,701,cs),
(37,702,o),
(20,691,o),
(15,672,cs),
(11,658,o),
(14,642,o),
(21,630,cs),
(23,627,o),
(25,627,o),
(27,627,cs),
(31,628,o),
(33,633,o),
(38,639,cs),
(43,647,o),
(51,656,o),
(63,656,cs)
);
}
);
width = 0;
}
);
note = uni0653;
unicode = 1619;
},
{
glyphname = uni0654;
layers = (
{
layerId = m01;
shapes = (
{
closed = 1;
nodes = (
(118,662,o),
(103,676,o),
(103,699,cs),
(103,722,o),
(117,735,o),
(139,735,cs),
(152,735,o),
(162,731,o),
(175,725,cs),
(182,722,o),
(185,720,o),
(187,720,cs),
(192,720,o),
(192,723,o),
(192,732,cs),
(192,762,o),
(166,786,o),
(129,784,cs),
(84,783,o),
(50,748,o),
(50,699,cs),
(50,687,o),
(53,671,o),
(61,658,c),
(41,652,o),
(29,639,o),
(28,619,cs),
(28,612,o),
(30,607,o),
(31,603,cs),
(33,599,o),
(35,598,o),
(36,598,cs),
(37,598,o),
(39,599,o),
(43,601,cs),
(49,604,o),
(61,611,o),
(84,611,cs),
(204,611,ls),
(211,611,o),
(213,612,o),
(213,619,cs),
(213,624,ls),
(213,647,o),
(197,662,o),
(171,662,cs),
(139,662,ls)
);
}
);
width = 0;
}
);
note = uni0654;
unicode = 1620;
},
{
glyphname = uni0655;
layers = (
{
layerId = m01;
shapes = (
{
closed = 1;
nodes = (
(106,-186,o),
(91,-172,o),
(91,-149,cs),
(91,-126,o),
(105,-113,o),
(127,-113,cs),
(140,-113,o),
(150,-117,o),
(163,-123,cs),
(170,-126,o),
(173,-128,o),
(175,-128,cs),
(180,-128,o),
(180,-125,o),
(180,-116,cs),
(180,-86,o),
(154,-62,o),
(117,-63,cs),
(72,-64,o),
(38,-99,o),
(38,-148,cs),
(38,-161,o),
(41,-177,o),
(49,-190,c),
(29,-196,o),
(17,-209,o),
(16,-229,cs),
(16,-236,o),
(18,-241,o),
(19,-245,c),
(21,-248,o),
(23,-249,o),
(24,-249,cs),
(25,-249,o),
(27,-249,o),
(31,-247,cs),
(37,-244,o),
(49,-237,o),
(72,-237,cs),
(192,-237,ls),
(199,-237,o),
(201,-236,o),
(201,-229,cs),
(201,-223,ls),
(201,-201,o),
(185,-186,o),
(159,-186,cs),
(127,-186,ls)
);
}
);
width = 0;
}
);
note = uni0655;
unicode = 1621;
},
{
glyphname = uni065A;
layers = (
{
layerId = m01;
shapes = (
{
closed = 1;
nodes = (
(264,583,o),
(248,573,o),
(237,545,cs),
(214,488,l),
(191,545,ls),
(180,573,o),
(164,583,o),
(132,583,cs),
(122,583,o),
(123,581,o),
(125,573,c),
(180,433,ls),
(183,424,o),
(190,419,o),
(199,419,cs),
(229,419,ls),
(238,419,o),
(245,424,o),
(248,433,cs),
(303,573,l),
(305,581,o),
(305,583,o),
(295,583,cs)
);
}
);
width = 333;
}
);
note = uni065A;
unicode = 1626;
},
{
glyphname = zero.ar;
layers = (
{
layerId = m01;
shapes = (
{
closed = 1;
nodes = (
(172,99,o),
(150,150,o),
(150,277,cs),
(150,404,o),
(173,457,o),
(244,457,cs),
(314,457,o),
(338,403,o),
(338,277,cs),
(338,150,o),
(315,99,o),
(244,99,cs)
);
},
{
closed = 1;
nodes = (
(385,-10,o),
(457,91,o),
(457,277,cs),
(457,462,o),
(383,566,o),
(244,566,cs),
(104,566,o),
(31,463,o),
(31,277,cs),
(31,88,o),
(102,-10,o),
(244,-10,cs)
);
}
);
width = 489;
}
);
note = zero.ar;
unicode = 1632;
},
{
glyphname = one.ar;
layers = (
{
layerId = m01;
shapes = (
{
closed = 1;
nodes = (
(40,106,ls),
(31,106,o),
(27,102,o),
(27,93,cs),
(27,13,ls),
(27,4,o),
(31,0,o),
(40,0,cs),
(341,0,ls),
(351,0,o),
(357,7,o),
(357,17,cs),
(357,40,ls),
(357,82,o),
(333,106,o),
(287,106,cs),
(246,106,l),
(246,489,ls),
(246,532,o),
(222,556,o),
(176,556,cs),
(151,556,ls),
(133,556,o),
(112,551,o),
(99,546,cs),
(43,526,ls),
(33,522,o),
(28,516,o),
(28,506,cs),
(28,418,ls),
(28,409,o),
(35,406,o),
(43,409,cs),
(130,441,l),
(130,106,l)
);
}
);
width = 373;
}
);
note = one.ar;
unicode = 1633;
},
{
glyphname = two.ar;
layers = (
{
layerId = m01;
shapes = (
{
closed = 1;
nodes = (
(188,189,o),
(420,226,o),
(420,406,cs),
(420,516,o),
(338,566,o),
(229,566,cs),
(178,566,o),
(135,558,o),
(97,545,cs),
(50,529,o),
(39,501,o),
(53,459,cs),
(62,432,ls),
(64,426,o),
(67,423,o),
(72,423,cs),
(75,423,o),
(80,424,o),
(85,427,cs),
(125,448,o),
(169,463,o),
(220,463,cs),
(270,463,o),
(300,439,o),
(300,400,cs),
(300,259,o),
(28,283,o),
(28,13,cs),
(28,4,o),
(32,0,o),
(41,0,cs),
(412,0,ls),
(422,0,o),
(428,7,o),
(428,17,cs),
(428,42,ls),
(428,84,o),
(404,106,o),
(358,106,cs),
(173,106,l)
);
}
);
width = 463;
}
);
note = two.ar;
unicode = 1634;
},
